<svg width="54" height="162" viewBox="0 0 54 162" fill="none" xmlns="http://www.w3.org/2000/svg">
<path d="M9.16562 18C9.04562 18 8.96762 17.94 8.93162 17.82L8.39162 16.056C8.36762 16.008 8.33762 15.984 8.30162 15.984H3.87362C3.83762 15.984 3.80762 16.008 3.78362 16.056L3.26162 17.82C3.22562 17.94 3.14762 18 3.02762 18H0.741617C0.669617 18 0.615617 17.982 0.579617 17.946C0.543617 17.898 0.537617 17.832 0.561617 17.748L4.44962 5.58C4.48562 5.46 4.56362 5.4 4.68362 5.4H7.50962C7.62962 5.4 7.70762 5.46 7.74362 5.58L11.6316 17.748C11.6436 17.772 11.6496 17.802 11.6496 17.838C11.6496 17.946 11.5836 18 11.4516 18H9.16562ZM4.43162 13.914C4.41962 13.986 4.44362 14.022 4.50362 14.022H7.67162C7.74362 14.022 7.76762 13.986 7.74362 13.914L6.12362 8.568C6.11162 8.52 6.09362 8.502 6.06962 8.514C6.04562 8.514 6.02762 8.532 6.01562 8.568L4.43162 13.914ZM21.2598 11.106C21.4878 11.73 21.6018 12.474 21.6018 13.338C21.6018 14.166 21.4998 14.892 21.2958 15.516C21.0198 16.332 20.5758 16.974 19.9638 17.442C19.3638 17.91 18.6498 18.144 17.8218 18.144C16.9458 18.144 16.2558 17.814 15.7518 17.154C15.7278 17.13 15.7038 17.124 15.6798 17.136C15.6558 17.136 15.6438 17.154 15.6438 17.19V17.784C15.6438 17.844 15.6198 17.898 15.5718 17.946C15.5358 17.982 15.4878 18 15.4278 18H13.3218C13.2618 18 13.2078 17.982 13.1598 17.946C13.1238 17.898 13.1058 17.844 13.1058 17.784V5.616C13.1058 5.556 13.1238 5.508 13.1598 5.472C13.2078 5.424 13.2618 5.4 13.3218 5.4H15.4278C15.4878 5.4 15.5358 5.424 15.5718 5.472C15.6198 5.508 15.6438 5.556 15.6438 5.616V9.468C15.6438 9.504 15.6558 9.528 15.6798 9.54C15.7038 9.552 15.7278 9.54 15.7518 9.504C16.2198 8.904 16.8858 8.604 17.7498 8.604C18.6258 8.604 19.3578 8.832 19.9458 9.288C20.5458 9.732 20.9838 10.338 21.2598 11.106ZM18.5958 15.192C18.8478 14.736 18.9738 14.136 18.9738 13.392C18.9738 12.564 18.8298 11.928 18.5418 11.484C18.2538 11.016 17.8278 10.782 17.2638 10.782C16.7358 10.782 16.3338 11.016 16.0578 11.484C15.7938 11.94 15.6618 12.57 15.6618 13.374C15.6618 14.178 15.7818 14.784 16.0218 15.192C16.3098 15.708 16.7298 15.966 17.2818 15.966C17.8698 15.966 18.3078 15.708 18.5958 15.192ZM27.2984 18.144C26.2904 18.144 25.4264 17.88 24.7064 17.352C23.9864 16.824 23.4944 16.104 23.2304 15.192C23.0624 14.628 22.9784 14.016 22.9784 13.356C22.9784 12.648 23.0624 12.012 23.2304 11.448C23.5064 10.56 24.0044 9.864 24.7244 9.36C25.4444 8.856 26.3084 8.604 27.3164 8.604C28.3004 8.604 29.1404 8.856 29.8364 9.36C30.5324 9.852 31.0244 10.542 31.3124 11.43C31.5044 12.03 31.6004 12.66 31.6004 13.32C31.6004 13.968 31.5164 14.574 31.3484 15.138C31.0844 16.074 30.5924 16.812 29.8724 17.352C29.1644 17.88 28.3064 18.144 27.2984 18.144ZM27.2984 15.966C27.6944 15.966 28.0304 15.846 28.3064 15.606C28.5824 15.366 28.7804 15.036 28.9004 14.616C28.9964 14.232 29.0444 13.812 29.0444 13.356C29.0444 12.852 28.9964 12.426 28.9004 12.078C28.7684 11.67 28.5644 11.352 28.2884 11.124C28.0124 10.896 27.6764 10.782 27.2804 10.782C26.8724 10.782 26.5304 10.896 26.2544 11.124C25.9904 11.352 25.7984 11.67 25.6784 12.078C25.5824 12.366 25.5344 12.792 25.5344 13.356C25.5344 13.896 25.5764 14.316 25.6604 14.616C25.7804 15.036 25.9784 15.366 26.2544 15.606C26.5424 15.846 26.8904 15.966 27.2984 15.966ZM38.6319 8.964C38.6319 8.904 38.6499 8.856 38.6859 8.82C38.7339 8.772 38.7879 8.748 38.8479 8.748H40.9539C41.0139 8.748 41.0619 8.772 41.0979 8.82C41.1459 8.856 41.1699 8.904 41.1699 8.964V17.784C41.1699 17.844 41.1459 17.898 41.0979 17.946C41.0619 17.982 41.0139 18 40.9539 18H38.8479C38.7879 18 38.7339 17.982 38.6859 17.946C38.6499 17.898 38.6319 17.844 38.6319 17.784V17.172C38.6319 17.136 38.6199 17.118 38.5959 17.118C38.5719 17.106 38.5479 17.118 38.5239 17.154C38.0439 17.802 37.2999 18.126 36.2919 18.126C35.3799 18.126 34.6299 17.85 34.0419 17.298C33.4539 16.746 33.1599 15.972 33.1599 14.976V8.964C33.1599 8.904 33.1779 8.856 33.2139 8.82C33.2619 8.772 33.3159 8.748 33.3759 8.748H35.4639C35.5239 8.748 35.5719 8.772 35.6079 8.82C35.6559 8.856 35.6799 8.904 35.6799 8.964V14.346C35.6799 14.826 35.8059 15.216 36.0579 15.516C36.3219 15.816 36.6819 15.966 37.1379 15.966C37.5459 15.966 37.8819 15.846 38.1459 15.606C38.4099 15.354 38.5719 15.03 38.6319 14.634V8.964ZM48.3505 10.566C48.3505 10.626 48.3265 10.68 48.2785 10.728C48.2425 10.764 48.1945 10.782 48.1345 10.782H46.4065C46.3465 10.782 46.3165 10.812 46.3165 10.872V14.688C46.3165 15.084 46.3945 15.378 46.5505 15.57C46.7185 15.762 46.9825 15.858 47.3425 15.858H47.9365C47.9965 15.858 48.0445 15.882 48.0805 15.93C48.1285 15.966 48.1525 16.014 48.1525 16.074V17.784C48.1525 17.916 48.0805 17.994 47.9365 18.018C47.4325 18.042 47.0725 18.054 46.8565 18.054C45.8605 18.054 45.1165 17.892 44.6245 17.568C44.1325 17.232 43.8805 16.608 43.8685 15.696V10.872C43.8685 10.812 43.8385 10.782 43.7785 10.782H42.7525C42.6925 10.782 42.6385 10.764 42.5905 10.728C42.5545 10.68 42.5365 10.626 42.5365 10.566V8.964C42.5365 8.904 42.5545 8.856 42.5905 8.82C42.6385 8.772 42.6925 8.748 42.7525 8.748H43.7785C43.8385 8.748 43.8685 8.718 43.8685 8.658V6.516C43.8685 6.456 43.8865 6.408 43.9225 6.372C43.9705 6.324 44.0245 6.3 44.0845 6.3H46.1005C46.1605 6.3 46.2085 6.324 46.2445 6.372C46.2925 6.408 46.3165 6.456 46.3165 6.516V8.658C46.3165 8.718 46.3465 8.748 46.4065 8.748H48.1345C48.1945 8.748 48.2425 8.772 48.2785 8.82C48.3265 8.856 48.3505 8.904 48.3505 8.964V10.566Z" fill="#112B3C"/>
<path d="M7.126 54C7.042 54 6.986 53.9627 6.958 53.888L6.398 52.124C6.38867 52.096 6.37 52.082 6.342 52.082H2.156C2.128 52.082 2.10933 52.096 2.1 52.124L1.54 53.888C1.512 53.9627 1.456 54 1.372 54H0.616C0.513333 54 0.476 53.9487 0.504 53.846L3.598 44.312C3.626 44.2373 3.682 44.2 3.766 44.2H4.718C4.802 44.2 4.858 44.2373 4.886 44.312L7.994 53.846L8.008 53.902C8.008 53.9673 7.966 54 7.882 54H7.126ZM2.38 51.2C2.37067 51.2187 2.37067 51.2373 2.38 51.256C2.39867 51.2653 2.41733 51.27 2.436 51.27H6.048C6.06667 51.27 6.08067 51.2653 6.09 51.256C6.10867 51.2373 6.11333 51.2187 6.104 51.2L4.284 45.488C4.27467 45.4693 4.26067 45.46 4.242 45.46C4.22333 45.46 4.20933 45.4693 4.2 45.488L2.38 51.2ZM15.0699 48.722C15.1819 49.142 15.2379 49.7207 15.2379 50.458C15.2379 51.2233 15.1726 51.816 15.0419 52.236C14.8646 52.8147 14.5566 53.272 14.1179 53.608C13.6792 53.944 13.1332 54.112 12.4799 54.112C12.1066 54.112 11.7659 54.0373 11.4579 53.888C11.1499 53.7387 10.8932 53.524 10.6879 53.244C10.6786 53.2253 10.6646 53.2207 10.6459 53.23C10.6272 53.23 10.6179 53.2393 10.6179 53.258V53.86C10.6179 53.9533 10.5712 54 10.4779 54H9.76391C9.67057 54 9.62391 53.9533 9.62391 53.86V44.34C9.62391 44.2467 9.67057 44.2 9.76391 44.2H10.4779C10.5712 44.2 10.6179 44.2467 10.6179 44.34V47.644C10.6179 47.6627 10.6226 47.6767 10.6319 47.686C10.6506 47.686 10.6692 47.6767 10.6879 47.658C10.8932 47.3873 11.1499 47.1773 11.4579 47.028C11.7659 46.8787 12.1066 46.804 12.4799 46.804C13.1426 46.804 13.6979 46.9767 14.1459 47.322C14.5939 47.658 14.9019 48.1247 15.0699 48.722ZM13.9919 52.152C14.0852 51.956 14.1506 51.7367 14.1879 51.494C14.2252 51.242 14.2439 50.8967 14.2439 50.458C14.2439 50.0007 14.2159 49.646 14.1599 49.394C14.1132 49.1327 14.0339 48.8993 13.9219 48.694C13.8006 48.386 13.6046 48.1387 13.3339 47.952C13.0632 47.7653 12.7412 47.672 12.3679 47.672C12.0132 47.672 11.7052 47.77 11.4439 47.966C11.1919 48.1527 11.0099 48.4047 10.8979 48.722C10.8046 48.918 10.7346 49.142 10.6879 49.394C10.6506 49.646 10.6319 50.0007 10.6319 50.458C10.6319 50.906 10.6506 51.256 10.6879 51.508C10.7346 51.7507 10.7999 51.97 10.8839 52.166C11.0052 52.4927 11.1919 52.754 11.4439 52.95C11.6959 53.146 12.0086 53.244 12.3819 53.244C12.7739 53.244 13.1099 53.146 13.3899 52.95C13.6792 52.754 13.8799 52.488 13.9919 52.152ZM19.8728 54.112C19.2008 54.112 18.6221 53.9393 18.1368 53.594C17.6514 53.2487 17.3154 52.7727 17.1288 52.166C16.9981 51.7367 16.9328 51.1627 16.9328 50.444C16.9328 49.7253 16.9981 49.156 17.1288 48.736C17.3061 48.1387 17.6374 47.6673 18.1228 47.322C18.6081 46.9767 19.1961 46.804 19.8868 46.804C20.5494 46.804 21.1188 46.9767 21.5948 47.322C22.0801 47.6673 22.4114 48.134 22.5888 48.722C22.7194 49.1233 22.7848 49.6973 22.7848 50.444C22.7848 51.2 22.7194 51.774 22.5888 52.166C22.4114 52.7727 22.0801 53.2487 21.5948 53.594C21.1188 53.9393 20.5448 54.112 19.8728 54.112ZM19.8728 53.244C20.3208 53.244 20.7034 53.1227 21.0208 52.88C21.3381 52.628 21.5528 52.292 21.6648 51.872C21.7488 51.536 21.7908 51.0647 21.7908 50.458C21.7908 49.842 21.7534 49.3707 21.6788 49.044C21.5668 48.624 21.3474 48.2927 21.0208 48.05C20.7034 47.798 20.3161 47.672 19.8588 47.672C19.4014 47.672 19.0141 47.798 18.6968 48.05C18.3794 48.2927 18.1648 48.624 18.0528 49.044C17.9781 49.3707 17.9408 49.842 17.9408 50.458C17.9408 51.074 17.9781 51.5453 18.0528 51.872C18.1554 52.292 18.3654 52.628 18.6828 52.88C19.0094 53.1227 19.4061 53.244 19.8728 53.244ZM29.0837 47.056C29.0837 46.9627 29.1304 46.916 29.2237 46.916H29.9377C30.031 46.916 30.0777 46.9627 30.0777 47.056V53.86C30.0777 53.9533 30.031 54 29.9377 54H29.2237C29.1304 54 29.0837 53.9533 29.0837 53.86V53.258C29.0837 53.2393 29.0744 53.2253 29.0557 53.216C29.037 53.2067 29.023 53.2113 29.0137 53.23C28.6217 53.8087 28.001 54.098 27.1517 54.098C26.7037 54.098 26.2884 54.0093 25.9057 53.832C25.5324 53.6453 25.2337 53.3793 25.0097 53.034C24.795 52.6887 24.6877 52.2733 24.6877 51.788V47.056C24.6877 46.9627 24.7344 46.916 24.8277 46.916H25.5417C25.635 46.916 25.6817 46.9627 25.6817 47.056V51.494C25.6817 52.026 25.831 52.4507 26.1297 52.768C26.4284 53.076 26.8344 53.23 27.3477 53.23C27.8797 53.23 28.2997 53.0713 28.6077 52.754C28.925 52.4367 29.0837 52.0167 29.0837 51.494V47.056ZM35.4835 47.602C35.4835 47.6953 35.4369 47.742 35.3435 47.742H33.7615C33.7242 47.742 33.7055 47.7607 33.7055 47.798V51.928C33.7055 52.376 33.8035 52.6933 33.9995 52.88C34.2049 53.0573 34.5222 53.146 34.9515 53.146H35.3015C35.3949 53.146 35.4415 53.1927 35.4415 53.286V53.86C35.4415 53.9533 35.3949 54 35.3015 54C35.1895 54.0093 35.0169 54.014 34.7835 54.014C34.1115 54.014 33.6029 53.888 33.2575 53.636C32.9122 53.384 32.7395 52.9173 32.7395 52.236V47.798C32.7395 47.7607 32.7209 47.742 32.6835 47.742H31.8295C31.7362 47.742 31.6895 47.6953 31.6895 47.602V47.056C31.6895 46.9627 31.7362 46.916 31.8295 46.916H32.6835C32.7209 46.916 32.7395 46.8973 32.7395 46.86V45.236C32.7395 45.1427 32.7862 45.096 32.8795 45.096H33.5655C33.6589 45.096 33.7055 45.1427 33.7055 45.236V46.86C33.7055 46.8973 33.7242 46.916 33.7615 46.916H35.3435C35.4369 46.916 35.4835 46.9627 35.4835 47.056V47.602ZM44.4919 47.056C44.4919 46.9627 44.5386 46.916 44.6319 46.916H45.3459C45.4392 46.916 45.4859 46.9627 45.4859 47.056V53.86C45.4859 53.9533 45.4392 54 45.3459 54H44.6319C44.5386 54 44.4919 53.9533 44.4919 53.86V53.258C44.4919 53.2393 44.4826 53.2253 44.4639 53.216C44.4452 53.2067 44.4312 53.2113 44.4219 53.23C44.0299 53.8087 43.4092 54.098 42.5599 54.098C42.1119 54.098 41.6966 54.0093 41.3139 53.832C40.9406 53.6453 40.6419 53.3793 40.4179 53.034C40.2032 52.6887 40.0959 52.2733 40.0959 51.788V47.056C40.0959 46.9627 40.1426 46.916 40.2359 46.916H40.9499C41.0432 46.916 41.0899 46.9627 41.0899 47.056V51.494C41.0899 52.026 41.2392 52.4507 41.5379 52.768C41.8366 53.076 42.2426 53.23 42.7559 53.23C43.2879 53.23 43.7079 53.0713 44.0159 52.754C44.3332 52.4367 44.4919 52.0167 44.4919 51.494V47.056ZM50.0378 54.07C49.5151 54.07 49.0484 53.986 48.6378 53.818C48.2364 53.65 47.9238 53.426 47.6998 53.146C47.4851 52.866 47.3778 52.5533 47.3778 52.208V52.04C47.3778 51.9467 47.4244 51.9 47.5177 51.9H48.1898C48.2831 51.9 48.3298 51.9467 48.3298 52.04V52.152C48.3298 52.46 48.4884 52.7307 48.8058 52.964C49.1324 53.188 49.5384 53.3 50.0238 53.3C50.5091 53.3 50.9011 53.1927 51.1998 52.978C51.4984 52.754 51.6478 52.474 51.6478 52.138C51.6478 51.9047 51.5684 51.7133 51.4098 51.564C51.2604 51.4147 51.0784 51.298 50.8638 51.214C50.6584 51.13 50.3364 51.0227 49.8978 50.892C49.3751 50.7427 48.9458 50.5933 48.6098 50.444C48.2738 50.2947 47.9891 50.0893 47.7558 49.828C47.5318 49.5573 47.4198 49.2167 47.4198 48.806C47.4198 48.2087 47.6531 47.7327 48.1198 47.378C48.5864 47.0233 49.2024 46.846 49.9678 46.846C50.4811 46.846 50.9338 46.93 51.3258 47.098C51.7271 47.266 52.0351 47.4993 52.2498 47.798C52.4644 48.0873 52.5718 48.414 52.5718 48.778V48.82C52.5718 48.9133 52.5251 48.96 52.4318 48.96H51.7738C51.6804 48.96 51.6338 48.9133 51.6338 48.82V48.778C51.6338 48.4607 51.4798 48.1947 51.1718 47.98C50.8731 47.7653 50.4671 47.658 49.9538 47.658C49.4778 47.658 49.0951 47.756 48.8058 47.952C48.5164 48.1387 48.3718 48.4 48.3718 48.736C48.3718 49.0533 48.5118 49.296 48.7918 49.464C49.0718 49.632 49.5058 49.8 50.0938 49.968C50.6351 50.1267 51.0738 50.276 51.4098 50.416C51.7458 50.556 52.0351 50.7613 52.2778 51.032C52.5204 51.2933 52.6418 51.6387 52.6418 52.068C52.6418 52.6747 52.4038 53.16 51.9278 53.524C51.4518 53.888 50.8218 54.07 50.0378 54.07Z" fill="#112B3C"/>
<path d="M7.644 79.928C7.644 80.0213 7.59733 80.068 7.504 80.068H2.366C2.32867 80.068 2.31 80.0867 2.31 80.124V83.582C2.31 83.6193 2.32867 83.638 2.366 83.638H5.964C6.05733 83.638 6.104 83.6847 6.104 83.778V84.366C6.104 84.4593 6.05733 84.506 5.964 84.506H2.366C2.32867 84.506 2.31 84.5247 2.31 84.562V88.86C2.31 88.9533 2.26333 89 2.17 89H1.456C1.36267 89 1.316 88.9533 1.316 88.86V79.34C1.316 79.2467 1.36267 79.2 1.456 79.2H7.504C7.59733 79.2 7.644 79.2467 7.644 79.34V79.928ZM13.9485 84.268C13.9858 84.5293 14.0045 84.856 14.0045 85.248V85.696C14.0045 85.7893 13.9578 85.836 13.8645 85.836H9.34248C9.30515 85.836 9.28648 85.8547 9.28648 85.892C9.30515 86.4053 9.33315 86.7367 9.37048 86.886C9.47315 87.306 9.69248 87.6373 10.0285 87.88C10.3645 88.1227 10.7938 88.244 11.3165 88.244C11.7085 88.244 12.0538 88.1553 12.3525 87.978C12.6512 87.8007 12.8845 87.5487 13.0525 87.222C13.1085 87.138 13.1738 87.1193 13.2485 87.166L13.7945 87.488C13.8692 87.5347 13.8878 87.6 13.8505 87.684C13.6172 88.132 13.2672 88.4867 12.8005 88.748C12.3338 89 11.7972 89.126 11.1905 89.126C10.5278 89.1167 9.97248 88.958 9.52448 88.65C9.07648 88.342 8.75448 87.9127 8.55848 87.362C8.39048 86.914 8.30648 86.27 8.30648 85.43C8.30648 85.038 8.31115 84.7207 8.32048 84.478C8.33915 84.226 8.37648 84.002 8.43248 83.806C8.59115 83.1993 8.90848 82.714 9.38448 82.35C9.86982 81.986 10.4532 81.804 11.1345 81.804C11.9838 81.804 12.6372 82.0187 13.0945 82.448C13.5518 82.8773 13.8365 83.484 13.9485 84.268ZM11.1345 82.672C10.6772 82.672 10.2945 82.7933 9.98648 83.036C9.68782 83.2693 9.49182 83.5867 9.39848 83.988C9.34248 84.184 9.30515 84.5013 9.28648 84.94C9.28648 84.9773 9.30515 84.996 9.34248 84.996H12.9685C13.0058 84.996 13.0245 84.9773 13.0245 84.94C13.0058 84.52 12.9778 84.2213 12.9405 84.044C12.8378 83.624 12.6278 83.2927 12.3105 83.05C12.0025 82.798 11.6105 82.672 11.1345 82.672ZM18.363 81.804C19.203 81.804 19.8516 82.0187 20.309 82.448C20.7663 82.8773 20.995 83.4467 20.995 84.156V88.86C20.995 88.9533 20.9483 89 20.855 89H20.141C20.0476 89 20.001 88.9533 20.001 88.86V88.286C20.001 88.2673 19.9916 88.2533 19.973 88.244C19.9636 88.2347 19.9496 88.2393 19.931 88.258C19.6976 88.538 19.3943 88.7527 19.021 88.902C18.6476 89.042 18.2323 89.112 17.775 89.112C17.1123 89.112 16.557 88.944 16.109 88.608C15.661 88.272 15.437 87.7587 15.437 87.068C15.437 86.368 15.689 85.8173 16.193 85.416C16.7063 85.0053 17.4156 84.8 18.321 84.8H19.945C19.9823 84.8 20.001 84.7813 20.001 84.744V84.212C20.001 83.736 19.8656 83.3627 19.595 83.092C19.3336 82.812 18.923 82.672 18.363 82.672C17.915 82.672 17.551 82.7607 17.271 82.938C16.991 83.106 16.8183 83.344 16.753 83.652C16.725 83.7453 16.669 83.7873 16.585 83.778L15.829 83.68C15.7263 83.6613 15.6843 83.624 15.703 83.568C15.7776 83.0453 16.0576 82.6207 16.543 82.294C17.0283 81.9673 17.635 81.804 18.363 81.804ZM17.971 88.258C18.5216 88.258 18.9976 88.1227 19.399 87.852C19.8003 87.572 20.001 87.1987 20.001 86.732V85.64C20.001 85.6027 19.9823 85.584 19.945 85.584H18.475C17.859 85.584 17.3643 85.71 16.991 85.962C16.6176 86.214 16.431 86.564 16.431 87.012C16.431 87.4227 16.571 87.7353 16.851 87.95C17.1403 88.1553 17.5136 88.258 17.971 88.258ZM26.1867 82.602C26.1867 82.6953 26.14 82.742 26.0467 82.742H24.4647C24.4273 82.742 24.4087 82.7607 24.4087 82.798V86.928C24.4087 87.376 24.5067 87.6933 24.7027 87.88C24.908 88.0573 25.2253 88.146 25.6547 88.146H26.0047C26.098 88.146 26.1447 88.1927 26.1447 88.286V88.86C26.1447 88.9533 26.098 89 26.0047 89C25.8927 89.0093 25.72 89.014 25.4867 89.014C24.8147 89.014 24.306 88.888 23.9607 88.636C23.6153 88.384 23.4427 87.9173 23.4427 87.236V82.798C23.4427 82.7607 23.424 82.742 23.3867 82.742H22.5327C22.4393 82.742 22.3927 82.6953 22.3927 82.602V82.056C22.3927 81.9627 22.4393 81.916 22.5327 81.916H23.3867C23.424 81.916 23.4427 81.8973 23.4427 81.86V80.236C23.4427 80.1427 23.4893 80.096 23.5827 80.096H24.2687C24.362 80.096 24.4087 80.1427 24.4087 80.236V81.86C24.4087 81.8973 24.4273 81.916 24.4647 81.916H26.0467C26.14 81.916 26.1867 81.9627 26.1867 82.056V82.602ZM32.3923 82.056C32.3923 81.9627 32.4389 81.916 32.5323 81.916H33.2463C33.3396 81.916 33.3863 81.9627 33.3863 82.056V88.86C33.3863 88.9533 33.3396 89 33.2463 89H32.5323C32.4389 89 32.3923 88.9533 32.3923 88.86V88.258C32.3923 88.2393 32.3829 88.2253 32.3643 88.216C32.3456 88.2067 32.3316 88.2113 32.3223 88.23C31.9303 88.8087 31.3096 89.098 30.4603 89.098C30.0123 89.098 29.5969 89.0093 29.2143 88.832C28.8409 88.6453 28.5423 88.3793 28.3183 88.034C28.1036 87.6887 27.9963 87.2733 27.9963 86.788V82.056C27.9963 81.9627 28.0429 81.916 28.1363 81.916H28.8503C28.9436 81.916 28.9903 81.9627 28.9903 82.056V86.494C28.9903 87.026 29.1396 87.4507 29.4383 87.768C29.7369 88.076 30.1429 88.23 30.6563 88.23C31.1883 88.23 31.6083 88.0713 31.9163 87.754C32.2336 87.4367 32.3923 87.0167 32.3923 86.494V82.056ZM38.4701 81.846C38.7781 81.846 39.0441 81.9067 39.2681 82.028C39.3428 82.0653 39.3708 82.126 39.3521 82.21L39.1981 82.896C39.1701 82.9893 39.1095 83.0173 39.0161 82.98C38.8575 82.9147 38.6755 82.882 38.4701 82.882L38.2881 82.896C37.8028 82.9147 37.4015 83.0967 37.0841 83.442C36.7668 83.778 36.6081 84.2073 36.6081 84.73V88.86C36.6081 88.9533 36.5615 89 36.4681 89H35.7541C35.6608 89 35.6141 88.9533 35.6141 88.86V82.056C35.6141 81.9627 35.6608 81.916 35.7541 81.916H36.4681C36.5615 81.916 36.6081 81.9627 36.6081 82.056V82.91C36.6081 82.938 36.6128 82.9567 36.6221 82.966C36.6408 82.966 36.6548 82.9567 36.6641 82.938C36.8601 82.5927 37.1075 82.3267 37.4061 82.14C37.7141 81.944 38.0688 81.846 38.4701 81.846ZM46.0774 84.268C46.1147 84.5293 46.1334 84.856 46.1334 85.248V85.696C46.1334 85.7893 46.0867 85.836 45.9934 85.836H41.4714C41.4341 85.836 41.4154 85.8547 41.4154 85.892C41.4341 86.4053 41.4621 86.7367 41.4994 86.886C41.6021 87.306 41.8214 87.6373 42.1574 87.88C42.4934 88.1227 42.9227 88.244 43.4454 88.244C43.8374 88.244 44.1827 88.1553 44.4814 87.978C44.7801 87.8007 45.0134 87.5487 45.1814 87.222C45.2374 87.138 45.3027 87.1193 45.3774 87.166L45.9234 87.488C45.9981 87.5347 46.0167 87.6 45.9794 87.684C45.7461 88.132 45.3961 88.4867 44.9294 88.748C44.4627 89 43.9261 89.126 43.3194 89.126C42.6567 89.1167 42.1014 88.958 41.6534 88.65C41.2054 88.342 40.8834 87.9127 40.6874 87.362C40.5194 86.914 40.4354 86.27 40.4354 85.43C40.4354 85.038 40.4401 84.7207 40.4494 84.478C40.4681 84.226 40.5054 84.002 40.5614 83.806C40.7201 83.1993 41.0374 82.714 41.5134 82.35C41.9987 81.986 42.5821 81.804 43.2634 81.804C44.1127 81.804 44.7661 82.0187 45.2234 82.448C45.6807 82.8773 45.9654 83.484 46.0774 84.268ZM43.2634 82.672C42.8061 82.672 42.4234 82.7933 42.1154 83.036C41.8167 83.2693 41.6207 83.5867 41.5274 83.988C41.4714 84.184 41.4341 84.5013 41.4154 84.94C41.4154 84.9773 41.4341 84.996 41.4714 84.996H45.0974C45.1347 84.996 45.1534 84.9773 45.1534 84.94C45.1347 84.52 45.1067 84.2213 45.0694 84.044C44.9667 83.624 44.7567 83.2927 44.4394 83.05C44.1314 82.798 43.7394 82.672 43.2634 82.672ZM50.3112 89.07C49.7885 89.07 49.3219 88.986 48.9112 88.818C48.5099 88.65 48.1972 88.426 47.9732 88.146C47.7585 87.866 47.6512 87.5533 47.6512 87.208V87.04C47.6512 86.9467 47.6979 86.9 47.7912 86.9H48.4632C48.5565 86.9 48.6032 86.9467 48.6032 87.04V87.152C48.6032 87.46 48.7619 87.7307 49.0792 87.964C49.4059 88.188 49.8119 88.3 50.2972 88.3C50.7825 88.3 51.1745 88.1927 51.4732 87.978C51.7719 87.754 51.9212 87.474 51.9212 87.138C51.9212 86.9047 51.8419 86.7133 51.6832 86.564C51.5339 86.4147 51.3519 86.298 51.1372 86.214C50.9319 86.13 50.6099 86.0227 50.1712 85.892C49.6485 85.7427 49.2192 85.5933 48.8832 85.444C48.5472 85.2947 48.2625 85.0893 48.0292 84.828C47.8052 84.5573 47.6932 84.2167 47.6932 83.806C47.6932 83.2087 47.9265 82.7327 48.3932 82.378C48.8599 82.0233 49.4759 81.846 50.2412 81.846C50.7545 81.846 51.2072 81.93 51.5992 82.098C52.0005 82.266 52.3085 82.4993 52.5232 82.798C52.7379 83.0873 52.8452 83.414 52.8452 83.778V83.82C52.8452 83.9133 52.7985 83.96 52.7052 83.96H52.0472C51.9539 83.96 51.9072 83.9133 51.9072 83.82V83.778C51.9072 83.4607 51.7532 83.1947 51.4452 82.98C51.1465 82.7653 50.7405 82.658 50.2272 82.658C49.7512 82.658 49.3685 82.756 49.0792 82.952C48.7899 83.1387 48.6452 83.4 48.6452 83.736C48.6452 84.0533 48.7852 84.296 49.0652 84.464C49.3452 84.632 49.7792 84.8 50.3672 84.968C50.9085 85.1267 51.3472 85.276 51.6832 85.416C52.0192 85.556 52.3085 85.7613 52.5512 86.032C52.7939 86.2933 52.9152 86.6387 52.9152 87.068C52.9152 87.6747 52.6772 88.16 52.2012 88.524C51.7252 88.888 51.0952 89.07 50.3112 89.07Z" fill="#112B3C"/>
<path d="M7.154 114.34C7.154 114.247 7.20067 114.2 7.294 114.2H8.008C8.10133 114.2 8.148 114.247 8.148 114.34V123.86C8.148 123.953 8.10133 124 8.008 124H7.308C7.24267 124 7.18667 123.967 7.14 123.902L2.366 116.132C2.35667 116.104 2.34267 116.095 2.324 116.104C2.30533 116.104 2.296 116.118 2.296 116.146L2.31 123.86C2.31 123.953 2.26333 124 2.17 124H1.456C1.36267 124 1.316 123.953 1.316 123.86V114.34C1.316 114.247 1.36267 114.2 1.456 114.2H2.156C2.22133 114.2 2.27733 114.233 2.324 114.298L7.098 122.068C7.10733 122.096 7.12133 122.11 7.14 122.11C7.15867 122.101 7.168 122.082 7.168 122.054L7.154 114.34ZM16.0129 119.268C16.0503 119.529 16.0689 119.856 16.0689 120.248V120.696C16.0689 120.789 16.0223 120.836 15.9289 120.836H11.4069C11.3696 120.836 11.3509 120.855 11.3509 120.892C11.3696 121.405 11.3976 121.737 11.4349 121.886C11.5376 122.306 11.7569 122.637 12.0929 122.88C12.4289 123.123 12.8583 123.244 13.3809 123.244C13.7729 123.244 14.1183 123.155 14.4169 122.978C14.7156 122.801 14.9489 122.549 15.1169 122.222C15.1729 122.138 15.2383 122.119 15.3129 122.166L15.8589 122.488C15.9336 122.535 15.9523 122.6 15.9149 122.684C15.6816 123.132 15.3316 123.487 14.8649 123.748C14.3983 124 13.8616 124.126 13.2549 124.126C12.5923 124.117 12.0369 123.958 11.5889 123.65C11.1409 123.342 10.8189 122.913 10.6229 122.362C10.4549 121.914 10.3709 121.27 10.3709 120.43C10.3709 120.038 10.3756 119.721 10.3849 119.478C10.4036 119.226 10.4409 119.002 10.4969 118.806C10.6556 118.199 10.9729 117.714 11.4489 117.35C11.9343 116.986 12.5176 116.804 13.1989 116.804C14.0483 116.804 14.7016 117.019 15.1589 117.448C15.6163 117.877 15.9009 118.484 16.0129 119.268ZM13.1989 117.672C12.7416 117.672 12.3589 117.793 12.0509 118.036C11.7523 118.269 11.5563 118.587 11.4629 118.988C11.4069 119.184 11.3696 119.501 11.3509 119.94C11.3509 119.977 11.3696 119.996 11.4069 119.996H15.0329C15.0703 119.996 15.0889 119.977 15.0889 119.94C15.0703 119.52 15.0423 119.221 15.0049 119.044C14.9023 118.624 14.6923 118.293 14.3749 118.05C14.0669 117.798 13.6749 117.672 13.1989 117.672ZM19.338 124C19.2634 124 19.212 123.963 19.184 123.888L17.196 117.07L17.182 117.028C17.182 116.953 17.2287 116.916 17.322 116.916H18.05C18.134 116.916 18.1854 116.958 18.204 117.042L19.688 122.558C19.6974 122.577 19.7067 122.586 19.716 122.586C19.7347 122.586 19.7487 122.577 19.758 122.558L21.27 117.042C21.2887 116.958 21.34 116.916 21.424 116.916H22.096C22.18 116.916 22.2314 116.953 22.25 117.028L23.776 122.544C23.7854 122.563 23.7994 122.572 23.818 122.572C23.8367 122.572 23.8507 122.563 23.86 122.544L25.386 117.042C25.4047 116.958 25.456 116.916 25.54 116.916L26.268 116.93C26.3147 116.93 26.3474 116.944 26.366 116.972C26.394 117 26.4034 117.037 26.394 117.084L24.378 123.888C24.35 123.963 24.2987 124 24.224 124H23.482C23.4074 124 23.356 123.963 23.328 123.888L21.802 118.652C21.7927 118.633 21.7787 118.624 21.76 118.624C21.7507 118.624 21.7414 118.633 21.732 118.652L20.248 123.888C20.22 123.963 20.1687 124 20.094 124H19.338ZM29.8444 124.07C29.3217 124.07 28.8551 123.986 28.4444 123.818C28.0431 123.65 27.7304 123.426 27.5064 123.146C27.2917 122.866 27.1844 122.553 27.1844 122.208V122.04C27.1844 121.947 27.2311 121.9 27.3244 121.9H27.9964C28.0897 121.9 28.1364 121.947 28.1364 122.04V122.152C28.1364 122.46 28.2951 122.731 28.6124 122.964C28.9391 123.188 29.3451 123.3 29.8304 123.3C30.3157 123.3 30.7077 123.193 31.0064 122.978C31.3051 122.754 31.4544 122.474 31.4544 122.138C31.4544 121.905 31.3751 121.713 31.2164 121.564C31.0671 121.415 30.8851 121.298 30.6704 121.214C30.4651 121.13 30.1431 121.023 29.7044 120.892C29.1817 120.743 28.7524 120.593 28.4164 120.444C28.0804 120.295 27.7957 120.089 27.5624 119.828C27.3384 119.557 27.2264 119.217 27.2264 118.806C27.2264 118.209 27.4597 117.733 27.9264 117.378C28.3931 117.023 29.0091 116.846 29.7744 116.846C30.2877 116.846 30.7404 116.93 31.1324 117.098C31.5337 117.266 31.8417 117.499 32.0564 117.798C32.2711 118.087 32.3784 118.414 32.3784 118.778V118.82C32.3784 118.913 32.3317 118.96 32.2384 118.96H31.5804C31.4871 118.96 31.4404 118.913 31.4404 118.82V118.778C31.4404 118.461 31.2864 118.195 30.9784 117.98C30.6797 117.765 30.2737 117.658 29.7604 117.658C29.2844 117.658 28.9017 117.756 28.6124 117.952C28.3231 118.139 28.1784 118.4 28.1784 118.736C28.1784 119.053 28.3184 119.296 28.5984 119.464C28.8784 119.632 29.3124 119.8 29.9004 119.968C30.4417 120.127 30.8804 120.276 31.2164 120.416C31.5524 120.556 31.8417 120.761 32.0844 121.032C32.3271 121.293 32.4484 121.639 32.4484 122.068C32.4484 122.675 32.2104 123.16 31.7344 123.524C31.2584 123.888 30.6284 124.07 29.8444 124.07Z" fill="#112B3C"/>
<path d="M5.04 149.186C5.86133 149.186 6.51933 149.438 7.014 149.942C7.518 150.446 7.77 151.109 7.77 151.93C7.77 152.742 7.51333 153.395 7 153.89C6.496 154.385 5.82867 154.632 4.998 154.632H2.268C2.23067 154.632 2.212 154.651 2.212 154.688V158.86C2.212 158.953 2.16533 159 2.072 159H1.358C1.26467 159 1.218 158.953 1.218 158.86V149.326C1.218 149.233 1.26467 149.186 1.358 149.186H5.04ZM4.928 153.806C5.47867 153.806 5.92667 153.638 6.272 153.302C6.61733 152.957 6.79 152.504 6.79 151.944C6.79 151.375 6.61733 150.917 6.272 150.572C5.92667 150.227 5.47867 150.054 4.928 150.054H2.268C2.23067 150.054 2.212 150.073 2.212 150.11V153.75C2.212 153.787 2.23067 153.806 2.268 153.806H4.928ZM9.54516 159C9.45182 159 9.40516 158.953 9.40516 158.86V149.34C9.40516 149.247 9.45182 149.2 9.54516 149.2H10.2592C10.3525 149.2 10.3992 149.247 10.3992 149.34V158.86C10.3992 158.953 10.3525 159 10.2592 159H9.54516ZM15.0817 151.804C15.9217 151.804 16.5704 152.019 17.0277 152.448C17.4851 152.877 17.7137 153.447 17.7137 154.156V158.86C17.7137 158.953 17.6671 159 17.5737 159H16.8597C16.7664 159 16.7197 158.953 16.7197 158.86V158.286C16.7197 158.267 16.7104 158.253 16.6917 158.244C16.6824 158.235 16.6684 158.239 16.6497 158.258C16.4164 158.538 16.1131 158.753 15.7397 158.902C15.3664 159.042 14.9511 159.112 14.4937 159.112C13.8311 159.112 13.2757 158.944 12.8277 158.608C12.3797 158.272 12.1557 157.759 12.1557 157.068C12.1557 156.368 12.4077 155.817 12.9117 155.416C13.4251 155.005 14.1344 154.8 15.0397 154.8H16.6637C16.7011 154.8 16.7197 154.781 16.7197 154.744V154.212C16.7197 153.736 16.5844 153.363 16.3137 153.092C16.0524 152.812 15.6417 152.672 15.0817 152.672C14.6337 152.672 14.2697 152.761 13.9897 152.938C13.7097 153.106 13.5371 153.344 13.4717 153.652C13.4437 153.745 13.3877 153.787 13.3037 153.778L12.5477 153.68C12.4451 153.661 12.4031 153.624 12.4217 153.568C12.4964 153.045 12.7764 152.621 13.2617 152.294C13.7471 151.967 14.3537 151.804 15.0817 151.804ZM14.6897 158.258C15.2404 158.258 15.7164 158.123 16.1177 157.852C16.5191 157.572 16.7197 157.199 16.7197 156.732V155.64C16.7197 155.603 16.7011 155.584 16.6637 155.584H15.1937C14.5777 155.584 14.0831 155.71 13.7097 155.962C13.3364 156.214 13.1497 156.564 13.1497 157.012C13.1497 157.423 13.2897 157.735 13.5697 157.95C13.8591 158.155 14.2324 158.258 14.6897 158.258ZM22.7221 151.818C23.4688 151.818 24.0614 152.037 24.5001 152.476C24.9481 152.915 25.1721 153.503 25.1721 154.24V158.86C25.1721 158.953 25.1254 159 25.0321 159H24.3181C24.2248 159 24.1781 158.953 24.1781 158.86V154.436C24.1781 153.923 24.0194 153.503 23.7021 153.176C23.3941 152.849 22.9928 152.686 22.4981 152.686C21.9848 152.686 21.5694 152.845 21.2521 153.162C20.9348 153.479 20.7761 153.895 20.7761 154.408V158.86C20.7761 158.953 20.7294 159 20.6361 159H19.9221C19.8288 159 19.7821 158.953 19.7821 158.86V152.056C19.7821 151.963 19.8288 151.916 19.9221 151.916H20.6361C20.7294 151.916 20.7761 151.963 20.7761 152.056V152.658C20.7761 152.677 20.7808 152.691 20.7901 152.7C20.8088 152.709 20.8228 152.705 20.8321 152.686C21.2428 152.107 21.8728 151.818 22.7221 151.818ZM29.653 159.07C29.1303 159.07 28.6637 158.986 28.253 158.818C27.8517 158.65 27.539 158.426 27.315 158.146C27.1003 157.866 26.993 157.553 26.993 157.208V157.04C26.993 156.947 27.0397 156.9 27.133 156.9H27.805C27.8983 156.9 27.945 156.947 27.945 157.04V157.152C27.945 157.46 28.1037 157.731 28.421 157.964C28.7477 158.188 29.1537 158.3 29.639 158.3C30.1243 158.3 30.5163 158.193 30.815 157.978C31.1137 157.754 31.263 157.474 31.263 157.138C31.263 156.905 31.1837 156.713 31.025 156.564C30.8757 156.415 30.6937 156.298 30.479 156.214C30.2737 156.13 29.9517 156.023 29.513 155.892C28.9903 155.743 28.561 155.593 28.225 155.444C27.889 155.295 27.6043 155.089 27.371 154.828C27.147 154.557 27.035 154.217 27.035 153.806C27.035 153.209 27.2683 152.733 27.735 152.378C28.2017 152.023 28.8177 151.846 29.583 151.846C30.0963 151.846 30.549 151.93 30.941 152.098C31.3423 152.266 31.6503 152.499 31.865 152.798C32.0797 153.087 32.187 153.414 32.187 153.778V153.82C32.187 153.913 32.1403 153.96 32.047 153.96H31.389C31.2957 153.96 31.249 153.913 31.249 153.82V153.778C31.249 153.461 31.095 153.195 30.787 152.98C30.4883 152.765 30.0823 152.658 29.569 152.658C29.093 152.658 28.7103 152.756 28.421 152.952C28.1317 153.139 27.987 153.4 27.987 153.736C27.987 154.053 28.127 154.296 28.407 154.464C28.687 154.632 29.121 154.8 29.709 154.968C30.2503 155.127 30.689 155.276 31.025 155.416C31.361 155.556 31.6503 155.761 31.893 156.032C32.1357 156.293 32.257 156.639 32.257 157.068C32.257 157.675 32.019 158.16 31.543 158.524C31.067 158.888 30.437 159.07 29.653 159.07Z" fill="#112B3C"/>
</svg>
