<svg width="92" height="162" viewBox="0 0 92 162" fill="none" xmlns="http://www.w3.org/2000/svg">
<path d="M5.90979 18.144C4.97379 18.144 4.15179 17.964 3.44379 17.604C2.73579 17.232 2.18979 16.716 1.80579 16.056C1.42179 15.396 1.22979 14.634 1.22979 13.77V9.612C1.22979 8.748 1.42179 7.986 1.80579 7.326C2.18979 6.666 2.73579 6.156 3.44379 5.796C4.15179 5.436 4.97379 5.256 5.90979 5.256C6.83379 5.256 7.64379 5.43 8.33979 5.778C9.04779 6.114 9.59379 6.6 9.97779 7.236C10.3738 7.86 10.5718 8.586 10.5718 9.414C10.5718 9.522 10.4998 9.588 10.3558 9.612L8.24979 9.738H8.21379C8.09379 9.738 8.03379 9.672 8.03379 9.54C8.03379 8.904 7.83579 8.394 7.43979 8.01C7.05579 7.626 6.54579 7.434 5.90979 7.434C5.26179 7.434 4.73979 7.626 4.34379 8.01C3.95979 8.394 3.76779 8.904 3.76779 9.54V13.878C3.76779 14.502 3.95979 15.006 4.34379 15.39C4.73979 15.774 5.26179 15.966 5.90979 15.966C6.54579 15.966 7.05579 15.774 7.43979 15.39C7.83579 15.006 8.03379 14.502 8.03379 13.878C8.03379 13.746 8.10579 13.68 8.24979 13.68L10.3558 13.77C10.4158 13.77 10.4638 13.788 10.4998 13.824C10.5478 13.86 10.5718 13.902 10.5718 13.95C10.5718 14.778 10.3738 15.51 9.97779 16.146C9.59379 16.782 9.04779 17.274 8.33979 17.622C7.64379 17.97 6.83379 18.144 5.90979 18.144ZM16.3394 18.144C15.3314 18.144 14.4674 17.88 13.7474 17.352C13.0274 16.824 12.5354 16.104 12.2714 15.192C12.1034 14.628 12.0194 14.016 12.0194 13.356C12.0194 12.648 12.1034 12.012 12.2714 11.448C12.5474 10.56 13.0454 9.864 13.7654 9.36C14.4854 8.856 15.3494 8.604 16.3574 8.604C17.3414 8.604 18.1814 8.856 18.8774 9.36C19.5734 9.852 20.0654 10.542 20.3534 11.43C20.5454 12.03 20.6414 12.66 20.6414 13.32C20.6414 13.968 20.5574 14.574 20.3894 15.138C20.1254 16.074 19.6334 16.812 18.9134 17.352C18.2054 17.88 17.3474 18.144 16.3394 18.144ZM16.3394 15.966C16.7354 15.966 17.0714 15.846 17.3474 15.606C17.6234 15.366 17.8214 15.036 17.9414 14.616C18.0374 14.232 18.0854 13.812 18.0854 13.356C18.0854 12.852 18.0374 12.426 17.9414 12.078C17.8094 11.67 17.6054 11.352 17.3294 11.124C17.0534 10.896 16.7174 10.782 16.3214 10.782C15.9134 10.782 15.5714 10.896 15.2954 11.124C15.0314 11.352 14.8394 11.67 14.7194 12.078C14.6234 12.366 14.5754 12.792 14.5754 13.356C14.5754 13.896 14.6174 14.316 14.7014 14.616C14.8214 15.036 15.0194 15.366 15.2954 15.606C15.5834 15.846 15.9314 15.966 16.3394 15.966ZM32.5329 8.604C33.4689 8.604 34.2009 8.886 34.7289 9.45C35.2569 10.014 35.5209 10.806 35.5209 11.826V17.784C35.5209 17.844 35.4969 17.898 35.4489 17.946C35.4129 17.982 35.3649 18 35.3049 18H33.1989C33.1389 18 33.0849 17.982 33.0369 17.946C33.0009 17.898 32.9829 17.844 32.9829 17.784V12.384C32.9829 11.892 32.8569 11.502 32.6049 11.214C32.3529 10.926 32.0169 10.782 31.5969 10.782C31.1769 10.782 30.8349 10.926 30.5709 11.214C30.3069 11.502 30.1749 11.886 30.1749 12.366V17.784C30.1749 17.844 30.1509 17.898 30.1029 17.946C30.0669 17.982 30.0189 18 29.9589 18H27.8709C27.8109 18 27.7569 17.982 27.7089 17.946C27.6729 17.898 27.6549 17.844 27.6549 17.784V12.384C27.6549 11.904 27.5229 11.52 27.2589 11.232C26.9949 10.932 26.6529 10.782 26.2329 10.782C25.8489 10.782 25.5249 10.896 25.2609 11.124C25.0089 11.352 24.8589 11.67 24.8109 12.078V17.784C24.8109 17.844 24.7869 17.898 24.7389 17.946C24.7029 17.982 24.6549 18 24.5949 18H22.4889C22.4289 18 22.3749 17.982 22.3269 17.946C22.2909 17.898 22.2729 17.844 22.2729 17.784V8.964C22.2729 8.904 22.2909 8.856 22.3269 8.82C22.3749 8.772 22.4289 8.748 22.4889 8.748H24.5949C24.6549 8.748 24.7029 8.772 24.7389 8.82C24.7869 8.856 24.8109 8.904 24.8109 8.964V9.666C24.8109 9.702 24.8229 9.726 24.8469 9.738C24.8709 9.75 24.8949 9.738 24.9189 9.702C25.4109 8.97 26.1729 8.604 27.2049 8.604C27.8049 8.604 28.3269 8.73 28.7709 8.982C29.2269 9.234 29.5749 9.594 29.8149 10.062C29.8509 10.134 29.8929 10.134 29.9409 10.062C30.2049 9.57 30.5589 9.204 31.0029 8.964C31.4589 8.724 31.9689 8.604 32.5329 8.604ZM45.5642 11.232C45.7802 11.844 45.8882 12.564 45.8882 13.392C45.8882 14.22 45.7742 14.97 45.5462 15.642C45.2702 16.41 44.8322 17.022 44.2322 17.478C43.6442 17.922 42.9122 18.144 42.0362 18.144C41.1722 18.144 40.5002 17.844 40.0202 17.244C39.9962 17.208 39.9722 17.196 39.9482 17.208C39.9242 17.22 39.9122 17.244 39.9122 17.28V21.132C39.9122 21.192 39.8882 21.24 39.8402 21.276C39.8042 21.324 39.7562 21.348 39.6962 21.348H37.5902C37.5302 21.348 37.4762 21.324 37.4282 21.276C37.3922 21.24 37.3742 21.192 37.3742 21.132V8.964C37.3742 8.904 37.3922 8.856 37.4282 8.82C37.4762 8.772 37.5302 8.748 37.5902 8.748H39.6962C39.7562 8.748 39.8042 8.772 39.8402 8.82C39.8882 8.856 39.9122 8.904 39.9122 8.964V9.558C39.9122 9.594 39.9242 9.618 39.9482 9.63C39.9722 9.63 39.9962 9.618 40.0202 9.594C40.5242 8.934 41.2202 8.604 42.1082 8.604C42.9362 8.604 43.6502 8.838 44.2502 9.306C44.8622 9.762 45.3002 10.404 45.5642 11.232ZM42.8102 15.264C43.1102 14.796 43.2602 14.16 43.2602 13.356C43.2602 12.6 43.1342 12 42.8822 11.556C42.6062 11.04 42.1622 10.782 41.5502 10.782C40.9982 10.782 40.5842 11.04 40.3082 11.556C40.0562 11.988 39.9302 12.594 39.9302 13.374C39.9302 14.178 40.0622 14.802 40.3262 15.246C40.6022 15.726 41.0102 15.966 41.5502 15.966C42.0902 15.966 42.5102 15.732 42.8102 15.264ZM51.2227 8.604C52.0027 8.604 52.6987 8.742 53.3107 9.018C53.9227 9.282 54.3967 9.648 54.7327 10.116C55.0807 10.584 55.2547 11.106 55.2547 11.682V17.784C55.2547 17.844 55.2307 17.898 55.1827 17.946C55.1467 17.982 55.0987 18 55.0387 18H52.9327C52.8727 18 52.8187 17.982 52.7707 17.946C52.7347 17.898 52.7167 17.844 52.7167 17.784V17.19C52.7167 17.154 52.7047 17.13 52.6807 17.118C52.6567 17.106 52.6327 17.118 52.6087 17.154C52.1047 17.814 51.2947 18.144 50.1787 18.144C49.2427 18.144 48.4867 17.916 47.9107 17.46C47.3347 17.004 47.0467 16.332 47.0467 15.444C47.0467 14.52 47.3707 13.806 48.0187 13.302C48.6667 12.786 49.5907 12.528 50.7907 12.528H52.6267C52.6867 12.528 52.7167 12.498 52.7167 12.438V12.042C52.7167 11.646 52.5967 11.34 52.3567 11.124C52.1167 10.896 51.7567 10.782 51.2767 10.782C50.9047 10.782 50.5927 10.848 50.3407 10.98C50.1007 11.112 49.9447 11.298 49.8727 11.538C49.8367 11.67 49.7587 11.73 49.6387 11.718L47.4607 11.43C47.3167 11.406 47.2507 11.352 47.2627 11.268C47.3107 10.764 47.5087 10.308 47.8567 9.9C48.2167 9.492 48.6847 9.174 49.2607 8.946C49.8487 8.718 50.5027 8.604 51.2227 8.604ZM50.8627 16.254C51.3787 16.254 51.8167 16.116 52.1767 15.84C52.5367 15.564 52.7167 15.21 52.7167 14.778V14.13C52.7167 14.07 52.6867 14.04 52.6267 14.04H51.3307C50.7907 14.04 50.3647 14.142 50.0527 14.346C49.7527 14.55 49.6027 14.838 49.6027 15.21C49.6027 15.534 49.7167 15.792 49.9447 15.984C50.1727 16.164 50.4787 16.254 50.8627 16.254ZM61.8664 8.604C62.8264 8.604 63.6004 8.898 64.1884 9.486C64.7764 10.074 65.0704 10.872 65.0704 11.88V17.784C65.0704 17.844 65.0464 17.898 64.9984 17.946C64.9624 17.982 64.9144 18 64.8544 18H62.7484C62.6884 18 62.6344 17.982 62.5864 17.946C62.5504 17.898 62.5324 17.844 62.5324 17.784V12.402C62.5324 11.922 62.3944 11.532 62.1184 11.232C61.8544 10.932 61.5004 10.782 61.0564 10.782C60.6124 10.782 60.2524 10.932 59.9764 11.232C59.7124 11.532 59.5804 11.922 59.5804 12.402V17.784C59.5804 17.844 59.5564 17.898 59.5084 17.946C59.4724 17.982 59.4244 18 59.3644 18H57.2584C57.1984 18 57.1444 17.982 57.0964 17.946C57.0604 17.898 57.0424 17.844 57.0424 17.784V8.964C57.0424 8.904 57.0604 8.856 57.0964 8.82C57.1444 8.772 57.1984 8.748 57.2584 8.748H59.3644C59.4244 8.748 59.4724 8.772 59.5084 8.82C59.5564 8.856 59.5804 8.904 59.5804 8.964V9.594C59.5804 9.63 59.5924 9.654 59.6164 9.666C59.6404 9.678 59.6584 9.672 59.6704 9.648C60.1624 8.952 60.8944 8.604 61.8664 8.604ZM66.4279 21.582C66.3919 21.582 66.3619 21.558 66.3379 21.51C66.3139 21.474 66.3019 21.426 66.3019 21.366V19.71C66.3019 19.65 66.3199 19.596 66.3559 19.548C66.4039 19.512 66.4579 19.494 66.5179 19.494C67.0219 19.482 67.4179 19.44 67.7059 19.368C68.0059 19.296 68.2399 19.158 68.4079 18.954C68.5879 18.75 68.7259 18.45 68.8219 18.054C68.8339 18.03 68.8339 17.994 68.8219 17.946L65.8699 8.982C65.8579 8.958 65.8519 8.928 65.8519 8.892C65.8519 8.784 65.9179 8.73 66.0499 8.73H68.2999C68.4319 8.73 68.5159 8.79 68.5519 8.91L70.0639 14.742C70.0759 14.778 70.0939 14.796 70.1179 14.796C70.1419 14.796 70.1599 14.778 70.1719 14.742L71.6839 8.91C71.7199 8.79 71.8039 8.73 71.9359 8.73H74.1319C74.2039 8.73 74.2519 8.754 74.2759 8.802C74.3119 8.838 74.3179 8.898 74.2939 8.982L71.1799 18.342C70.8799 19.218 70.5739 19.872 70.2619 20.304C69.9499 20.748 69.5119 21.072 68.9479 21.276C68.3839 21.48 67.5859 21.582 66.5539 21.582H66.4279Z" fill="#112B3C"/>
<path d="M3.234 54C3.15933 54 3.108 53.9627 3.08 53.888L0.392 44.354L0.378 44.312C0.378 44.2373 0.424667 44.2 0.518 44.2H1.26C1.344 44.2 1.39533 44.2373 1.414 44.312L3.542 51.984C3.55133 52.0027 3.56067 52.012 3.57 52.012C3.58867 52.012 3.60267 52.0027 3.612 51.984L5.586 44.326C5.60467 44.242 5.656 44.2 5.74 44.2H6.496C6.58 44.2 6.63133 44.242 6.65 44.326L8.708 51.984C8.71733 52.0027 8.72667 52.012 8.736 52.012C8.75467 52.012 8.76867 52.0027 8.778 51.984L10.906 44.312C10.9247 44.2373 10.976 44.2 11.06 44.2H11.774C11.8207 44.2 11.8533 44.214 11.872 44.242C11.9 44.27 11.9093 44.3073 11.9 44.354L9.254 53.888C9.23533 53.9627 9.184 54 9.1 54H8.358C8.274 54 8.22267 53.958 8.204 53.874L6.16 46.034C6.15067 46.0153 6.13667 46.006 6.118 46.006C6.10867 46.006 6.09933 46.0153 6.09 46.034L4.088 53.874C4.07867 53.958 4.02733 54 3.934 54H3.234ZM16.351 46.818C17.0977 46.818 17.6903 47.0373 18.129 47.476C18.577 47.9147 18.801 48.5027 18.801 49.24V53.86C18.801 53.9533 18.7543 54 18.661 54H17.947C17.8537 54 17.807 53.9533 17.807 53.86V49.436C17.807 48.9227 17.6483 48.5027 17.331 48.176C17.023 47.8493 16.6217 47.686 16.127 47.686C15.6137 47.686 15.1983 47.8447 14.881 48.162C14.5637 48.4793 14.405 48.8947 14.405 49.408V53.86C14.405 53.9533 14.3583 54 14.265 54H13.551C13.4577 54 13.411 53.9533 13.411 53.86V44.34C13.411 44.2467 13.4577 44.2 13.551 44.2H14.265C14.3583 44.2 14.405 44.2467 14.405 44.34V47.658C14.405 47.6767 14.4097 47.6907 14.419 47.7C14.4377 47.7093 14.4517 47.7047 14.461 47.686C14.8717 47.1073 15.5017 46.818 16.351 46.818ZM20.5128 56.8C20.4475 56.8 20.4148 56.7533 20.4148 56.66V56.1C20.4148 56.0067 20.4615 55.96 20.5548 55.96H20.6108C20.9748 55.9507 21.2548 55.8947 21.4508 55.792C21.6562 55.6987 21.8288 55.5167 21.9688 55.246C22.1182 54.9847 22.2768 54.5833 22.4448 54.042C22.4635 54.0047 22.4635 53.9767 22.4448 53.958L20.0788 47.07L20.0648 47.014C20.0648 46.9487 20.1068 46.916 20.1908 46.916H20.9328C21.0168 46.916 21.0728 46.9533 21.1008 47.028L22.9208 52.684C22.9302 52.7027 22.9442 52.712 22.9628 52.712C22.9815 52.712 22.9955 52.7027 23.0048 52.684L24.7968 47.028C24.8248 46.9533 24.8808 46.916 24.9648 46.916H25.6928C25.7955 46.916 25.8328 46.9673 25.8048 47.07L23.2148 54.616C22.9908 55.2413 22.7808 55.7033 22.5848 56.002C22.3888 56.3007 22.1415 56.506 21.8428 56.618C21.5535 56.7393 21.1428 56.8 20.6108 56.8H20.5128ZM36.1947 44.2C36.288 44.2 36.3347 44.2467 36.3347 44.34V44.942C36.3347 45.0353 36.288 45.082 36.1947 45.082H33.4507C33.4134 45.082 33.3947 45.1007 33.3947 45.138V53.86C33.3947 53.9533 33.348 54 33.2547 54H32.5407C32.4474 54 32.4007 53.9533 32.4007 53.86V45.138C32.4007 45.1007 32.382 45.082 32.3447 45.082H29.7127C29.6194 45.082 29.5727 45.0353 29.5727 44.942V44.34C29.5727 44.2467 29.6194 44.2 29.7127 44.2H36.1947ZM40.1791 46.846C40.4871 46.846 40.7531 46.9067 40.9771 47.028C41.0518 47.0653 41.0798 47.126 41.0611 47.21L40.9071 47.896C40.8791 47.9893 40.8185 48.0173 40.7251 47.98C40.5665 47.9147 40.3845 47.882 40.1791 47.882L39.9971 47.896C39.5118 47.9147 39.1105 48.0967 38.7931 48.442C38.4758 48.778 38.3171 49.2073 38.3171 49.73V53.86C38.3171 53.9533 38.2705 54 38.1771 54H37.4631C37.3698 54 37.3231 53.9533 37.3231 53.86V47.056C37.3231 46.9627 37.3698 46.916 37.4631 46.916H38.1771C38.2705 46.916 38.3171 46.9627 38.3171 47.056V47.91C38.3171 47.938 38.3218 47.9567 38.3311 47.966C38.3498 47.966 38.3638 47.9567 38.3731 47.938C38.5691 47.5927 38.8165 47.3267 39.1151 47.14C39.4231 46.944 39.7778 46.846 40.1791 46.846ZM43.0947 45.628C42.8707 45.628 42.6841 45.5533 42.5347 45.404C42.3854 45.2547 42.3107 45.068 42.3107 44.844C42.3107 44.6107 42.3854 44.424 42.5347 44.284C42.6841 44.1347 42.8707 44.06 43.0947 44.06C43.3187 44.06 43.5054 44.1347 43.6547 44.284C43.8041 44.424 43.8787 44.6107 43.8787 44.844C43.8787 45.068 43.8041 45.2547 43.6547 45.404C43.5054 45.5533 43.3187 45.628 43.0947 45.628ZM42.7027 53.986C42.6094 53.986 42.5627 53.9393 42.5627 53.846V47.042C42.5627 46.9487 42.6094 46.902 42.7027 46.902H43.4167C43.5101 46.902 43.5567 46.9487 43.5567 47.042V53.846C43.5567 53.9393 43.5101 53.986 43.4167 53.986H42.7027ZM51.4931 48.68C51.6331 49.128 51.7031 49.7207 51.7031 50.458C51.7031 51.2047 51.6424 51.7833 51.5211 52.194C51.3531 52.7913 51.0451 53.2627 50.5971 53.608C50.1584 53.944 49.6031 54.112 48.9311 54.112C48.5671 54.112 48.2311 54.042 47.9231 53.902C47.6151 53.7527 47.3584 53.5427 47.1531 53.272C47.1344 53.2533 47.1158 53.2487 47.0971 53.258C47.0878 53.258 47.0831 53.2673 47.0831 53.286V56.576C47.0831 56.6693 47.0364 56.716 46.9431 56.716H46.2291C46.1358 56.716 46.0891 56.6693 46.0891 56.576V47.056C46.0891 46.9627 46.1358 46.916 46.2291 46.916H46.9431C47.0364 46.916 47.0831 46.9627 47.0831 47.056V47.644C47.0831 47.6627 47.0878 47.6767 47.0971 47.686C47.1158 47.686 47.1344 47.6767 47.1531 47.658C47.3584 47.3873 47.6104 47.1773 47.9091 47.028C48.2171 46.8787 48.5578 46.804 48.9311 46.804C49.5844 46.804 50.1304 46.972 50.5691 47.308C51.0171 47.644 51.3251 48.1013 51.4931 48.68ZM50.3871 52.222C50.4898 52.0167 50.5644 51.788 50.6111 51.536C50.6671 51.2747 50.6951 50.9153 50.6951 50.458C50.6951 50.0193 50.6764 49.6787 50.6391 49.436C50.6018 49.184 50.5364 48.96 50.4431 48.764C50.3311 48.428 50.1304 48.162 49.8411 47.966C49.5611 47.77 49.2251 47.672 48.8331 47.672C48.4598 47.672 48.1471 47.77 47.8951 47.966C47.6431 48.162 47.4564 48.4233 47.3351 48.75C47.2511 48.9367 47.1904 49.156 47.1531 49.408C47.1158 49.66 47.0971 50.01 47.0971 50.458C47.0971 50.906 47.1158 51.2607 47.1531 51.522C47.1904 51.774 47.2558 51.998 47.3491 52.194C47.4611 52.5113 47.6431 52.768 47.8951 52.964C48.1564 53.1507 48.4644 53.244 48.8191 53.244C49.1924 53.244 49.5144 53.1507 49.7851 52.964C50.0651 52.7773 50.2658 52.53 50.3871 52.222ZM53.2707 56.8C53.2053 56.8 53.1727 56.7533 53.1727 56.66V56.1C53.1727 56.0067 53.2193 55.96 53.3127 55.96H53.3687C53.7327 55.9507 54.0127 55.8947 54.2087 55.792C54.414 55.6987 54.5867 55.5167 54.7267 55.246C54.876 54.9847 55.0347 54.5833 55.2027 54.042C55.2213 54.0047 55.2213 53.9767 55.2027 53.958L52.8367 47.07L52.8227 47.014C52.8227 46.9487 52.8647 46.916 52.9487 46.916H53.6907C53.7747 46.916 53.8307 46.9533 53.8587 47.028L55.6787 52.684C55.688 52.7027 55.702 52.712 55.7207 52.712C55.7393 52.712 55.7533 52.7027 55.7627 52.684L57.5547 47.028C57.5827 46.9533 57.6387 46.916 57.7227 46.916H58.4507C58.5533 46.916 58.5907 46.9673 58.5627 47.07L55.9727 54.616C55.7487 55.2413 55.5387 55.7033 55.3427 56.002C55.1467 56.3007 54.8993 56.506 54.6007 56.618C54.3113 56.7393 53.9007 56.8 53.3687 56.8H53.2707Z" fill="#112B3C"/>
<path d="M5.04 79.186C5.86133 79.186 6.51933 79.438 7.014 79.942C7.518 80.446 7.77 81.1087 7.77 81.93C7.77 82.742 7.51333 83.3953 7 83.89C6.496 84.3847 5.82867 84.632 4.998 84.632H2.268C2.23067 84.632 2.212 84.6507 2.212 84.688V88.86C2.212 88.9533 2.16533 89 2.072 89H1.358C1.26467 89 1.218 88.9533 1.218 88.86V79.326C1.218 79.2327 1.26467 79.186 1.358 79.186H5.04ZM4.928 83.806C5.47867 83.806 5.92667 83.638 6.272 83.302C6.61733 82.9567 6.79 82.504 6.79 81.944C6.79 81.3747 6.61733 80.9173 6.272 80.572C5.92667 80.2267 5.47867 80.054 4.928 80.054H2.268C2.23067 80.054 2.212 80.0727 2.212 80.11V83.75C2.212 83.7873 2.23067 83.806 2.268 83.806H4.928ZM11.8141 81.804C12.6541 81.804 13.3028 82.0187 13.7601 82.448C14.2175 82.8773 14.4461 83.4467 14.4461 84.156V88.86C14.4461 88.9533 14.3995 89 14.3061 89H13.5921C13.4988 89 13.4521 88.9533 13.4521 88.86V88.286C13.4521 88.2673 13.4428 88.2533 13.4241 88.244C13.4148 88.2347 13.4008 88.2393 13.3821 88.258C13.1488 88.538 12.8455 88.7527 12.4721 88.902C12.0988 89.042 11.6835 89.112 11.2261 89.112C10.5635 89.112 10.0081 88.944 9.56014 88.608C9.11214 88.272 8.88814 87.7587 8.88814 87.068C8.88814 86.368 9.14014 85.8173 9.64414 85.416C10.1575 85.0053 10.8668 84.8 11.7721 84.8H13.3961C13.4335 84.8 13.4521 84.7813 13.4521 84.744V84.212C13.4521 83.736 13.3168 83.3627 13.0461 83.092C12.7848 82.812 12.3741 82.672 11.8141 82.672C11.3661 82.672 11.0021 82.7607 10.7221 82.938C10.4421 83.106 10.2695 83.344 10.2041 83.652C10.1761 83.7453 10.1201 83.7873 10.0361 83.778L9.28014 83.68C9.17747 83.6613 9.13547 83.624 9.15414 83.568C9.22881 83.0453 9.50881 82.6207 9.99414 82.294C10.4795 81.9673 11.0861 81.804 11.8141 81.804ZM11.4221 88.258C11.9728 88.258 12.4488 88.1227 12.8501 87.852C13.2515 87.572 13.4521 87.1987 13.4521 86.732V85.64C13.4521 85.6027 13.4335 85.584 13.3961 85.584H11.9261C11.3101 85.584 10.8155 85.71 10.4421 85.962C10.0688 86.214 9.88214 86.564 9.88214 87.012C9.88214 87.4227 10.0221 87.7353 10.3021 87.95C10.5915 88.1553 10.9648 88.258 11.4221 88.258ZM19.3705 81.846C19.6785 81.846 19.9445 81.9067 20.1685 82.028C20.2432 82.0653 20.2712 82.126 20.2525 82.21L20.0985 82.896C20.0705 82.9893 20.0099 83.0173 19.9165 82.98C19.7579 82.9147 19.5759 82.882 19.3705 82.882L19.1885 82.896C18.7032 82.9147 18.3019 83.0967 17.9845 83.442C17.6672 83.778 17.5085 84.2073 17.5085 84.73V88.86C17.5085 88.9533 17.4619 89 17.3685 89H16.6545C16.5612 89 16.5145 88.9533 16.5145 88.86V82.056C16.5145 81.9627 16.5612 81.916 16.6545 81.916H17.3685C17.4619 81.916 17.5085 81.9627 17.5085 82.056V82.91C17.5085 82.938 17.5132 82.9567 17.5225 82.966C17.5412 82.966 17.5552 82.9567 17.5645 82.938C17.7605 82.5927 18.0079 82.3267 18.3065 82.14C18.6145 81.944 18.9692 81.846 19.3705 81.846ZM24.9835 82.602C24.9835 82.6953 24.9369 82.742 24.8435 82.742H23.2615C23.2242 82.742 23.2055 82.7607 23.2055 82.798V86.928C23.2055 87.376 23.3035 87.6933 23.4995 87.88C23.7049 88.0573 24.0222 88.146 24.4515 88.146H24.8015C24.8949 88.146 24.9415 88.1927 24.9415 88.286V88.86C24.9415 88.9533 24.8949 89 24.8015 89C24.6895 89.0093 24.5169 89.014 24.2835 89.014C23.6115 89.014 23.1029 88.888 22.7575 88.636C22.4122 88.384 22.2395 87.9173 22.2395 87.236V82.798C22.2395 82.7607 22.2209 82.742 22.1835 82.742H21.3295C21.2362 82.742 21.1895 82.6953 21.1895 82.602V82.056C21.1895 81.9627 21.2362 81.916 21.3295 81.916H22.1835C22.2209 81.916 22.2395 81.8973 22.2395 81.86V80.236C22.2395 80.1427 22.2862 80.096 22.3795 80.096H23.0655C23.1589 80.096 23.2055 80.1427 23.2055 80.236V81.86C23.2055 81.8973 23.2242 81.916 23.2615 81.916H24.8435C24.9369 81.916 24.9835 81.9627 24.9835 82.056V82.602ZM29.8452 81.818C30.5918 81.818 31.1845 82.0373 31.6232 82.476C32.0712 82.9147 32.2952 83.5027 32.2952 84.24V88.86C32.2952 88.9533 32.2485 89 32.1552 89H31.4412C31.3478 89 31.3012 88.9533 31.3012 88.86V84.436C31.3012 83.9227 31.1425 83.5027 30.8252 83.176C30.5172 82.8493 30.1158 82.686 29.6212 82.686C29.1078 82.686 28.6925 82.8447 28.3752 83.162C28.0578 83.4793 27.8992 83.8947 27.8992 84.408V88.86C27.8992 88.9533 27.8525 89 27.7592 89H27.0452C26.9518 89 26.9052 88.9533 26.9052 88.86V82.056C26.9052 81.9627 26.9518 81.916 27.0452 81.916H27.7592C27.8525 81.916 27.8992 81.9627 27.8992 82.056V82.658C27.8992 82.6767 27.9038 82.6907 27.9132 82.7C27.9318 82.7093 27.9458 82.7047 27.9552 82.686C28.3658 82.1073 28.9958 81.818 29.8452 81.818ZM39.7883 84.268C39.8257 84.5293 39.8443 84.856 39.8443 85.248V85.696C39.8443 85.7893 39.7977 85.836 39.7043 85.836H35.1823C35.145 85.836 35.1263 85.8547 35.1263 85.892C35.145 86.4053 35.173 86.7367 35.2103 86.886C35.313 87.306 35.5323 87.6373 35.8683 87.88C36.2043 88.1227 36.6337 88.244 37.1563 88.244C37.5483 88.244 37.8937 88.1553 38.1923 87.978C38.491 87.8007 38.7243 87.5487 38.8923 87.222C38.9483 87.138 39.0137 87.1193 39.0883 87.166L39.6343 87.488C39.709 87.5347 39.7277 87.6 39.6903 87.684C39.457 88.132 39.107 88.4867 38.6403 88.748C38.1737 89 37.637 89.126 37.0303 89.126C36.3677 89.1167 35.8123 88.958 35.3643 88.65C34.9163 88.342 34.5943 87.9127 34.3983 87.362C34.2303 86.914 34.1463 86.27 34.1463 85.43C34.1463 85.038 34.151 84.7207 34.1603 84.478C34.179 84.226 34.2163 84.002 34.2723 83.806C34.431 83.1993 34.7483 82.714 35.2243 82.35C35.7097 81.986 36.293 81.804 36.9743 81.804C37.8237 81.804 38.477 82.0187 38.9343 82.448C39.3917 82.8773 39.6763 83.484 39.7883 84.268ZM36.9743 82.672C36.517 82.672 36.1343 82.7933 35.8263 83.036C35.5277 83.2693 35.3317 83.5867 35.2383 83.988C35.1823 84.184 35.145 84.5013 35.1263 84.94C35.1263 84.9773 35.145 84.996 35.1823 84.996H38.8083C38.8457 84.996 38.8643 84.9773 38.8643 84.94C38.8457 84.52 38.8177 84.2213 38.7803 84.044C38.6777 83.624 38.4677 83.2927 38.1503 83.05C37.8423 82.798 37.4503 82.672 36.9743 82.672ZM44.6772 81.846C44.9852 81.846 45.2512 81.9067 45.4752 82.028C45.5498 82.0653 45.5778 82.126 45.5592 82.21L45.4052 82.896C45.3772 82.9893 45.3165 83.0173 45.2232 82.98C45.0645 82.9147 44.8825 82.882 44.6772 82.882L44.4952 82.896C44.0098 82.9147 43.6085 83.0967 43.2912 83.442C42.9738 83.778 42.8152 84.2073 42.8152 84.73V88.86C42.8152 88.9533 42.7685 89 42.6752 89H41.9612C41.8678 89 41.8212 88.9533 41.8212 88.86V82.056C41.8212 81.9627 41.8678 81.916 41.9612 81.916H42.6752C42.7685 81.916 42.8152 81.9627 42.8152 82.056V82.91C42.8152 82.938 42.8198 82.9567 42.8292 82.966C42.8478 82.966 42.8618 82.9567 42.8712 82.938C43.0672 82.5927 43.3145 82.3267 43.6132 82.14C43.9212 81.944 44.2758 81.846 44.6772 81.846ZM51.1935 89C51.1188 89 51.0675 88.9627 51.0395 88.888L49.0515 82.07L49.0375 82.028C49.0375 81.9533 49.0842 81.916 49.1775 81.916H49.9055C49.9895 81.916 50.0408 81.958 50.0595 82.042L51.5435 87.558C51.5528 87.5767 51.5622 87.586 51.5715 87.586C51.5902 87.586 51.6042 87.5767 51.6135 87.558L53.1255 82.042C53.1442 81.958 53.1955 81.916 53.2795 81.916H53.9515C54.0355 81.916 54.0868 81.9533 54.1055 82.028L55.6315 87.544C55.6408 87.5627 55.6548 87.572 55.6735 87.572C55.6922 87.572 55.7062 87.5627 55.7155 87.544L57.2415 82.042C57.2602 81.958 57.3115 81.916 57.3955 81.916L58.1235 81.93C58.1702 81.93 58.2028 81.944 58.2215 81.972C58.2495 82 58.2588 82.0373 58.2495 82.084L56.2335 88.888C56.2055 88.9627 56.1542 89 56.0795 89H55.3375C55.2628 89 55.2115 88.9627 55.1835 88.888L53.6575 83.652C53.6482 83.6333 53.6342 83.624 53.6155 83.624C53.6062 83.624 53.5968 83.6333 53.5875 83.652L52.1035 88.888C52.0755 88.9627 52.0242 89 51.9495 89H51.1935ZM60.4854 80.628C60.2614 80.628 60.0747 80.5533 59.9254 80.404C59.776 80.2547 59.7014 80.068 59.7014 79.844C59.7014 79.6107 59.776 79.424 59.9254 79.284C60.0747 79.1347 60.2614 79.06 60.4854 79.06C60.7094 79.06 60.896 79.1347 61.0454 79.284C61.1947 79.424 61.2694 79.6107 61.2694 79.844C61.2694 80.068 61.1947 80.2547 61.0454 80.404C60.896 80.5533 60.7094 80.628 60.4854 80.628ZM60.0934 88.986C60 88.986 59.9534 88.9393 59.9534 88.846V82.042C59.9534 81.9487 60 81.902 60.0934 81.902H60.8074C60.9007 81.902 60.9474 81.9487 60.9474 82.042V88.846C60.9474 88.9393 60.9007 88.986 60.8074 88.986H60.0934ZM66.5597 82.602C66.5597 82.6953 66.5131 82.742 66.4197 82.742H64.8377C64.8004 82.742 64.7817 82.7607 64.7817 82.798V86.928C64.7817 87.376 64.8797 87.6933 65.0757 87.88C65.2811 88.0573 65.5984 88.146 66.0277 88.146H66.3777C66.4711 88.146 66.5177 88.1927 66.5177 88.286V88.86C66.5177 88.9533 66.4711 89 66.3777 89C66.2657 89.0093 66.0931 89.014 65.8597 89.014C65.1877 89.014 64.6791 88.888 64.3337 88.636C63.9884 88.384 63.8157 87.9173 63.8157 87.236V82.798C63.8157 82.7607 63.7971 82.742 63.7597 82.742H62.9057C62.8124 82.742 62.7657 82.6953 62.7657 82.602V82.056C62.7657 81.9627 62.8124 81.916 62.9057 81.916H63.7597C63.7971 81.916 63.8157 81.8973 63.8157 81.86V80.236C63.8157 80.1427 63.8624 80.096 63.9557 80.096H64.6417C64.7351 80.096 64.7817 80.1427 64.7817 80.236V81.86C64.7817 81.8973 64.8004 81.916 64.8377 81.916H66.4197C66.5131 81.916 66.5597 81.9627 66.5597 82.056V82.602ZM71.4213 81.818C72.168 81.818 72.7607 82.0373 73.1993 82.476C73.6473 82.9147 73.8713 83.5027 73.8713 84.24V88.86C73.8713 88.9533 73.8247 89 73.7313 89H73.0173C72.924 89 72.8773 88.9533 72.8773 88.86V84.436C72.8773 83.9227 72.7187 83.5027 72.4013 83.176C72.0933 82.8493 71.692 82.686 71.1973 82.686C70.684 82.686 70.2687 82.8447 69.9513 83.162C69.634 83.4793 69.4753 83.8947 69.4753 84.408V88.86C69.4753 88.9533 69.4287 89 69.3353 89H68.6213C68.528 89 68.4813 88.9533 68.4813 88.86V79.34C68.4813 79.2467 68.528 79.2 68.6213 79.2H69.3353C69.4287 79.2 69.4753 79.2467 69.4753 79.34V82.658C69.4753 82.6767 69.48 82.6907 69.4893 82.7C69.508 82.7093 69.522 82.7047 69.5313 82.686C69.942 82.1073 70.572 81.818 71.4213 81.818ZM83.1149 82.056C83.1149 81.9627 83.1616 81.916 83.2549 81.916H83.9689C84.0623 81.916 84.1089 81.9627 84.1089 82.056V88.86C84.1089 88.9533 84.0623 89 83.9689 89H83.2549C83.1616 89 83.1149 88.9533 83.1149 88.86V88.258C83.1149 88.2393 83.1056 88.2253 83.0869 88.216C83.0683 88.2067 83.0543 88.2113 83.0449 88.23C82.6529 88.8087 82.0323 89.098 81.1829 89.098C80.7349 89.098 80.3196 89.0093 79.9369 88.832C79.5636 88.6453 79.2649 88.3793 79.0409 88.034C78.8263 87.6887 78.7189 87.2733 78.7189 86.788V82.056C78.7189 81.9627 78.7656 81.916 78.8589 81.916H79.5729C79.6663 81.916 79.7129 81.9627 79.7129 82.056V86.494C79.7129 87.026 79.8623 87.4507 80.1609 87.768C80.4596 88.076 80.8656 88.23 81.3789 88.23C81.9109 88.23 82.3309 88.0713 82.6389 87.754C82.9563 87.4367 83.1149 87.0167 83.1149 86.494V82.056ZM88.6608 89.07C88.1381 89.07 87.6715 88.986 87.2608 88.818C86.8595 88.65 86.5468 88.426 86.3228 88.146C86.1081 87.866 86.0008 87.5533 86.0008 87.208V87.04C86.0008 86.9467 86.0475 86.9 86.1408 86.9H86.8128C86.9061 86.9 86.9528 86.9467 86.9528 87.04V87.152C86.9528 87.46 87.1115 87.7307 87.4288 87.964C87.7555 88.188 88.1615 88.3 88.6468 88.3C89.1321 88.3 89.5241 88.1927 89.8228 87.978C90.1215 87.754 90.2708 87.474 90.2708 87.138C90.2708 86.9047 90.1915 86.7133 90.0328 86.564C89.8835 86.4147 89.7015 86.298 89.4868 86.214C89.2815 86.13 88.9595 86.0227 88.5208 85.892C87.9981 85.7427 87.5688 85.5933 87.2328 85.444C86.8968 85.2947 86.6121 85.0893 86.3788 84.828C86.1548 84.5573 86.0428 84.2167 86.0428 83.806C86.0428 83.2087 86.2761 82.7327 86.7428 82.378C87.2095 82.0233 87.8255 81.846 88.5908 81.846C89.1041 81.846 89.5568 81.93 89.9488 82.098C90.3501 82.266 90.6581 82.4993 90.8728 82.798C91.0875 83.0873 91.1948 83.414 91.1948 83.778V83.82C91.1948 83.9133 91.1481 83.96 91.0548 83.96H90.3968C90.3035 83.96 90.2568 83.9133 90.2568 83.82V83.778C90.2568 83.4607 90.1028 83.1947 89.7948 82.98C89.4961 82.7653 89.0901 82.658 88.5768 82.658C88.1008 82.658 87.7181 82.756 87.4288 82.952C87.1395 83.1387 86.9948 83.4 86.9948 83.736C86.9948 84.0533 87.1348 84.296 87.4148 84.464C87.6948 84.632 88.1288 84.8 88.7168 84.968C89.2581 85.1267 89.6968 85.276 90.0328 85.416C90.3688 85.556 90.6581 85.7613 90.9008 86.032C91.1435 86.2933 91.2648 86.6387 91.2648 87.068C91.2648 87.6747 91.0268 88.16 90.5508 88.524C90.0748 88.888 89.4448 89.07 88.6608 89.07Z" fill="#112B3C"/>
<path d="M7.644 114.928C7.644 115.021 7.59733 115.068 7.504 115.068H2.366C2.32867 115.068 2.31 115.087 2.31 115.124V118.582C2.31 118.619 2.32867 118.638 2.366 118.638H5.964C6.05733 118.638 6.104 118.685 6.104 118.778V119.366C6.104 119.459 6.05733 119.506 5.964 119.506H2.366C2.32867 119.506 2.31 119.525 2.31 119.562V123.86C2.31 123.953 2.26333 124 2.17 124H1.456C1.36267 124 1.316 123.953 1.316 123.86V114.34C1.316 114.247 1.36267 114.2 1.456 114.2H7.504C7.59733 114.2 7.644 114.247 7.644 114.34V114.928ZM14.3858 124C14.3018 124 14.2458 123.963 14.2178 123.888L13.6578 122.124C13.6484 122.096 13.6298 122.082 13.6018 122.082H9.41577C9.38777 122.082 9.3691 122.096 9.35977 122.124L8.79977 123.888C8.77177 123.963 8.71577 124 8.63177 124H7.87577C7.7731 124 7.73577 123.949 7.76377 123.846L10.8578 114.312C10.8858 114.237 10.9418 114.2 11.0258 114.2H11.9778C12.0618 114.2 12.1178 114.237 12.1458 114.312L15.2538 123.846L15.2678 123.902C15.2678 123.967 15.2258 124 15.1418 124H14.3858ZM9.63977 121.2C9.63043 121.219 9.63043 121.237 9.63977 121.256C9.65843 121.265 9.6771 121.27 9.69577 121.27H13.3078C13.3264 121.27 13.3404 121.265 13.3498 121.256C13.3684 121.237 13.3731 121.219 13.3638 121.2L11.5438 115.488C11.5344 115.469 11.5204 115.46 11.5018 115.46C11.4831 115.46 11.4691 115.469 11.4598 115.488L9.63977 121.2ZM19.6316 114.088C20.2663 114.088 20.8263 114.223 21.3116 114.494C21.8063 114.755 22.1843 115.124 22.4456 115.6C22.7163 116.076 22.8516 116.627 22.8516 117.252V121.004C22.8516 121.844 22.6089 122.539 22.1236 123.09C21.6476 123.641 21.0036 123.972 20.1916 124.084C20.1543 124.084 20.1356 124.103 20.1356 124.14V125.47C20.1356 125.563 20.0889 125.61 19.9956 125.61H19.2816C19.1883 125.61 19.1416 125.563 19.1416 125.47V124.14C19.1416 124.103 19.1229 124.084 19.0856 124.084C18.2736 123.972 17.6249 123.641 17.1396 123.09C16.6543 122.539 16.4116 121.844 16.4116 121.004V117.252C16.4116 116.627 16.5423 116.076 16.8036 115.6C17.0743 115.124 17.4523 114.755 17.9376 114.494C18.4323 114.223 18.9969 114.088 19.6316 114.088ZM21.8576 117.21C21.8576 116.538 21.6523 115.997 21.2416 115.586C20.8309 115.166 20.2943 114.956 19.6316 114.956C18.9689 114.956 18.4323 115.166 18.0216 115.586C17.6109 115.997 17.4056 116.538 17.4056 117.21V120.99C17.4056 121.662 17.6109 122.208 18.0216 122.628C18.4323 123.039 18.9689 123.244 19.6316 123.244C20.2943 123.244 20.8309 123.039 21.2416 122.628C21.6523 122.208 21.8576 121.662 21.8576 120.99V117.21Z" fill="#112B3C"/>
<path d="M6.23 153.89C6.18333 153.918 6.18333 153.946 6.23 153.974C6.734 154.179 7.11667 154.483 7.378 154.884C7.63933 155.285 7.77 155.771 7.77 156.34C7.77 157.18 7.49933 157.833 6.958 158.3C6.426 158.767 5.72133 159 4.844 159H1.456C1.36267 159 1.316 158.953 1.316 158.86V149.34C1.316 149.247 1.36267 149.2 1.456 149.2H4.746C5.65133 149.2 6.36067 149.424 6.874 149.872C7.39667 150.32 7.658 150.95 7.658 151.762C7.658 152.275 7.532 152.714 7.28 153.078C7.03733 153.433 6.68733 153.703 6.23 153.89ZM2.366 150.068C2.32867 150.068 2.31 150.087 2.31 150.124V153.484C2.31 153.521 2.32867 153.54 2.366 153.54H4.746C5.334 153.54 5.80067 153.386 6.146 153.078C6.50067 152.77 6.678 152.359 6.678 151.846C6.678 151.305 6.50067 150.875 6.146 150.558C5.80067 150.231 5.334 150.068 4.746 150.068H2.366ZM4.844 158.118C5.432 158.118 5.89867 157.95 6.244 157.614C6.59867 157.278 6.776 156.825 6.776 156.256C6.776 155.687 6.594 155.234 6.23 154.898C5.87533 154.553 5.39467 154.38 4.788 154.38H2.366C2.32867 154.38 2.31 154.399 2.31 154.436V158.062C2.31 158.099 2.32867 158.118 2.366 158.118H4.844ZM10.0373 159C9.94401 159 9.89734 158.953 9.89734 158.86V149.34C9.89734 149.247 9.94401 149.2 10.0373 149.2H10.7513C10.8447 149.2 10.8913 149.247 10.8913 149.34V158.86C10.8913 158.953 10.8447 159 10.7513 159H10.0373ZM15.8259 159.112C15.1539 159.112 14.5752 158.939 14.0899 158.594C13.6046 158.249 13.2686 157.773 13.0819 157.166C12.9512 156.737 12.8859 156.163 12.8859 155.444C12.8859 154.725 12.9512 154.156 13.0819 153.736C13.2592 153.139 13.5906 152.667 14.0759 152.322C14.5612 151.977 15.1492 151.804 15.8399 151.804C16.5026 151.804 17.0719 151.977 17.5479 152.322C18.0332 152.667 18.3646 153.134 18.5419 153.722C18.6726 154.123 18.7379 154.697 18.7379 155.444C18.7379 156.2 18.6726 156.774 18.5419 157.166C18.3646 157.773 18.0332 158.249 17.5479 158.594C17.0719 158.939 16.4979 159.112 15.8259 159.112ZM15.8259 158.244C16.2739 158.244 16.6566 158.123 16.9739 157.88C17.2912 157.628 17.5059 157.292 17.6179 156.872C17.7019 156.536 17.7439 156.065 17.7439 155.458C17.7439 154.842 17.7066 154.371 17.6319 154.044C17.5199 153.624 17.3006 153.293 16.9739 153.05C16.6566 152.798 16.2692 152.672 15.8119 152.672C15.3546 152.672 14.9672 152.798 14.6499 153.05C14.3326 153.293 14.1179 153.624 14.0059 154.044C13.9312 154.371 13.8939 154.842 13.8939 155.458C13.8939 156.074 13.9312 156.545 14.0059 156.872C14.1086 157.292 14.3186 157.628 14.6359 157.88C14.9626 158.123 15.3592 158.244 15.8259 158.244ZM25.1208 152.056C25.1208 151.963 25.1675 151.916 25.2608 151.916H25.9748C26.0681 151.916 26.1148 151.963 26.1148 152.056V158.762C26.1148 159.807 25.8115 160.573 25.2048 161.058C24.6075 161.543 23.7815 161.786 22.7268 161.786C22.5121 161.786 22.3488 161.781 22.2368 161.772C22.1435 161.763 22.0968 161.711 22.0968 161.618L22.1248 160.974C22.1248 160.927 22.1388 160.89 22.1668 160.862C22.1948 160.843 22.2275 160.839 22.2648 160.848L22.6428 160.862C23.5108 160.862 24.1408 160.689 24.5328 160.344C24.9248 160.008 25.1208 159.471 25.1208 158.734V158.216C25.1208 158.197 25.1115 158.188 25.0928 158.188C25.0835 158.179 25.0695 158.183 25.0508 158.202C24.6215 158.762 24.0101 159.042 23.2168 159.042C22.6101 159.042 22.0688 158.879 21.5928 158.552C21.1261 158.225 20.8135 157.763 20.6548 157.166C20.5428 156.783 20.4868 156.214 20.4868 155.458C20.4868 155.047 20.4961 154.702 20.5148 154.422C20.5428 154.142 20.5941 153.89 20.6688 153.666C20.8368 153.106 21.1401 152.658 21.5788 152.322C22.0175 151.977 22.5448 151.804 23.1608 151.804C23.9915 151.804 24.6215 152.079 25.0508 152.63C25.0695 152.649 25.0835 152.653 25.0928 152.644C25.1115 152.635 25.1208 152.621 25.1208 152.602V152.056ZM25.0508 156.858C25.0788 156.718 25.0975 156.545 25.1068 156.34C25.1161 156.135 25.1208 155.836 25.1208 155.444C25.1208 154.968 25.1161 154.651 25.1068 154.492C25.0975 154.324 25.0741 154.17 25.0368 154.03C24.9621 153.638 24.7755 153.316 24.4768 153.064C24.1875 152.803 23.8188 152.672 23.3708 152.672C22.9321 152.672 22.5588 152.798 22.2508 153.05C21.9521 153.302 21.7421 153.629 21.6208 154.03C21.5275 154.329 21.4808 154.795 21.4808 155.43C21.4808 156.111 21.5275 156.583 21.6208 156.844C21.7141 157.236 21.9148 157.563 22.2228 157.824C22.5401 158.076 22.9228 158.202 23.3708 158.202C23.8281 158.202 24.2015 158.076 24.4908 157.824C24.7895 157.572 24.9761 157.25 25.0508 156.858Z" fill="#112B3C"/>
</svg>
