<svg width="200" height="129" viewBox="0 0 200 129" fill="none" xmlns="http://www.w3.org/2000/svg">
<path d="M13.488 7.2C13.6 7.2 13.688 7.232 13.752 7.296C13.816 7.36 13.848 7.448 13.848 7.56V10.728C13.848 10.84 13.816 10.928 13.752 10.992C13.688 11.056 13.6 11.088 13.488 11.088H9.456C9.376 11.088 9.336 11.128 9.336 11.208V23.64C9.336 23.752 9.304 23.84 9.24 23.904C9.176 23.968 9.088 24 8.976 24H5.184C5.072 24 4.984 23.968 4.92 23.904C4.856 23.84 4.824 23.752 4.824 23.64V11.208C4.824 11.128 4.784 11.088 4.704 11.088H0.792C0.68 11.088 0.592 11.056 0.528 10.992C0.464 10.928 0.432 10.84 0.432 10.728V7.56C0.432 7.448 0.464 7.36 0.528 7.296C0.592 7.232 0.68 7.2 0.792 7.2H13.488ZM20.6438 11.352C21.1878 11.352 21.6198 11.456 21.9398 11.664C22.0838 11.744 22.1398 11.896 22.1078 12.12L21.5318 15.816C21.5158 15.944 21.4678 16.024 21.3878 16.056C21.3238 16.088 21.2278 16.088 21.0998 16.056C20.8118 15.992 20.5558 15.96 20.3318 15.96C20.0918 15.96 19.8678 15.984 19.6598 16.032C19.2438 16.112 18.8838 16.288 18.5798 16.56C18.2918 16.816 18.1478 17.168 18.1478 17.616V23.64C18.1478 23.752 18.1158 23.84 18.0518 23.904C17.9878 23.968 17.8998 24 17.7878 24H13.9958C13.8838 24 13.7958 23.968 13.7318 23.904C13.6678 23.84 13.6357 23.752 13.6357 23.64V11.88C13.6357 11.768 13.6678 11.68 13.7318 11.616C13.7958 11.552 13.8838 11.52 13.9958 11.52H17.7878C17.8998 11.52 17.9878 11.552 18.0518 11.616C18.1158 11.68 18.1478 11.768 18.1478 11.88V12.456C18.1478 12.504 18.1638 12.536 18.1958 12.552C18.2278 12.568 18.2518 12.56 18.2678 12.528C18.8758 11.744 19.6678 11.352 20.6438 11.352ZM25.4314 10.68C24.7754 10.68 24.2314 10.472 23.7994 10.056C23.3834 9.624 23.1754 9.08 23.1754 8.424C23.1754 7.752 23.3834 7.208 23.7994 6.792C24.2314 6.376 24.7754 6.168 25.4314 6.168C26.0874 6.168 26.6234 6.376 27.0394 6.792C27.4714 7.208 27.6874 7.752 27.6874 8.424C27.6874 9.064 27.4714 9.6 27.0394 10.032C26.6234 10.464 26.0874 10.68 25.4314 10.68ZM23.5114 24C23.3994 24 23.3114 23.968 23.2474 23.904C23.1834 23.84 23.1514 23.752 23.1514 23.64V11.88C23.1514 11.768 23.1834 11.68 23.2474 11.616C23.3114 11.552 23.3994 11.52 23.5114 11.52H27.3034C27.4154 11.52 27.5034 11.552 27.5674 11.616C27.6314 11.68 27.6634 11.768 27.6634 11.88V23.64C27.6634 23.752 27.6314 23.84 27.5674 23.904C27.5034 23.968 27.4154 24 27.3034 24H23.5114ZM41.4611 15.12C41.7011 15.92 41.8211 16.816 41.8211 17.808C41.8211 18.96 41.6451 19.984 41.2931 20.88C40.9091 21.856 40.3091 22.656 39.4931 23.28C38.6771 23.888 37.7011 24.192 36.5651 24.192C35.3971 24.192 34.5331 23.824 33.9731 23.088C33.9411 23.056 33.9091 23.048 33.8771 23.064C33.8451 23.064 33.8291 23.088 33.8291 23.136V27.96C33.8291 28.072 33.7971 28.16 33.7331 28.224C33.6691 28.288 33.5811 28.32 33.4691 28.32H29.6771C29.5651 28.32 29.4771 28.288 29.4131 28.224C29.3491 28.16 29.3171 28.072 29.3171 27.96V11.88C29.3171 11.768 29.3491 11.68 29.4131 11.616C29.4771 11.552 29.5651 11.52 29.6771 11.52H33.4691C33.5811 11.52 33.6691 11.552 33.7331 11.616C33.7971 11.68 33.8291 11.768 33.8291 11.88V12.6C33.8291 12.648 33.8451 12.68 33.8771 12.696C33.9091 12.712 33.9411 12.696 33.9731 12.648C34.5651 11.768 35.4931 11.328 36.7571 11.328C37.8291 11.328 38.7891 11.672 39.6371 12.36C40.5011 13.032 41.1091 13.952 41.4611 15.12ZM36.7331 19.536C36.9731 19.072 37.0931 18.472 37.0931 17.736C37.0931 17.016 36.9731 16.432 36.7331 15.984C36.4451 15.456 36.0211 15.192 35.4611 15.192C34.9011 15.192 34.4771 15.464 34.1891 16.008C33.9491 16.456 33.8291 17.032 33.8291 17.736C33.8291 18.504 33.9571 19.12 34.2131 19.584C34.5011 20.08 34.9171 20.328 35.4611 20.328C36.0371 20.328 36.4611 20.064 36.7331 19.536ZM42.6576 28.776C42.6096 28.776 42.5696 28.744 42.5376 28.68C42.5056 28.616 42.4896 28.528 42.4896 28.416V25.44C42.4896 25.2 42.5776 25.08 42.7536 25.08C43.8096 25.08 44.5536 25.016 44.9856 24.888C45.4336 24.76 45.6896 24.488 45.7536 24.072L45.7296 23.928L41.9376 11.928C41.9216 11.896 41.9136 11.848 41.9136 11.784C41.9136 11.608 42.0256 11.52 42.2496 11.52H46.2816C46.5056 11.52 46.6416 11.624 46.6896 11.832L47.9856 18.24C48.0016 18.304 48.0256 18.336 48.0576 18.336C48.0896 18.336 48.1136 18.304 48.1296 18.24L49.4256 11.832C49.4736 11.624 49.6096 11.52 49.8336 11.52H53.7696C54.0416 11.52 54.1376 11.656 54.0576 11.928L50.1456 24.048C49.7296 25.28 49.2896 26.216 48.8256 26.856C48.3616 27.496 47.6656 27.976 46.7376 28.296C45.8256 28.616 44.5216 28.776 42.8256 28.776H42.6576Z" fill="#112B3C"/>
<circle cx="25.5" cy="8.5" r="2.5" fill="#E61C5D"/>
<path d="M6.72 59.402C6.81333 59.402 6.86 59.4487 6.86 59.542V60.158C6.86 60.2513 6.81333 60.298 6.72 60.298H6.118C6.08067 60.298 6.062 60.3167 6.062 60.354V62.86C6.062 62.9533 6.01533 63 5.922 63H5.208C5.11467 63 5.068 62.9533 5.068 62.86V60.354C5.068 60.3167 5.04933 60.298 5.012 60.298H0.826C0.732667 60.298 0.686 60.2513 0.686 60.158V59.64C0.686 59.5933 0.7 59.5373 0.728 59.472L3.598 53.298C3.626 53.2327 3.67733 53.2 3.752 53.2H4.494C4.54067 53.2 4.57333 53.2187 4.592 53.256C4.62 53.284 4.62467 53.3213 4.606 53.368L1.82 59.332C1.81067 59.3507 1.81067 59.3693 1.82 59.388C1.82933 59.3973 1.84333 59.402 1.862 59.402H5.012C5.04933 59.402 5.068 59.3833 5.068 59.346V57.092C5.068 56.9987 5.11467 56.952 5.208 56.952H5.922C6.01533 56.952 6.062 56.9987 6.062 57.092V59.346C6.062 59.3833 6.08067 59.402 6.118 59.402H6.72ZM14.0809 58.716C14.1649 59.1267 14.2069 59.5467 14.2069 59.976C14.2069 60.4333 14.1649 60.8253 14.0809 61.152C13.9223 61.7493 13.6049 62.2253 13.1289 62.58C12.6529 62.9253 12.0789 63.098 11.4069 63.098C10.7443 63.098 10.1796 62.93 9.71294 62.594C9.24627 62.258 8.92894 61.81 8.76094 61.25C8.6956 61.0447 8.6536 60.8393 8.63494 60.634V60.606C8.63494 60.5313 8.67694 60.494 8.76094 60.494H9.50294C9.59627 60.494 9.6476 60.5407 9.65694 60.634C9.65694 60.69 9.6756 60.7833 9.71294 60.914C9.80627 61.3153 9.9976 61.6373 10.2869 61.88C10.5856 62.1133 10.9543 62.23 11.3929 62.23C11.8409 62.23 12.2143 62.104 12.5129 61.852C12.8209 61.6 13.0216 61.2547 13.1149 60.816C13.1709 60.6013 13.1989 60.3213 13.1989 59.976C13.1989 59.6587 13.1756 59.3553 13.1289 59.066C13.0636 58.6367 12.8769 58.31 12.5689 58.086C12.2609 57.862 11.8783 57.75 11.4209 57.75C11.0103 57.75 10.6416 57.8433 10.3149 58.03C9.98827 58.2167 9.77827 58.464 9.68494 58.772C9.65694 58.856 9.6056 58.898 9.53094 58.898H8.77494C8.6816 58.898 8.63494 58.8513 8.63494 58.758V53.34C8.63494 53.2467 8.6816 53.2 8.77494 53.2H13.6749C13.7683 53.2 13.8149 53.2467 13.8149 53.34V53.928C13.8149 54.0213 13.7683 54.068 13.6749 54.068H9.68494C9.6476 54.068 9.62894 54.0867 9.62894 54.124L9.61494 57.512C9.61494 57.5307 9.6196 57.5447 9.62894 57.554C9.6476 57.5633 9.66627 57.5587 9.68494 57.54C9.91827 57.3253 10.1936 57.162 10.5109 57.05C10.8283 56.9287 11.1643 56.868 11.5189 56.868C12.1816 56.868 12.7416 57.0313 13.1989 57.358C13.6563 57.6753 13.9503 58.128 14.0809 58.716ZM17.0259 53.242C17.0819 53.214 17.1425 53.2 17.2079 53.2H17.9639C18.0572 53.2 18.1039 53.2467 18.1039 53.34V62.86C18.1039 62.9533 18.0572 63 17.9639 63H17.2499C17.1565 63 17.1099 62.9533 17.1099 62.86V54.334C17.1099 54.3153 17.1005 54.3013 17.0819 54.292C17.0725 54.2827 17.0585 54.2827 17.0399 54.292L15.5559 54.894L15.4999 54.908C15.4439 54.908 15.4065 54.8707 15.3879 54.796L15.3179 54.264V54.236C15.3179 54.1893 15.3505 54.1427 15.4159 54.096L17.0259 53.242ZM21.5144 63C21.4677 63 21.4304 62.986 21.4024 62.958C21.3837 62.9207 21.3837 62.8787 21.4024 62.832L24.6364 54.138C24.6457 54.1193 24.6457 54.1053 24.6364 54.096C24.6271 54.0773 24.6131 54.068 24.5944 54.068H20.8144C20.7771 54.068 20.7584 54.0867 20.7584 54.124V54.768C20.7584 54.8613 20.7117 54.908 20.6184 54.908H20.0444C19.9511 54.908 19.9044 54.8613 19.9044 54.768L19.9184 53.34C19.9184 53.2467 19.9651 53.2 20.0584 53.2H25.5744C25.6677 53.2 25.7144 53.2467 25.7144 53.34V53.984C25.7144 54.0213 25.7051 54.0773 25.6864 54.152L22.4664 62.888C22.4384 62.9627 22.3824 63 22.2984 63H21.5144ZM32.0543 63C31.9796 63 31.9283 62.9627 31.9003 62.888L29.2123 53.354L29.1983 53.312C29.1983 53.2373 29.245 53.2 29.3383 53.2H30.0803C30.1643 53.2 30.2156 53.2373 30.2343 53.312L32.3623 60.984C32.3716 61.0027 32.381 61.012 32.3903 61.012C32.409 61.012 32.423 61.0027 32.4323 60.984L34.4063 53.326C34.425 53.242 34.4763 53.2 34.5603 53.2H35.3163C35.4003 53.2 35.4516 53.242 35.4703 53.326L37.5283 60.984C37.5376 61.0027 37.547 61.012 37.5563 61.012C37.575 61.012 37.589 61.0027 37.5983 60.984L39.7263 53.312C39.745 53.2373 39.7963 53.2 39.8803 53.2H40.5943C40.641 53.2 40.6736 53.214 40.6923 53.242C40.7203 53.27 40.7296 53.3073 40.7203 53.354L38.0743 62.888C38.0556 62.9627 38.0043 63 37.9203 63H37.1783C37.0943 63 37.043 62.958 37.0243 62.874L34.9803 55.034C34.971 55.0153 34.957 55.006 34.9383 55.006C34.929 55.006 34.9196 55.0153 34.9103 55.034L32.9083 62.874C32.899 62.958 32.8476 63 32.7543 63H32.0543ZM44.0114 55.804C44.8514 55.804 45.5001 56.0187 45.9574 56.448C46.4147 56.8773 46.6434 57.4467 46.6434 58.156V62.86C46.6434 62.9533 46.5967 63 46.5034 63H45.7894C45.6961 63 45.6494 62.9533 45.6494 62.86V62.286C45.6494 62.2673 45.6401 62.2533 45.6214 62.244C45.6121 62.2347 45.5981 62.2393 45.5794 62.258C45.3461 62.538 45.0427 62.7527 44.6694 62.902C44.2961 63.042 43.8807 63.112 43.4234 63.112C42.7607 63.112 42.2054 62.944 41.7574 62.608C41.3094 62.272 41.0854 61.7587 41.0854 61.068C41.0854 60.368 41.3374 59.8173 41.8414 59.416C42.3547 59.0053 43.0641 58.8 43.9694 58.8H45.5934C45.6307 58.8 45.6494 58.7813 45.6494 58.744V58.212C45.6494 57.736 45.5141 57.3627 45.2434 57.092C44.9821 56.812 44.5714 56.672 44.0114 56.672C43.5634 56.672 43.1994 56.7607 42.9194 56.938C42.6394 57.106 42.4667 57.344 42.4014 57.652C42.3734 57.7453 42.3174 57.7873 42.2334 57.778L41.4774 57.68C41.3747 57.6613 41.3327 57.624 41.3514 57.568C41.4261 57.0453 41.7061 56.6207 42.1914 56.294C42.6767 55.9673 43.2834 55.804 44.0114 55.804ZM43.6194 62.258C44.1701 62.258 44.6461 62.1227 45.0474 61.852C45.4487 61.572 45.6494 61.1987 45.6494 60.732V59.64C45.6494 59.6027 45.6307 59.584 45.5934 59.584H44.1234C43.5074 59.584 43.0127 59.71 42.6394 59.962C42.2661 60.214 42.0794 60.564 42.0794 61.012C42.0794 61.4227 42.2194 61.7353 42.4994 61.95C42.7887 62.1553 43.1621 62.258 43.6194 62.258ZM51.0358 63.07C50.5131 63.07 50.0465 62.986 49.6358 62.818C49.2345 62.65 48.9218 62.426 48.6978 62.146C48.4831 61.866 48.3758 61.5533 48.3758 61.208V61.04C48.3758 60.9467 48.4225 60.9 48.5158 60.9H49.1878C49.2811 60.9 49.3278 60.9467 49.3278 61.04V61.152C49.3278 61.46 49.4865 61.7307 49.8038 61.964C50.1305 62.188 50.5365 62.3 51.0218 62.3C51.5071 62.3 51.8991 62.1927 52.1978 61.978C52.4965 61.754 52.6458 61.474 52.6458 61.138C52.6458 60.9047 52.5665 60.7133 52.4078 60.564C52.2585 60.4147 52.0765 60.298 51.8618 60.214C51.6565 60.13 51.3345 60.0227 50.8958 59.892C50.3731 59.7427 49.9438 59.5933 49.6078 59.444C49.2718 59.2947 48.9871 59.0893 48.7538 58.828C48.5298 58.5573 48.4178 58.2167 48.4178 57.806C48.4178 57.2087 48.6511 56.7327 49.1178 56.378C49.5845 56.0233 50.2005 55.846 50.9658 55.846C51.4791 55.846 51.9318 55.93 52.3238 56.098C52.7251 56.266 53.0331 56.4993 53.2478 56.798C53.4625 57.0873 53.5698 57.414 53.5698 57.778V57.82C53.5698 57.9133 53.5231 57.96 53.4298 57.96H52.7718C52.6785 57.96 52.6318 57.9133 52.6318 57.82V57.778C52.6318 57.4607 52.4778 57.1947 52.1698 56.98C51.8711 56.7653 51.4651 56.658 50.9518 56.658C50.4758 56.658 50.0931 56.756 49.8038 56.952C49.5145 57.1387 49.3698 57.4 49.3698 57.736C49.3698 58.0533 49.5098 58.296 49.7898 58.464C50.0698 58.632 50.5038 58.8 51.0918 58.968C51.6331 59.1267 52.0718 59.276 52.4078 59.416C52.7438 59.556 53.0331 59.7613 53.2758 60.032C53.5185 60.2933 53.6398 60.6387 53.6398 61.068C53.6398 61.6747 53.4018 62.16 52.9258 62.524C52.4498 62.888 51.8198 63.07 51.0358 63.07ZM58.392 55.818C59.1387 55.818 59.7314 56.0373 60.17 56.476C60.618 56.9147 60.842 57.5027 60.842 58.24V62.86C60.842 62.9533 60.7954 63 60.702 63H59.988C59.8947 63 59.848 62.9533 59.848 62.86V58.436C59.848 57.9227 59.6894 57.5027 59.372 57.176C59.064 56.8493 58.6627 56.686 58.168 56.686C57.6547 56.686 57.2394 56.8447 56.922 57.162C56.6047 57.4793 56.446 57.8947 56.446 58.408V62.86C56.446 62.9533 56.3994 63 56.306 63H55.592C55.4987 63 55.452 62.9533 55.452 62.86V53.34C55.452 53.2467 55.4987 53.2 55.592 53.2H56.306C56.3994 53.2 56.446 53.2467 56.446 53.34V56.658C56.446 56.6767 56.4507 56.6907 56.46 56.7C56.4787 56.7093 56.4927 56.7047 56.502 56.686C56.9127 56.1073 57.5427 55.818 58.392 55.818ZM63.6709 54.628C63.4469 54.628 63.2602 54.5533 63.1109 54.404C62.9616 54.2547 62.8869 54.068 62.8869 53.844C62.8869 53.6107 62.9616 53.424 63.1109 53.284C63.2602 53.1347 63.4469 53.06 63.6709 53.06C63.8949 53.06 64.0816 53.1347 64.2309 53.284C64.3802 53.424 64.4549 53.6107 64.4549 53.844C64.4549 54.068 64.3802 54.2547 64.2309 54.404C64.0816 54.5533 63.8949 54.628 63.6709 54.628ZM63.2789 62.986C63.1856 62.986 63.1389 62.9393 63.1389 62.846V56.042C63.1389 55.9487 63.1856 55.902 63.2789 55.902H63.9929C64.0862 55.902 64.1329 55.9487 64.1329 56.042V62.846C64.1329 62.9393 64.0862 62.986 63.9929 62.986H63.2789ZM69.5073 55.818C70.2539 55.818 70.8466 56.0373 71.2853 56.476C71.7333 56.9147 71.9573 57.5027 71.9573 58.24V62.86C71.9573 62.9533 71.9106 63 71.8173 63H71.1033C71.0099 63 70.9633 62.9533 70.9633 62.86V58.436C70.9633 57.9227 70.8046 57.5027 70.4873 57.176C70.1793 56.8493 69.7779 56.686 69.2833 56.686C68.7699 56.686 68.3546 56.8447 68.0373 57.162C67.7199 57.4793 67.5613 57.8947 67.5613 58.408V62.86C67.5613 62.9533 67.5146 63 67.4213 63H66.7073C66.6139 63 66.5673 62.9533 66.5673 62.86V56.056C66.5673 55.9627 66.6139 55.916 66.7073 55.916H67.4213C67.5146 55.916 67.5613 55.9627 67.5613 56.056V56.658C67.5613 56.6767 67.5659 56.6907 67.5753 56.7C67.5939 56.7093 67.6079 56.7047 67.6173 56.686C68.0279 56.1073 68.6579 55.818 69.5073 55.818ZM78.4821 56.056C78.4821 55.9627 78.5288 55.916 78.6221 55.916H79.3361C79.4295 55.916 79.4761 55.9627 79.4761 56.056V62.762C79.4761 63.8073 79.1728 64.5727 78.5661 65.058C77.9688 65.5433 77.1428 65.786 76.0881 65.786C75.8735 65.786 75.7101 65.7813 75.5981 65.772C75.5048 65.7627 75.4581 65.7113 75.4581 65.618L75.4861 64.974C75.4861 64.9273 75.5001 64.89 75.5281 64.862C75.5561 64.8433 75.5888 64.8387 75.6261 64.848L76.0041 64.862C76.8721 64.862 77.5021 64.6893 77.8941 64.344C78.2861 64.008 78.4821 63.4713 78.4821 62.734V62.216C78.4821 62.1973 78.4728 62.188 78.4541 62.188C78.4448 62.1787 78.4308 62.1833 78.4121 62.202C77.9828 62.762 77.3715 63.042 76.5781 63.042C75.9715 63.042 75.4301 62.8787 74.9541 62.552C74.4875 62.2253 74.1748 61.7633 74.0161 61.166C73.9041 60.7833 73.8481 60.214 73.8481 59.458C73.8481 59.0473 73.8575 58.702 73.8761 58.422C73.9041 58.142 73.9555 57.89 74.0301 57.666C74.1981 57.106 74.5015 56.658 74.9401 56.322C75.3788 55.9767 75.9061 55.804 76.5221 55.804C77.3528 55.804 77.9828 56.0793 78.4121 56.63C78.4308 56.6487 78.4448 56.6533 78.4541 56.644C78.4728 56.6347 78.4821 56.6207 78.4821 56.602V56.056ZM78.4121 60.858C78.4401 60.718 78.4588 60.5453 78.4681 60.34C78.4775 60.1347 78.4821 59.836 78.4821 59.444C78.4821 58.968 78.4775 58.6507 78.4681 58.492C78.4588 58.324 78.4355 58.17 78.3981 58.03C78.3235 57.638 78.1368 57.316 77.8381 57.064C77.5488 56.8027 77.1801 56.672 76.7321 56.672C76.2935 56.672 75.9201 56.798 75.6121 57.05C75.3135 57.302 75.1035 57.6287 74.9821 58.03C74.8888 58.3287 74.8421 58.7953 74.8421 59.43C74.8421 60.1113 74.8888 60.5827 74.9821 60.844C75.0755 61.236 75.2761 61.5627 75.5841 61.824C75.9015 62.076 76.2841 62.202 76.7321 62.202C77.1895 62.202 77.5628 62.076 77.8521 61.824C78.1508 61.572 78.3375 61.25 78.4121 60.858ZM84.7843 56.602C84.7843 56.6953 84.7377 56.742 84.6443 56.742H83.0623C83.025 56.742 83.0063 56.7607 83.0063 56.798V60.928C83.0063 61.376 83.1043 61.6933 83.3003 61.88C83.5057 62.0573 83.823 62.146 84.2523 62.146H84.6023C84.6957 62.146 84.7423 62.1927 84.7423 62.286V62.86C84.7423 62.9533 84.6957 63 84.6023 63C84.4903 63.0093 84.3177 63.014 84.0843 63.014C83.4123 63.014 82.9037 62.888 82.5583 62.636C82.213 62.384 82.0403 61.9173 82.0403 61.236V56.798C82.0403 56.7607 82.0217 56.742 81.9843 56.742H81.1303C81.037 56.742 80.9903 56.6953 80.9903 56.602V56.056C80.9903 55.9627 81.037 55.916 81.1303 55.916H81.9843C82.0217 55.916 82.0403 55.8973 82.0403 55.86V54.236C82.0403 54.1427 82.087 54.096 82.1803 54.096H82.8663C82.9597 54.096 83.0063 54.1427 83.0063 54.236V55.86C83.0063 55.8973 83.025 55.916 83.0623 55.916H84.6443C84.7377 55.916 84.7843 55.9627 84.7843 56.056V56.602ZM89.2029 63.112C88.5309 63.112 87.9522 62.9393 87.4669 62.594C86.9815 62.2487 86.6455 61.7727 86.4589 61.166C86.3282 60.7367 86.2629 60.1627 86.2629 59.444C86.2629 58.7253 86.3282 58.156 86.4589 57.736C86.6362 57.1387 86.9675 56.6673 87.4529 56.322C87.9382 55.9767 88.5262 55.804 89.2169 55.804C89.8795 55.804 90.4489 55.9767 90.9249 56.322C91.4102 56.6673 91.7415 57.134 91.9189 57.722C92.0495 58.1233 92.1149 58.6973 92.1149 59.444C92.1149 60.2 92.0495 60.774 91.9189 61.166C91.7415 61.7727 91.4102 62.2487 90.9249 62.594C90.4489 62.9393 89.8749 63.112 89.2029 63.112ZM89.2029 62.244C89.6509 62.244 90.0335 62.1227 90.3509 61.88C90.6682 61.628 90.8829 61.292 90.9949 60.872C91.0789 60.536 91.1209 60.0647 91.1209 59.458C91.1209 58.842 91.0835 58.3707 91.0089 58.044C90.8969 57.624 90.6775 57.2927 90.3509 57.05C90.0335 56.798 89.6462 56.672 89.1889 56.672C88.7315 56.672 88.3442 56.798 88.0269 57.05C87.7095 57.2927 87.4949 57.624 87.3829 58.044C87.3082 58.3707 87.2709 58.842 87.2709 59.458C87.2709 60.074 87.3082 60.5453 87.3829 60.872C87.4855 61.292 87.6955 61.628 88.0129 61.88C88.3395 62.1227 88.7362 62.244 89.2029 62.244ZM97.0698 55.818C97.8164 55.818 98.4091 56.0373 98.8478 56.476C99.2958 56.9147 99.5198 57.5027 99.5198 58.24V62.86C99.5198 62.9533 99.4731 63 99.3798 63H98.6658C98.5724 63 98.5258 62.9533 98.5258 62.86V58.436C98.5258 57.9227 98.3671 57.5027 98.0498 57.176C97.7418 56.8493 97.3404 56.686 96.8458 56.686C96.3324 56.686 95.9171 56.8447 95.5998 57.162C95.2824 57.4793 95.1238 57.8947 95.1238 58.408V62.86C95.1238 62.9533 95.0771 63 94.9838 63H94.2698C94.1764 63 94.1298 62.9533 94.1298 62.86V56.056C94.1298 55.9627 94.1764 55.916 94.2698 55.916H94.9838C95.0771 55.916 95.1238 55.9627 95.1238 56.056V56.658C95.1238 56.6767 95.1284 56.6907 95.1378 56.7C95.1564 56.7093 95.1704 56.7047 95.1798 56.686C95.5904 56.1073 96.2204 55.818 97.0698 55.818ZM110.485 63C110.401 63 110.345 62.9627 110.317 62.888L109.757 61.124C109.748 61.096 109.729 61.082 109.701 61.082H105.515C105.487 61.082 105.469 61.096 105.459 61.124L104.899 62.888C104.871 62.9627 104.815 63 104.731 63H103.975C103.873 63 103.835 62.9487 103.863 62.846L106.957 53.312C106.985 53.2373 107.041 53.2 107.125 53.2H108.077C108.161 53.2 108.217 53.2373 108.245 53.312L111.353 62.846L111.367 62.902C111.367 62.9673 111.325 63 111.241 63H110.485ZM105.739 60.2C105.73 60.2187 105.73 60.2373 105.739 60.256C105.758 60.2653 105.777 60.27 105.795 60.27H109.407C109.426 60.27 109.44 60.2653 109.449 60.256C109.468 60.2373 109.473 60.2187 109.463 60.2L107.643 54.488C107.634 54.4693 107.62 54.46 107.601 54.46C107.583 54.46 107.569 54.4693 107.559 54.488L105.739 60.2ZM114.393 63C114.309 63 114.253 62.9627 114.225 62.888L111.929 56.07L111.915 56.014C111.915 55.9487 111.957 55.916 112.041 55.916H112.839C112.923 55.916 112.979 55.9533 113.007 56.028L114.757 61.516C114.766 61.5347 114.78 61.544 114.799 61.544C114.817 61.544 114.831 61.5347 114.841 61.516L116.591 56.028C116.619 55.9533 116.675 55.916 116.759 55.916L117.557 55.93C117.659 55.93 117.697 55.9813 117.669 56.084L115.373 62.888C115.345 62.9627 115.289 63 115.205 63H114.393ZM124.431 58.268C124.468 58.5293 124.487 58.856 124.487 59.248V59.696C124.487 59.7893 124.44 59.836 124.347 59.836H119.825C119.788 59.836 119.769 59.8547 119.769 59.892C119.788 60.4053 119.816 60.7367 119.853 60.886C119.956 61.306 120.175 61.6373 120.511 61.88C120.847 62.1227 121.276 62.244 121.799 62.244C122.191 62.244 122.536 62.1553 122.835 61.978C123.134 61.8007 123.367 61.5487 123.535 61.222C123.591 61.138 123.656 61.1193 123.731 61.166L124.277 61.488C124.352 61.5347 124.37 61.6 124.333 61.684C124.1 62.132 123.75 62.4867 123.283 62.748C122.816 63 122.28 63.126 121.673 63.126C121.01 63.1167 120.455 62.958 120.007 62.65C119.559 62.342 119.237 61.9127 119.041 61.362C118.873 60.914 118.789 60.27 118.789 59.43C118.789 59.038 118.794 58.7207 118.803 58.478C118.822 58.226 118.859 58.002 118.915 57.806C119.074 57.1993 119.391 56.714 119.867 56.35C120.352 55.986 120.936 55.804 121.617 55.804C122.466 55.804 123.12 56.0187 123.577 56.448C124.034 56.8773 124.319 57.484 124.431 58.268ZM121.617 56.672C121.16 56.672 120.777 56.7933 120.469 57.036C120.17 57.2693 119.974 57.5867 119.881 57.988C119.825 58.184 119.788 58.5013 119.769 58.94C119.769 58.9773 119.788 58.996 119.825 58.996H123.451C123.488 58.996 123.507 58.9773 123.507 58.94C123.488 58.52 123.46 58.2213 123.423 58.044C123.32 57.624 123.11 57.2927 122.793 57.05C122.485 56.798 122.093 56.672 121.617 56.672ZM127.002 62.972C126.769 62.972 126.578 62.8973 126.428 62.748C126.288 62.5987 126.218 62.412 126.218 62.188C126.218 61.9547 126.288 61.768 126.428 61.628C126.578 61.4787 126.769 61.404 127.002 61.404C127.226 61.404 127.413 61.4787 127.562 61.628C127.712 61.768 127.786 61.9547 127.786 62.188C127.786 62.412 127.712 62.5987 127.562 62.748C127.413 62.8973 127.226 62.972 127.002 62.972ZM7.672 73.298C7.71867 73.2327 7.77467 73.2 7.84 73.2H8.568C8.66133 73.2 8.708 73.2467 8.708 73.34V82.86C8.708 82.9533 8.66133 83 8.568 83H7.854C7.76067 83 7.714 82.9533 7.714 82.86V75.076C7.714 75.048 7.70467 75.0293 7.686 75.02C7.66733 75.0107 7.65333 75.02 7.644 75.048L5.362 78.548C5.31533 78.6133 5.25933 78.646 5.194 78.646H4.83C4.76467 78.646 4.70867 78.618 4.662 78.562L2.38 75.09C2.37067 75.062 2.35667 75.0527 2.338 75.062C2.31933 75.0713 2.31 75.09 2.31 75.118V82.86C2.31 82.9533 2.26333 83 2.17 83H1.456C1.36267 83 1.316 82.9533 1.316 82.86V73.34C1.316 73.2467 1.36267 73.2 1.456 73.2H2.184C2.25867 73.2 2.31467 73.228 2.352 73.284L4.984 77.274C4.99333 77.2833 5.00733 77.288 5.026 77.288C5.04467 77.288 5.05867 77.2833 5.068 77.274L7.672 73.298ZM13.5778 75.804C14.4178 75.804 15.0665 76.0187 15.5238 76.448C15.9811 76.8773 16.2098 77.4467 16.2098 78.156V82.86C16.2098 82.9533 16.1631 83 16.0698 83H15.3558C15.2625 83 15.2158 82.9533 15.2158 82.86V82.286C15.2158 82.2673 15.2065 82.2533 15.1878 82.244C15.1785 82.2347 15.1645 82.2393 15.1458 82.258C14.9125 82.538 14.6091 82.7527 14.2358 82.902C13.8625 83.042 13.4471 83.112 12.9898 83.112C12.3271 83.112 11.7718 82.944 11.3238 82.608C10.8758 82.272 10.6518 81.7587 10.6518 81.068C10.6518 80.368 10.9038 79.8173 11.4078 79.416C11.9211 79.0053 12.6305 78.8 13.5358 78.8H15.1598C15.1971 78.8 15.2158 78.7813 15.2158 78.744V78.212C15.2158 77.736 15.0805 77.3627 14.8098 77.092C14.5485 76.812 14.1378 76.672 13.5778 76.672C13.1298 76.672 12.7658 76.7607 12.4858 76.938C12.2058 77.106 12.0331 77.344 11.9678 77.652C11.9398 77.7453 11.8838 77.7873 11.7998 77.778L11.0438 77.68C10.9411 77.6613 10.8991 77.624 10.9178 77.568C10.9925 77.0453 11.2725 76.6207 11.7578 76.294C12.2431 75.9673 12.8498 75.804 13.5778 75.804ZM13.1858 82.258C13.7365 82.258 14.2125 82.1227 14.6138 81.852C15.0151 81.572 15.2158 81.1987 15.2158 80.732V79.64C15.2158 79.6027 15.1971 79.584 15.1598 79.584H13.6898C13.0738 79.584 12.5791 79.71 12.2058 79.962C11.8325 80.214 11.6458 80.564 11.6458 81.012C11.6458 81.4227 11.7858 81.7353 12.0658 81.95C12.3551 82.1553 12.7285 82.258 13.1858 82.258ZM21.2182 75.818C21.9649 75.818 22.5575 76.0373 22.9962 76.476C23.4442 76.9147 23.6682 77.5027 23.6682 78.24V82.86C23.6682 82.9533 23.6215 83 23.5282 83H22.8142C22.7209 83 22.6742 82.9533 22.6742 82.86V78.436C22.6742 77.9227 22.5155 77.5027 22.1982 77.176C21.8902 76.8493 21.4889 76.686 20.9942 76.686C20.4809 76.686 20.0655 76.8447 19.7482 77.162C19.4309 77.4793 19.2722 77.8947 19.2722 78.408V82.86C19.2722 82.9533 19.2255 83 19.1322 83H18.4182C18.3249 83 18.2782 82.9533 18.2782 82.86V76.056C18.2782 75.9627 18.3249 75.916 18.4182 75.916H19.1322C19.2255 75.916 19.2722 75.9627 19.2722 76.056V76.658C19.2722 76.6767 19.2769 76.6907 19.2862 76.7C19.3049 76.7093 19.3189 76.7047 19.3282 76.686C19.7389 76.1073 20.3689 75.818 21.2182 75.818ZM28.4034 83.112C27.7314 83.112 27.1527 82.9393 26.6674 82.594C26.1914 82.2393 25.8647 81.7633 25.6874 81.166C25.566 80.7553 25.5054 80.1767 25.5054 79.43C25.5054 78.758 25.566 78.1887 25.6874 77.722C25.8554 77.1433 26.182 76.6813 26.6674 76.336C27.1527 75.9813 27.7314 75.804 28.4034 75.804C29.0847 75.804 29.6727 75.9767 30.1674 76.322C30.6714 76.6673 30.998 77.0967 31.1474 77.61C31.194 77.778 31.222 77.918 31.2314 78.03V78.058C31.2314 78.1233 31.1894 78.1653 31.1054 78.184L30.4054 78.282H30.3774C30.312 78.282 30.27 78.24 30.2514 78.156L30.2094 77.946C30.1254 77.5913 29.92 77.2927 29.5934 77.05C29.2667 76.798 28.87 76.672 28.4034 76.672C27.9367 76.672 27.5447 76.798 27.2274 77.05C26.9194 77.2927 26.7187 77.6193 26.6254 78.03C26.5414 78.3847 26.4994 78.856 26.4994 79.444C26.4994 80.06 26.5414 80.536 26.6254 80.872C26.7187 81.292 26.9194 81.628 27.2274 81.88C27.5447 82.1227 27.9367 82.244 28.4034 82.244C28.8607 82.244 29.2527 82.1273 29.5794 81.894C29.9154 81.6513 30.1254 81.3433 30.2094 80.97V80.914L30.2234 80.858C30.2327 80.7647 30.2887 80.7273 30.3914 80.746L31.0774 80.858C31.1707 80.8767 31.2127 80.928 31.2034 81.012L31.1474 81.292C31.0074 81.8333 30.6854 82.272 30.1814 82.608C29.6774 82.944 29.0847 83.112 28.4034 83.112ZM35.9428 75.818C36.6895 75.818 37.2821 76.0373 37.7208 76.476C38.1688 76.9147 38.3928 77.5027 38.3928 78.24V82.86C38.3928 82.9533 38.3461 83 38.2528 83H37.5388C37.4455 83 37.3988 82.9533 37.3988 82.86V78.436C37.3988 77.9227 37.2401 77.5027 36.9228 77.176C36.6148 76.8493 36.2135 76.686 35.7188 76.686C35.2055 76.686 34.7901 76.8447 34.4728 77.162C34.1555 77.4793 33.9968 77.8947 33.9968 78.408V82.86C33.9968 82.9533 33.9501 83 33.8568 83H33.1428C33.0495 83 33.0028 82.9533 33.0028 82.86V73.34C33.0028 73.2467 33.0495 73.2 33.1428 73.2H33.8568C33.9501 73.2 33.9968 73.2467 33.9968 73.34V76.658C33.9968 76.6767 34.0015 76.6907 34.0108 76.7C34.0295 76.7093 34.0435 76.7047 34.0528 76.686C34.4635 76.1073 35.0935 75.818 35.9428 75.818ZM45.886 78.268C45.9233 78.5293 45.942 78.856 45.942 79.248V79.696C45.942 79.7893 45.8953 79.836 45.802 79.836H41.28C41.2427 79.836 41.224 79.8547 41.224 79.892C41.2427 80.4053 41.2707 80.7367 41.308 80.886C41.4107 81.306 41.63 81.6373 41.966 81.88C42.302 82.1227 42.7313 82.244 43.254 82.244C43.646 82.244 43.9913 82.1553 44.29 81.978C44.5887 81.8007 44.822 81.5487 44.99 81.222C45.046 81.138 45.1113 81.1193 45.186 81.166L45.732 81.488C45.8067 81.5347 45.8253 81.6 45.788 81.684C45.5547 82.132 45.2047 82.4867 44.738 82.748C44.2713 83 43.7347 83.126 43.128 83.126C42.4653 83.1167 41.91 82.958 41.462 82.65C41.014 82.342 40.692 81.9127 40.496 81.362C40.328 80.914 40.244 80.27 40.244 79.43C40.244 79.038 40.2487 78.7207 40.258 78.478C40.2767 78.226 40.314 78.002 40.37 77.806C40.5287 77.1993 40.846 76.714 41.322 76.35C41.8073 75.986 42.3907 75.804 43.072 75.804C43.9213 75.804 44.5747 76.0187 45.032 76.448C45.4893 76.8773 45.774 77.484 45.886 78.268ZM43.072 76.672C42.6147 76.672 42.232 76.7933 41.924 77.036C41.6253 77.2693 41.4293 77.5867 41.336 77.988C41.28 78.184 41.2427 78.5013 41.224 78.94C41.224 78.9773 41.2427 78.996 41.28 78.996H44.906C44.9433 78.996 44.962 78.9773 44.962 78.94C44.9433 78.52 44.9153 78.2213 44.878 78.044C44.7753 77.624 44.5653 77.2927 44.248 77.05C43.94 76.798 43.548 76.672 43.072 76.672ZM50.1198 83.07C49.5971 83.07 49.1304 82.986 48.7198 82.818C48.3184 82.65 48.0058 82.426 47.7818 82.146C47.5671 81.866 47.4598 81.5533 47.4598 81.208V81.04C47.4598 80.9467 47.5064 80.9 47.5998 80.9H48.2718C48.3651 80.9 48.4118 80.9467 48.4118 81.04V81.152C48.4118 81.46 48.5704 81.7307 48.8878 81.964C49.2144 82.188 49.6204 82.3 50.1058 82.3C50.5911 82.3 50.9831 82.1927 51.2818 81.978C51.5804 81.754 51.7298 81.474 51.7298 81.138C51.7298 80.9047 51.6504 80.7133 51.4918 80.564C51.3424 80.4147 51.1604 80.298 50.9458 80.214C50.7404 80.13 50.4184 80.0227 49.9798 79.892C49.4571 79.7427 49.0278 79.5933 48.6918 79.444C48.3558 79.2947 48.0711 79.0893 47.8378 78.828C47.6138 78.5573 47.5018 78.2167 47.5018 77.806C47.5018 77.2087 47.7351 76.7327 48.2018 76.378C48.6684 76.0233 49.2844 75.846 50.0498 75.846C50.5631 75.846 51.0158 75.93 51.4078 76.098C51.8091 76.266 52.1171 76.4993 52.3318 76.798C52.5464 77.0873 52.6538 77.414 52.6538 77.778V77.82C52.6538 77.9133 52.6071 77.96 52.5138 77.96H51.8558C51.7624 77.96 51.7158 77.9133 51.7158 77.82V77.778C51.7158 77.4607 51.5618 77.1947 51.2538 76.98C50.9551 76.7653 50.5491 76.658 50.0358 76.658C49.5598 76.658 49.1771 76.756 48.8878 76.952C48.5984 77.1387 48.4538 77.4 48.4538 77.736C48.4538 78.0533 48.5938 78.296 48.8738 78.464C49.1538 78.632 49.5878 78.8 50.1758 78.968C50.7171 79.1267 51.1558 79.276 51.4918 79.416C51.8278 79.556 52.1171 79.7613 52.3598 80.032C52.6024 80.2933 52.7238 80.6387 52.7238 81.068C52.7238 81.6747 52.4858 82.16 52.0098 82.524C51.5338 82.888 50.9038 83.07 50.1198 83.07ZM57.7003 76.602C57.7003 76.6953 57.6537 76.742 57.5603 76.742H55.9783C55.941 76.742 55.9223 76.7607 55.9223 76.798V80.928C55.9223 81.376 56.0203 81.6933 56.2163 81.88C56.4217 82.0573 56.739 82.146 57.1683 82.146H57.5183C57.6117 82.146 57.6583 82.1927 57.6583 82.286V82.86C57.6583 82.9533 57.6117 83 57.5183 83C57.4063 83.0093 57.2337 83.014 57.0003 83.014C56.3283 83.014 55.8197 82.888 55.4743 82.636C55.129 82.384 54.9563 81.9173 54.9563 81.236V76.798C54.9563 76.7607 54.9377 76.742 54.9003 76.742H54.0463C53.953 76.742 53.9063 76.6953 53.9063 76.602V76.056C53.9063 75.9627 53.953 75.916 54.0463 75.916H54.9003C54.9377 75.916 54.9563 75.8973 54.9563 75.86V74.236C54.9563 74.1427 55.003 74.096 55.0963 74.096H55.7823C55.8757 74.096 55.9223 74.1427 55.9223 74.236V75.86C55.9223 75.8973 55.941 75.916 55.9783 75.916H57.5603C57.6537 75.916 57.7003 75.9627 57.7003 76.056V76.602ZM64.8489 78.268C64.8862 78.5293 64.9049 78.856 64.9049 79.248V79.696C64.9049 79.7893 64.8582 79.836 64.7649 79.836H60.2429C60.2055 79.836 60.1869 79.8547 60.1869 79.892C60.2055 80.4053 60.2335 80.7367 60.2709 80.886C60.3735 81.306 60.5929 81.6373 60.9289 81.88C61.2649 82.1227 61.6942 82.244 62.2169 82.244C62.6089 82.244 62.9542 82.1553 63.2529 81.978C63.5515 81.8007 63.7849 81.5487 63.9529 81.222C64.0089 81.138 64.0742 81.1193 64.1489 81.166L64.6949 81.488C64.7695 81.5347 64.7882 81.6 64.7509 81.684C64.5175 82.132 64.1675 82.4867 63.7009 82.748C63.2342 83 62.6975 83.126 62.0909 83.126C61.4282 83.1167 60.8729 82.958 60.4249 82.65C59.9769 82.342 59.6549 81.9127 59.4589 81.362C59.2909 80.914 59.2069 80.27 59.2069 79.43C59.2069 79.038 59.2115 78.7207 59.2209 78.478C59.2395 78.226 59.2769 78.002 59.3329 77.806C59.4915 77.1993 59.8089 76.714 60.2849 76.35C60.7702 75.986 61.3535 75.804 62.0349 75.804C62.8842 75.804 63.5375 76.0187 63.9949 76.448C64.4522 76.8773 64.7369 77.484 64.8489 78.268ZM62.0349 76.672C61.5775 76.672 61.1949 76.7933 60.8869 77.036C60.5882 77.2693 60.3922 77.5867 60.2989 77.988C60.2429 78.184 60.2055 78.5013 60.1869 78.94C60.1869 78.9773 60.2055 78.996 60.2429 78.996H63.8689C63.9062 78.996 63.9249 78.9773 63.9249 78.94C63.9062 78.52 63.8782 78.2213 63.8409 78.044C63.7382 77.624 63.5282 77.2927 63.2109 77.05C62.9029 76.798 62.5109 76.672 62.0349 76.672ZM69.7377 75.846C70.0457 75.846 70.3117 75.9067 70.5357 76.028C70.6104 76.0653 70.6384 76.126 70.6197 76.21L70.4657 76.896C70.4377 76.9893 70.3771 77.0173 70.2837 76.98C70.1251 76.9147 69.9431 76.882 69.7377 76.882L69.5557 76.896C69.0704 76.9147 68.6691 77.0967 68.3517 77.442C68.0344 77.778 67.8757 78.2073 67.8757 78.73V82.86C67.8757 82.9533 67.8291 83 67.7357 83H67.0217C66.9284 83 66.8817 82.9533 66.8817 82.86V76.056C66.8817 75.9627 66.9284 75.916 67.0217 75.916H67.7357C67.8291 75.916 67.8757 75.9627 67.8757 76.056V76.91C67.8757 76.938 67.8804 76.9567 67.8897 76.966C67.9084 76.966 67.9224 76.9567 67.9317 76.938C68.1277 76.5927 68.3751 76.3267 68.6737 76.14C68.9817 75.944 69.3364 75.846 69.7377 75.846ZM71.4468 84.106C71.4001 84.106 71.3628 84.092 71.3348 84.064C71.3161 84.036 71.3115 83.9987 71.3208 83.952L71.9368 80.956C71.9555 80.872 72.0068 80.83 72.0908 80.83H72.7068C72.7535 80.83 72.7861 80.844 72.8048 80.872C72.8328 80.9 72.8421 80.9373 72.8328 80.984L72.0488 83.98C72.0301 84.064 71.9788 84.106 71.8948 84.106H71.4468ZM78.333 83C78.2396 83 78.193 82.9533 78.193 82.86V73.34C78.193 73.2467 78.2396 73.2 78.333 73.2H79.047C79.1403 73.2 79.187 73.2467 79.187 73.34V78.086C79.187 78.1047 79.1963 78.1187 79.215 78.128C79.2336 78.1373 79.2476 78.1327 79.257 78.114L83.681 73.27C83.7183 73.2233 83.7743 73.2 83.849 73.2H84.661C84.717 73.2 84.7496 73.2187 84.759 73.256C84.7776 73.2933 84.7683 73.3307 84.731 73.368L81.301 77.246C81.2823 77.2647 81.2823 77.2927 81.301 77.33L85.025 82.832L85.053 82.902C85.053 82.9673 85.011 83 84.927 83H84.115C84.0403 83 83.9843 82.972 83.947 82.916L80.629 78.044C80.6196 78.0253 80.6056 78.016 80.587 78.016C80.5683 78.016 80.5543 78.0207 80.545 78.03L79.215 79.444C79.1963 79.4627 79.187 79.486 79.187 79.514V82.86C79.187 82.9533 79.1403 83 79.047 83H78.333ZM91.7825 78.268C91.8198 78.5293 91.8385 78.856 91.8385 79.248V79.696C91.8385 79.7893 91.7918 79.836 91.6985 79.836H87.1765C87.1391 79.836 87.1205 79.8547 87.1205 79.892C87.1391 80.4053 87.1671 80.7367 87.2045 80.886C87.3071 81.306 87.5265 81.6373 87.8625 81.88C88.1985 82.1227 88.6278 82.244 89.1505 82.244C89.5425 82.244 89.8878 82.1553 90.1865 81.978C90.4851 81.8007 90.7185 81.5487 90.8865 81.222C90.9425 81.138 91.0078 81.1193 91.0825 81.166L91.6285 81.488C91.7031 81.5347 91.7218 81.6 91.6845 81.684C91.4511 82.132 91.1011 82.4867 90.6345 82.748C90.1678 83 89.6311 83.126 89.0245 83.126C88.3618 83.1167 87.8065 82.958 87.3585 82.65C86.9105 82.342 86.5885 81.9127 86.3925 81.362C86.2245 80.914 86.1405 80.27 86.1405 79.43C86.1405 79.038 86.1451 78.7207 86.1545 78.478C86.1731 78.226 86.2105 78.002 86.2665 77.806C86.4251 77.1993 86.7425 76.714 87.2185 76.35C87.7038 75.986 88.2871 75.804 88.9685 75.804C89.8178 75.804 90.4711 76.0187 90.9285 76.448C91.3858 76.8773 91.6705 77.484 91.7825 78.268ZM88.9685 76.672C88.5111 76.672 88.1285 76.7933 87.8205 77.036C87.5218 77.2693 87.3258 77.5867 87.2325 77.988C87.1765 78.184 87.1391 78.5013 87.1205 78.94C87.1205 78.9773 87.1391 78.996 87.1765 78.996H90.8025C90.8398 78.996 90.8585 78.9773 90.8585 78.94C90.8398 78.52 90.8118 78.2213 90.7745 78.044C90.6718 77.624 90.4618 77.2927 90.1445 77.05C89.8365 76.798 89.4445 76.672 88.9685 76.672ZM96.7553 75.818C97.502 75.818 98.0946 76.0373 98.5333 76.476C98.9813 76.9147 99.2053 77.5027 99.2053 78.24V82.86C99.2053 82.9533 99.1586 83 99.0653 83H98.3513C98.258 83 98.2113 82.9533 98.2113 82.86V78.436C98.2113 77.9227 98.0526 77.5027 97.7353 77.176C97.4273 76.8493 97.026 76.686 96.5313 76.686C96.018 76.686 95.6026 76.8447 95.2853 77.162C94.968 77.4793 94.8093 77.8947 94.8093 78.408V82.86C94.8093 82.9533 94.7626 83 94.6693 83H93.9553C93.862 83 93.8153 82.9533 93.8153 82.86V76.056C93.8153 75.9627 93.862 75.916 93.9553 75.916H94.6693C94.7626 75.916 94.8093 75.9627 94.8093 76.056V76.658C94.8093 76.6767 94.814 76.6907 94.8233 76.7C94.842 76.7093 94.856 76.7047 94.8653 76.686C95.276 76.1073 95.906 75.818 96.7553 75.818ZM104.54 76.602C104.54 76.6953 104.494 76.742 104.4 76.742H102.818C102.781 76.742 102.762 76.7607 102.762 76.798V80.928C102.762 81.376 102.86 81.6933 103.056 81.88C103.262 82.0573 103.579 82.146 104.008 82.146H104.358C104.452 82.146 104.498 82.1927 104.498 82.286V82.86C104.498 82.9533 104.452 83 104.358 83C104.246 83.0093 104.074 83.014 103.84 83.014C103.168 83.014 102.66 82.888 102.314 82.636C101.969 82.384 101.796 81.9173 101.796 81.236V76.798C101.796 76.7607 101.778 76.742 101.74 76.742H100.886C100.793 76.742 100.746 76.6953 100.746 76.602V76.056C100.746 75.9627 100.793 75.916 100.886 75.916H101.74C101.778 75.916 101.796 75.8973 101.796 75.86V74.236C101.796 74.1427 101.843 74.096 101.936 74.096H102.622C102.716 74.096 102.762 74.1427 102.762 74.236V75.86C102.762 75.8973 102.781 75.916 102.818 75.916H104.4C104.494 75.916 104.54 75.9627 104.54 76.056V76.602ZM110.746 76.056C110.746 75.9627 110.792 75.916 110.886 75.916H111.6C111.693 75.916 111.74 75.9627 111.74 76.056V82.86C111.74 82.9533 111.693 83 111.6 83H110.886C110.792 83 110.746 82.9533 110.746 82.86V82.258C110.746 82.2393 110.736 82.2253 110.718 82.216C110.699 82.2067 110.685 82.2113 110.676 82.23C110.284 82.8087 109.663 83.098 108.814 83.098C108.366 83.098 107.95 83.0093 107.568 82.832C107.194 82.6453 106.896 82.3793 106.672 82.034C106.457 81.6887 106.35 81.2733 106.35 80.788V76.056C106.35 75.9627 106.396 75.916 106.49 75.916H107.204C107.297 75.916 107.344 75.9627 107.344 76.056V80.494C107.344 81.026 107.493 81.4507 107.792 81.768C108.09 82.076 108.496 82.23 109.01 82.23C109.542 82.23 109.962 82.0713 110.27 81.754C110.587 81.4367 110.746 81.0167 110.746 80.494V76.056ZM116.642 83.112C115.97 83.112 115.391 82.9393 114.906 82.594C114.43 82.2393 114.103 81.7633 113.926 81.166C113.804 80.7553 113.744 80.1767 113.744 79.43C113.744 78.758 113.804 78.1887 113.926 77.722C114.094 77.1433 114.42 76.6813 114.906 76.336C115.391 75.9813 115.97 75.804 116.642 75.804C117.323 75.804 117.911 75.9767 118.406 76.322C118.91 76.6673 119.236 77.0967 119.386 77.61C119.432 77.778 119.46 77.918 119.47 78.03V78.058C119.47 78.1233 119.428 78.1653 119.344 78.184L118.644 78.282H118.616C118.55 78.282 118.508 78.24 118.49 78.156L118.448 77.946C118.364 77.5913 118.158 77.2927 117.832 77.05C117.505 76.798 117.108 76.672 116.642 76.672C116.175 76.672 115.783 76.798 115.466 77.05C115.158 77.2927 114.957 77.6193 114.864 78.03C114.78 78.3847 114.738 78.856 114.738 79.444C114.738 80.06 114.78 80.536 114.864 80.872C114.957 81.292 115.158 81.628 115.466 81.88C115.783 82.1227 116.175 82.244 116.642 82.244C117.099 82.244 117.491 82.1273 117.818 81.894C118.154 81.6513 118.364 81.3433 118.448 80.97V80.914L118.462 80.858C118.471 80.7647 118.527 80.7273 118.63 80.746L119.316 80.858C119.409 80.8767 119.451 80.928 119.442 81.012L119.386 81.292C119.246 81.8333 118.924 82.272 118.42 82.608C117.916 82.944 117.323 83.112 116.642 83.112ZM121.381 83C121.288 83 121.241 82.9533 121.241 82.86V73.34C121.241 73.2467 121.288 73.2 121.381 73.2H122.095C122.188 73.2 122.235 73.2467 122.235 73.34V79.066C122.235 79.0847 122.24 79.0987 122.249 79.108C122.268 79.1173 122.286 79.1127 122.305 79.094L125.273 75.986C125.32 75.9393 125.376 75.916 125.441 75.916H126.281C126.337 75.916 126.374 75.9347 126.393 75.972C126.412 76.0093 126.402 76.0467 126.365 76.084L124.573 78.072C124.554 78.0907 124.55 78.114 124.559 78.142L126.701 82.832L126.715 82.888C126.715 82.9627 126.673 83 126.589 83H125.833C125.758 83 125.707 82.9627 125.679 82.888L123.873 78.8C123.854 78.7627 123.831 78.758 123.803 78.786L122.263 80.41C122.244 80.4287 122.235 80.452 122.235 80.48V82.86C122.235 82.9533 122.188 83 122.095 83H121.381ZM127.933 85.8C127.867 85.8 127.835 85.7533 127.835 85.66V85.1C127.835 85.0067 127.881 84.96 127.975 84.96H128.031C128.395 84.9507 128.675 84.8947 128.871 84.792C129.076 84.6987 129.249 84.5167 129.389 84.246C129.538 83.9847 129.697 83.5833 129.865 83.042C129.883 83.0047 129.883 82.9767 129.865 82.958L127.499 76.07L127.485 76.014C127.485 75.9487 127.527 75.916 127.611 75.916H128.353C128.437 75.916 128.493 75.9533 128.521 76.028L130.341 81.684C130.35 81.7027 130.364 81.712 130.383 81.712C130.401 81.712 130.415 81.7027 130.425 81.684L132.217 76.028C132.245 75.9533 132.301 75.916 132.385 75.916H133.113C133.215 75.916 133.253 75.9673 133.225 76.07L130.635 83.616C130.411 84.2413 130.201 84.7033 130.005 85.002C129.809 85.3007 129.561 85.506 129.263 85.618C128.973 85.7393 128.563 85.8 128.031 85.8H127.933ZM142.411 78.366C142.597 78.8233 142.691 79.3693 142.691 80.004C142.691 80.5173 142.621 80.97 142.481 81.362C142.294 81.922 141.977 82.356 141.529 82.664C141.09 82.9627 140.544 83.112 139.891 83.112C139.237 83.112 138.677 82.944 138.211 82.608C137.744 82.2627 137.422 81.8007 137.245 81.222C137.161 80.9607 137.109 80.606 137.091 80.158C137.091 80.0647 137.137 80.018 137.231 80.018H137.945C138.038 80.018 138.085 80.0647 138.085 80.158C138.103 80.4287 138.136 80.6807 138.183 80.914C138.285 81.3247 138.481 81.6513 138.771 81.894C139.069 82.1273 139.438 82.244 139.877 82.244C140.717 82.244 141.263 81.8707 141.515 81.124C141.627 80.816 141.683 80.4333 141.683 79.976C141.683 79.416 141.608 78.9587 141.459 78.604C141.16 77.932 140.633 77.596 139.877 77.596C139.737 77.596 139.564 77.6473 139.359 77.75C139.321 77.7687 139.293 77.778 139.275 77.778C139.237 77.778 139.205 77.7547 139.177 77.708L138.813 77.218C138.766 77.1433 138.771 77.078 138.827 77.022L141.291 74.138C141.319 74.0913 141.309 74.068 141.263 74.068H137.315C137.221 74.068 137.175 74.0213 137.175 73.928V73.34C137.175 73.2467 137.221 73.2 137.315 73.2H142.495C142.588 73.2 142.635 73.2467 142.635 73.34V74.026C142.635 74.0727 142.611 74.1287 142.565 74.194L140.325 76.882C140.306 76.9007 140.301 76.9193 140.311 76.938C140.32 76.9473 140.339 76.952 140.367 76.952C141.365 77.0173 142.047 77.4887 142.411 78.366ZM149.812 74.922C149.924 75.2953 149.98 75.734 149.98 76.238V80.606C149.98 81.3713 149.728 81.9827 149.224 82.44C148.72 82.888 148.062 83.112 147.25 83.112C146.466 83.112 145.826 82.8927 145.332 82.454C144.846 82.006 144.604 81.4273 144.604 80.718V80.522C144.604 80.4287 144.65 80.382 144.744 80.382H145.458C145.551 80.382 145.598 80.4287 145.598 80.522V80.634C145.598 81.11 145.752 81.4973 146.06 81.796C146.368 82.0947 146.764 82.244 147.25 82.244C147.754 82.244 148.169 82.09 148.496 81.782C148.822 81.4647 148.986 81.0493 148.986 80.536V78.492C148.986 78.4733 148.976 78.464 148.958 78.464C148.939 78.4547 148.925 78.4593 148.916 78.478C148.505 79.0287 147.889 79.304 147.068 79.304C146.48 79.304 145.985 79.1733 145.584 78.912C145.192 78.6507 144.893 78.282 144.688 77.806C144.492 77.414 144.394 76.882 144.394 76.21C144.394 75.6407 144.464 75.174 144.604 74.81C144.8 74.2687 145.112 73.8487 145.542 73.55C145.98 73.2513 146.517 73.102 147.152 73.102C147.824 73.102 148.388 73.2653 148.846 73.592C149.312 73.9093 149.634 74.3527 149.812 74.922ZM147.194 78.436C147.604 78.436 147.95 78.338 148.23 78.142C148.519 77.9367 148.72 77.6567 148.832 77.302C148.934 77.0313 148.986 76.6533 148.986 76.168C148.986 75.7667 148.944 75.426 148.86 75.146C148.748 74.7913 148.547 74.5067 148.258 74.292C147.968 74.0773 147.614 73.97 147.194 73.97C146.792 73.97 146.447 74.0727 146.158 74.278C145.868 74.474 145.663 74.7633 145.542 75.146C145.439 75.4073 145.388 75.762 145.388 76.21C145.388 76.686 145.448 77.0593 145.57 77.33C145.682 77.666 145.878 77.9367 146.158 78.142C146.438 78.338 146.783 78.436 147.194 78.436ZM157.616 79.402C157.71 79.402 157.756 79.4487 157.756 79.542V80.158C157.756 80.2513 157.71 80.298 157.616 80.298H157.014C156.977 80.298 156.958 80.3167 156.958 80.354V82.86C156.958 82.9533 156.912 83 156.818 83H156.104C156.011 83 155.964 82.9533 155.964 82.86V80.354C155.964 80.3167 155.946 80.298 155.908 80.298H151.722C151.629 80.298 151.582 80.2513 151.582 80.158V79.64C151.582 79.5933 151.596 79.5373 151.624 79.472L154.494 73.298C154.522 73.2327 154.574 73.2 154.648 73.2H155.39C155.437 73.2 155.47 73.2187 155.488 73.256C155.516 73.284 155.521 73.3213 155.502 73.368L152.716 79.332C152.707 79.3507 152.707 79.3693 152.716 79.388C152.726 79.3973 152.74 79.402 152.758 79.402H155.908C155.946 79.402 155.964 79.3833 155.964 79.346V77.092C155.964 76.9987 156.011 76.952 156.104 76.952H156.818C156.912 76.952 156.958 76.9987 156.958 77.092V79.346C156.958 79.3833 156.977 79.402 157.014 79.402H157.616ZM164.823 74.922C164.935 75.2953 164.991 75.734 164.991 76.238V80.606C164.991 81.3713 164.739 81.9827 164.235 82.44C163.731 82.888 163.073 83.112 162.261 83.112C161.477 83.112 160.838 82.8927 160.343 82.454C159.858 82.006 159.615 81.4273 159.615 80.718V80.522C159.615 80.4287 159.662 80.382 159.755 80.382H160.469C160.563 80.382 160.609 80.4287 160.609 80.522V80.634C160.609 81.11 160.763 81.4973 161.071 81.796C161.379 82.0947 161.776 82.244 162.261 82.244C162.765 82.244 163.181 82.09 163.507 81.782C163.834 81.4647 163.997 81.0493 163.997 80.536V78.492C163.997 78.4733 163.988 78.464 163.969 78.464C163.951 78.4547 163.937 78.4593 163.927 78.478C163.517 79.0287 162.901 79.304 162.079 79.304C161.491 79.304 160.997 79.1733 160.595 78.912C160.203 78.6507 159.905 78.282 159.699 77.806C159.503 77.414 159.405 76.882 159.405 76.21C159.405 75.6407 159.475 75.174 159.615 74.81C159.811 74.2687 160.124 73.8487 160.553 73.55C160.992 73.2513 161.529 73.102 162.163 73.102C162.835 73.102 163.4 73.2653 163.857 73.592C164.324 73.9093 164.646 74.3527 164.823 74.922ZM162.205 78.436C162.616 78.436 162.961 78.338 163.241 78.142C163.531 77.9367 163.731 77.6567 163.843 77.302C163.946 77.0313 163.997 76.6533 163.997 76.168C163.997 75.7667 163.955 75.426 163.871 75.146C163.759 74.7913 163.559 74.5067 163.269 74.292C162.98 74.0773 162.625 73.97 162.205 73.97C161.804 73.97 161.459 74.0727 161.169 74.278C160.88 74.474 160.675 74.7633 160.553 75.146C160.451 75.4073 160.399 75.762 160.399 76.21C160.399 76.686 160.46 77.0593 160.581 77.33C160.693 77.666 160.889 77.9367 161.169 78.142C161.449 78.338 161.795 78.436 162.205 78.436ZM172.278 78.716C172.362 79.1267 172.404 79.5467 172.404 79.976C172.404 80.4333 172.362 80.8253 172.278 81.152C172.12 81.7493 171.802 82.2253 171.326 82.58C170.85 82.9253 170.276 83.098 169.604 83.098C168.942 83.098 168.377 82.93 167.91 82.594C167.444 82.258 167.126 81.81 166.958 81.25C166.893 81.0447 166.851 80.8393 166.832 80.634V80.606C166.832 80.5313 166.874 80.494 166.958 80.494H167.7C167.794 80.494 167.845 80.5407 167.854 80.634C167.854 80.69 167.873 80.7833 167.91 80.914C168.004 81.3153 168.195 81.6373 168.484 81.88C168.783 82.1133 169.152 82.23 169.59 82.23C170.038 82.23 170.412 82.104 170.71 81.852C171.018 81.6 171.219 81.2547 171.312 80.816C171.368 80.6013 171.396 80.3213 171.396 79.976C171.396 79.6587 171.373 79.3553 171.326 79.066C171.261 78.6367 171.074 78.31 170.766 78.086C170.458 77.862 170.076 77.75 169.618 77.75C169.208 77.75 168.839 77.8433 168.512 78.03C168.186 78.2167 167.976 78.464 167.882 78.772C167.854 78.856 167.803 78.898 167.728 78.898H166.972C166.879 78.898 166.832 78.8513 166.832 78.758V73.34C166.832 73.2467 166.879 73.2 166.972 73.2H171.872C171.966 73.2 172.012 73.2467 172.012 73.34V73.928C172.012 74.0213 171.966 74.068 171.872 74.068H167.882C167.845 74.068 167.826 74.0867 167.826 74.124L167.812 77.512C167.812 77.5307 167.817 77.5447 167.826 77.554C167.845 77.5633 167.864 77.5587 167.882 77.54C168.116 77.3253 168.391 77.162 168.708 77.05C169.026 76.9287 169.362 76.868 169.716 76.868C170.379 76.868 170.939 77.0313 171.396 77.358C171.854 77.6753 172.148 78.128 172.278 78.716Z" fill="#112B3C"/>
<path d="M22 121.19C22 124.83 19.83 127 16.19 127H15C14.45 127 14 126.55 14 126V120.23C14 119.96 14.22 119.73 14.49 119.73L16.25 119.7C16.39 119.69 16.51 119.59 16.54 119.45L16.89 117.54C16.92 117.36 16.78 117.19 16.59 117.19L14.46 117.22C14.18 117.22 13.96 117 13.95 116.73L13.91 114.28C13.91 114.12 14.04 113.98 14.21 113.98L16.61 113.94C16.78 113.94 16.91 113.81 16.91 113.64L16.87 111.24C16.87 111.07 16.74 110.94 16.57 110.94L13.87 110.98C12.21 111.01 10.89 112.37 10.92 114.03L10.97 116.78C10.98 117.06 10.76 117.28 10.48 117.29L9.28 117.31C9.11 117.31 8.98001 117.44 8.98001 117.61L9.01001 119.51C9.01001 119.68 9.14 119.81 9.31 119.81L10.51 119.79C10.79 119.79 11.01 120.01 11.02 120.28L11.11 125.98C11.12 126.54 10.67 127 10.11 127H7.81C4.17 127 2 124.83 2 121.18V112.81C2 109.17 4.17 107 7.81 107H16.19C19.83 107 22 109.17 22 112.81V121.19Z" fill="#E61C5D"/>
<path d="M52.19 107H43.81C40.17 107 38 109.17 38 112.81V121.18C38 124.83 40.17 127 43.81 127H52.18C55.82 127 57.99 124.83 57.99 121.19V112.81C58 109.17 55.83 107 52.19 107ZM48 120.88C45.86 120.88 44.12 119.14 44.12 117C44.12 114.86 45.86 113.12 48 113.12C50.14 113.12 51.88 114.86 51.88 117C51.88 119.14 50.14 120.88 48 120.88ZM53.92 111.88C53.87 112 53.8 112.11 53.71 112.21C53.61 112.3 53.5 112.37 53.38 112.42C53.26 112.47 53.13 112.5 53 112.5C52.73 112.5 52.48 112.4 52.29 112.21C52.2 112.11 52.13 112 52.08 111.88C52.03 111.76 52 111.63 52 111.5C52 111.37 52.03 111.24 52.08 111.12C52.13 110.99 52.2 110.89 52.29 110.79C52.52 110.56 52.87 110.45 53.19 110.52C53.26 110.53 53.32 110.55 53.38 110.58C53.44 110.6 53.5 110.63 53.56 110.67C53.61 110.7 53.66 110.75 53.71 110.79C53.8 110.89 53.87 110.99 53.92 111.12C53.97 111.24 54 111.37 54 111.5C54 111.63 53.97 111.76 53.92 111.88Z" fill="#E61C5D"/>
<path d="M89 109H79C76 109 74 111 74 114V120C74 123 76 125 79 125H89C92 125 94 123 94 120V114C94 111 92 109 89 109ZM85.89 118.03L83.42 119.51C82.42 120.11 81.6 119.65 81.6 118.48V115.51C81.6 114.34 82.42 113.88 83.42 114.48L85.89 115.96C86.84 116.54 86.84 117.46 85.89 118.03Z" fill="#E61C5D"/>
</svg>
