<svg width="350" height="201" viewBox="0 0 350 201" fill="none" xmlns="http://www.w3.org/2000/svg">
<path d="M48.8096 5.616C48.8096 5.556 48.8276 5.508 48.8636 5.472C48.9116 5.424 48.9656 5.4 49.0256 5.4H51.1316C51.1916 5.4 51.2396 5.424 51.2756 5.472C51.3236 5.508 51.3476 5.556 51.3476 5.616V17.784C51.3476 17.844 51.3236 17.898 51.2756 17.946C51.2396 17.982 51.1916 18 51.1316 18H49.0976C48.9776 18 48.8936 17.952 48.8456 17.856L44.1836 10.152C44.1596 10.116 44.1356 10.104 44.1116 10.116C44.0876 10.116 44.0756 10.14 44.0756 10.188L44.1116 17.784C44.1116 17.844 44.0876 17.898 44.0396 17.946C44.0036 17.982 43.9556 18 43.8956 18H41.7896C41.7296 18 41.6756 17.982 41.6276 17.946C41.5916 17.898 41.5736 17.844 41.5736 17.784V5.616C41.5736 5.556 41.5916 5.508 41.6276 5.472C41.6756 5.424 41.7296 5.4 41.7896 5.4H43.8236C43.9436 5.4 44.0276 5.448 44.0756 5.544L48.7196 13.212C48.7436 13.248 48.7676 13.266 48.7916 13.266C48.8156 13.254 48.8276 13.224 48.8276 13.176L48.8096 5.616ZM61.5723 12.42C61.6443 12.876 61.6683 13.386 61.6443 13.95C61.6323 14.094 61.5543 14.166 61.4103 14.166H55.8483C55.7763 14.166 55.7523 14.196 55.7763 14.256C55.8123 14.496 55.8783 14.736 55.9743 14.976C56.2863 15.648 56.9223 15.984 57.8823 15.984C58.6503 15.972 59.2563 15.66 59.7003 15.048C59.7483 14.976 59.8023 14.94 59.8623 14.94C59.8983 14.94 59.9403 14.964 59.9883 15.012L61.2843 16.29C61.3443 16.35 61.3743 16.404 61.3743 16.452C61.3743 16.476 61.3503 16.524 61.3023 16.596C60.9063 17.088 60.3963 17.472 59.7723 17.748C59.1483 18.012 58.4643 18.144 57.7203 18.144C56.6883 18.144 55.8123 17.91 55.0923 17.442C54.3843 16.974 53.8743 16.32 53.5623 15.48C53.3103 14.88 53.1843 14.094 53.1843 13.122C53.1843 12.462 53.2743 11.88 53.4543 11.376C53.7303 10.524 54.2103 9.846 54.8943 9.342C55.5903 8.838 56.4123 8.586 57.3603 8.586C58.5603 8.586 59.5203 8.934 60.2403 9.63C60.9723 10.326 61.4163 11.256 61.5723 12.42ZM57.3783 10.782C56.6223 10.782 56.1243 11.136 55.8843 11.844C55.8363 12 55.7943 12.192 55.7583 12.42C55.7583 12.48 55.7883 12.51 55.8483 12.51H58.9623C59.0343 12.51 59.0583 12.48 59.0343 12.42C58.9743 12.072 58.9443 11.904 58.9443 11.916C58.8363 11.556 58.6443 11.28 58.3683 11.088C58.1043 10.884 57.7743 10.782 57.3783 10.782ZM65.0027 18C64.8707 18 64.7867 17.94 64.7507 17.82L62.1587 8.982L62.1407 8.91C62.1407 8.79 62.2067 8.73 62.3387 8.73H64.5167C64.6487 8.73 64.7327 8.79 64.7687 8.91L66.0647 14.346C66.0767 14.382 66.0947 14.4 66.1187 14.4C66.1427 14.4 66.1607 14.382 66.1727 14.346L67.5227 8.91C67.5587 8.79 67.6427 8.73 67.7747 8.73H69.6647C69.7967 8.73 69.8807 8.79 69.9167 8.91L71.3387 14.364C71.3507 14.4 71.3687 14.418 71.3927 14.418C71.4167 14.418 71.4347 14.4 71.4467 14.364L72.8507 8.91C72.8867 8.79 72.9707 8.73 73.1027 8.73L75.2627 8.766C75.3347 8.766 75.3827 8.79 75.4067 8.838C75.4427 8.874 75.4547 8.928 75.4427 9L72.8147 17.82C72.7787 17.94 72.7007 18 72.5807 18H70.4027C70.2707 18 70.1867 17.94 70.1507 17.82L68.7647 12.996C68.7527 12.96 68.7347 12.942 68.7107 12.942C68.6867 12.942 68.6687 12.96 68.6567 12.996L67.4327 17.82C67.3967 17.94 67.3127 18 67.1807 18H65.0027ZM79.836 18.126C79.032 18.126 78.33 18.012 77.73 17.784C77.13 17.556 76.662 17.238 76.326 16.83C76.002 16.422 75.84 15.96 75.84 15.444V15.264C75.84 15.204 75.858 15.156 75.894 15.12C75.942 15.072 75.996 15.048 76.056 15.048H78.054C78.114 15.048 78.162 15.072 78.198 15.12C78.246 15.156 78.27 15.204 78.27 15.264V15.282C78.27 15.546 78.414 15.774 78.702 15.966C79.002 16.146 79.374 16.236 79.818 16.236C80.226 16.236 80.556 16.158 80.808 16.002C81.06 15.834 81.186 15.63 81.186 15.39C81.186 15.174 81.078 15.012 80.862 14.904C80.646 14.796 80.292 14.682 79.8 14.562C79.236 14.418 78.792 14.28 78.468 14.148C77.7 13.884 77.088 13.56 76.632 13.176C76.176 12.792 75.948 12.24 75.948 11.52C75.948 10.632 76.29 9.93 76.974 9.414C77.67 8.886 78.588 8.622 79.728 8.622C80.496 8.622 81.168 8.748 81.744 9C82.32 9.24 82.764 9.582 83.076 10.026C83.4 10.47 83.562 10.974 83.562 11.538C83.562 11.598 83.538 11.652 83.49 11.7C83.454 11.736 83.406 11.754 83.346 11.754H81.42C81.36 11.754 81.306 11.736 81.258 11.7C81.222 11.652 81.204 11.598 81.204 11.538C81.204 11.274 81.066 11.052 80.79 10.872C80.526 10.692 80.172 10.602 79.728 10.602C79.332 10.602 79.008 10.674 78.756 10.818C78.504 10.962 78.378 11.16 78.378 11.412C78.378 11.652 78.498 11.832 78.738 11.952C78.99 12.072 79.404 12.198 79.98 12.33C80.112 12.366 80.262 12.408 80.43 12.456C80.598 12.492 80.778 12.54 80.97 12.6C81.822 12.852 82.494 13.176 82.986 13.572C83.478 13.968 83.724 14.544 83.724 15.3C83.724 16.188 83.37 16.884 82.662 17.388C81.966 17.88 81.024 18.126 79.836 18.126ZM85.3971 18C85.3371 18 85.2831 17.982 85.2351 17.946C85.1991 17.898 85.1811 17.844 85.1811 17.784V5.616C85.1811 5.556 85.1991 5.508 85.2351 5.472C85.2831 5.424 85.3371 5.4 85.3971 5.4H87.5031C87.5631 5.4 87.6111 5.424 87.6471 5.472C87.6951 5.508 87.7191 5.556 87.7191 5.616V17.784C87.7191 17.844 87.6951 17.898 87.6471 17.946C87.6111 17.982 87.5631 18 87.5031 18H85.3971ZM97.7656 12.42C97.8376 12.876 97.8616 13.386 97.8376 13.95C97.8256 14.094 97.7476 14.166 97.6036 14.166H92.0416C91.9696 14.166 91.9456 14.196 91.9696 14.256C92.0056 14.496 92.0716 14.736 92.1676 14.976C92.4796 15.648 93.1156 15.984 94.0756 15.984C94.8436 15.972 95.4496 15.66 95.8936 15.048C95.9416 14.976 95.9956 14.94 96.0556 14.94C96.0916 14.94 96.1336 14.964 96.1816 15.012L97.4776 16.29C97.5376 16.35 97.5676 16.404 97.5676 16.452C97.5676 16.476 97.5436 16.524 97.4956 16.596C97.0996 17.088 96.5896 17.472 95.9656 17.748C95.3416 18.012 94.6576 18.144 93.9136 18.144C92.8816 18.144 92.0056 17.91 91.2856 17.442C90.5776 16.974 90.0676 16.32 89.7556 15.48C89.5036 14.88 89.3776 14.094 89.3776 13.122C89.3776 12.462 89.4676 11.88 89.6476 11.376C89.9236 10.524 90.4036 9.846 91.0876 9.342C91.7836 8.838 92.6056 8.586 93.5536 8.586C94.7536 8.586 95.7136 8.934 96.4336 9.63C97.1656 10.326 97.6096 11.256 97.7656 12.42ZM93.5716 10.782C92.8156 10.782 92.3176 11.136 92.0776 11.844C92.0296 12 91.9876 12.192 91.9516 12.42C91.9516 12.48 91.9816 12.51 92.0416 12.51H95.1556C95.2276 12.51 95.2516 12.48 95.2276 12.42C95.1676 12.072 95.1376 11.904 95.1376 11.916C95.0296 11.556 94.8376 11.28 94.5616 11.088C94.2976 10.884 93.9676 10.782 93.5716 10.782ZM104.501 10.566C104.501 10.626 104.477 10.68 104.429 10.728C104.393 10.764 104.345 10.782 104.285 10.782H102.557C102.497 10.782 102.467 10.812 102.467 10.872V14.688C102.467 15.084 102.545 15.378 102.701 15.57C102.869 15.762 103.133 15.858 103.493 15.858H104.087C104.147 15.858 104.195 15.882 104.231 15.93C104.279 15.966 104.303 16.014 104.303 16.074V17.784C104.303 17.916 104.231 17.994 104.087 18.018C103.583 18.042 103.223 18.054 103.007 18.054C102.011 18.054 101.267 17.892 100.775 17.568C100.283 17.232 100.031 16.608 100.019 15.696V10.872C100.019 10.812 99.9889 10.782 99.9289 10.782H98.9029C98.8429 10.782 98.7889 10.764 98.7409 10.728C98.7049 10.68 98.6869 10.626 98.6869 10.566V8.964C98.6869 8.904 98.7049 8.856 98.7409 8.82C98.7889 8.772 98.8429 8.748 98.9029 8.748H99.9289C99.9889 8.748 100.019 8.718 100.019 8.658V6.516C100.019 6.456 100.037 6.408 100.073 6.372C100.121 6.324 100.175 6.3 100.235 6.3H102.251C102.311 6.3 102.359 6.324 102.395 6.372C102.443 6.408 102.467 6.456 102.467 6.516V8.658C102.467 8.718 102.497 8.748 102.557 8.748H104.285C104.345 8.748 104.393 8.772 104.429 8.82C104.477 8.856 104.501 8.904 104.501 8.964V10.566ZM111.339 10.566C111.339 10.626 111.315 10.68 111.267 10.728C111.231 10.764 111.183 10.782 111.123 10.782H109.395C109.335 10.782 109.305 10.812 109.305 10.872V14.688C109.305 15.084 109.383 15.378 109.539 15.57C109.707 15.762 109.971 15.858 110.331 15.858H110.925C110.985 15.858 111.033 15.882 111.069 15.93C111.117 15.966 111.141 16.014 111.141 16.074V17.784C111.141 17.916 111.069 17.994 110.925 18.018C110.421 18.042 110.061 18.054 109.845 18.054C108.849 18.054 108.105 17.892 107.613 17.568C107.121 17.232 106.869 16.608 106.857 15.696V10.872C106.857 10.812 106.827 10.782 106.767 10.782H105.741C105.681 10.782 105.627 10.764 105.579 10.728C105.543 10.68 105.525 10.626 105.525 10.566V8.964C105.525 8.904 105.543 8.856 105.579 8.82C105.627 8.772 105.681 8.748 105.741 8.748H106.767C106.827 8.748 106.857 8.718 106.857 8.658V6.516C106.857 6.456 106.875 6.408 106.911 6.372C106.959 6.324 107.013 6.3 107.073 6.3H109.089C109.149 6.3 109.197 6.324 109.233 6.372C109.281 6.408 109.305 6.456 109.305 6.516V8.658C109.305 8.718 109.335 8.748 109.395 8.748H111.123C111.183 8.748 111.231 8.772 111.267 8.82C111.315 8.856 111.339 8.904 111.339 8.964V10.566ZM120.934 12.42C121.006 12.876 121.03 13.386 121.006 13.95C120.994 14.094 120.916 14.166 120.772 14.166H115.21C115.138 14.166 115.114 14.196 115.138 14.256C115.174 14.496 115.24 14.736 115.336 14.976C115.648 15.648 116.284 15.984 117.244 15.984C118.012 15.972 118.618 15.66 119.062 15.048C119.11 14.976 119.164 14.94 119.224 14.94C119.26 14.94 119.302 14.964 119.35 15.012L120.646 16.29C120.706 16.35 120.736 16.404 120.736 16.452C120.736 16.476 120.712 16.524 120.664 16.596C120.268 17.088 119.758 17.472 119.134 17.748C118.51 18.012 117.826 18.144 117.082 18.144C116.05 18.144 115.174 17.91 114.454 17.442C113.746 16.974 113.236 16.32 112.924 15.48C112.672 14.88 112.546 14.094 112.546 13.122C112.546 12.462 112.636 11.88 112.816 11.376C113.092 10.524 113.572 9.846 114.256 9.342C114.952 8.838 115.774 8.586 116.722 8.586C117.922 8.586 118.882 8.934 119.602 9.63C120.334 10.326 120.778 11.256 120.934 12.42ZM116.74 10.782C115.984 10.782 115.486 11.136 115.246 11.844C115.198 12 115.156 12.192 115.12 12.42C115.12 12.48 115.15 12.51 115.21 12.51H118.324C118.396 12.51 118.42 12.48 118.396 12.42C118.336 12.072 118.306 11.904 118.306 11.916C118.198 11.556 118.006 11.28 117.73 11.088C117.466 10.884 117.136 10.782 116.74 10.782ZM127.178 8.622C127.61 8.622 127.952 8.706 128.204 8.874C128.3 8.922 128.336 9.012 128.312 9.144L127.934 11.196C127.922 11.34 127.838 11.382 127.682 11.322C127.502 11.262 127.292 11.232 127.052 11.232C126.956 11.232 126.824 11.244 126.656 11.268C126.224 11.304 125.858 11.466 125.558 11.754C125.258 12.03 125.108 12.402 125.108 12.87V17.784C125.108 17.844 125.084 17.898 125.036 17.946C125 17.982 124.952 18 124.892 18H122.786C122.726 18 122.672 17.982 122.624 17.946C122.588 17.898 122.57 17.844 122.57 17.784V8.964C122.57 8.904 122.588 8.856 122.624 8.82C122.672 8.772 122.726 8.748 122.786 8.748H124.892C124.952 8.748 125 8.772 125.036 8.82C125.084 8.856 125.108 8.904 125.108 8.964V9.648C125.108 9.684 125.12 9.708 125.144 9.72C125.168 9.732 125.186 9.726 125.198 9.702C125.69 8.982 126.35 8.622 127.178 8.622Z" fill="#112B3C"/>
<path d="M44.144 56.112C43.0893 56.112 42.254 55.874 41.638 55.398C41.0313 54.922 40.728 54.2873 40.728 53.494V53.06C40.728 52.9667 40.7747 52.92 40.868 52.92H41.554C41.6473 52.92 41.694 52.9667 41.694 53.06V53.438C41.694 53.9793 41.918 54.418 42.366 54.754C42.814 55.0807 43.4347 55.244 44.228 55.244C44.9467 55.244 45.4927 55.0947 45.866 54.796C46.2393 54.488 46.426 54.082 46.426 53.578C46.426 53.2513 46.3373 52.9713 46.16 52.738C45.992 52.5047 45.726 52.2853 45.362 52.08C45.0073 51.8747 44.5033 51.6367 43.85 51.366C43.15 51.086 42.604 50.8433 42.212 50.638C41.8293 50.4233 41.5167 50.1527 41.274 49.826C41.0407 49.49 40.924 49.07 40.924 48.566C40.924 47.782 41.1947 47.1753 41.736 46.746C42.2867 46.3073 43.038 46.088 43.99 46.088C45.026 46.088 45.8427 46.3307 46.44 46.816C47.0373 47.3013 47.336 47.9453 47.336 48.748V49.056C47.336 49.1493 47.2893 49.196 47.196 49.196H46.496C46.4027 49.196 46.356 49.1493 46.356 49.056V48.804C46.356 48.2627 46.1413 47.8193 45.712 47.474C45.292 47.1287 44.704 46.956 43.948 46.956C43.2853 46.956 42.7767 47.0913 42.422 47.362C42.0673 47.6327 41.89 48.0247 41.89 48.538C41.89 48.874 41.974 49.154 42.142 49.378C42.3193 49.5927 42.5667 49.784 42.884 49.952C43.2107 50.1107 43.71 50.3207 44.382 50.582C45.0633 50.862 45.6093 51.1233 46.02 51.366C46.44 51.6087 46.776 51.9073 47.028 52.262C47.2893 52.6073 47.42 53.032 47.42 53.536C47.42 54.32 47.1307 54.9453 46.552 55.412C45.9733 55.8787 45.1707 56.112 44.144 56.112ZM53.5798 49.056C53.5798 48.9627 53.6264 48.916 53.7198 48.916H54.4338C54.5271 48.916 54.5738 48.9627 54.5738 49.056V55.86C54.5738 55.9533 54.5271 56 54.4338 56H53.7198C53.6264 56 53.5798 55.9533 53.5798 55.86V55.258C53.5798 55.2393 53.5704 55.2253 53.5518 55.216C53.5331 55.2067 53.5191 55.2113 53.5098 55.23C53.1178 55.8087 52.4971 56.098 51.6478 56.098C51.1998 56.098 50.7844 56.0093 50.4018 55.832C50.0284 55.6453 49.7298 55.3793 49.5058 55.034C49.2911 54.6887 49.1838 54.2733 49.1838 53.788V49.056C49.1838 48.9627 49.2304 48.916 49.3238 48.916H50.0378C50.1311 48.916 50.1778 48.9627 50.1778 49.056V53.494C50.1778 54.026 50.3271 54.4507 50.6258 54.768C50.9244 55.076 51.3304 55.23 51.8438 55.23C52.3758 55.23 52.7958 55.0713 53.1038 54.754C53.4211 54.4367 53.5798 54.0167 53.5798 53.494V49.056ZM62.2476 50.722C62.3596 51.142 62.4156 51.7207 62.4156 52.458C62.4156 53.2233 62.3503 53.816 62.2196 54.236C62.0423 54.8147 61.7343 55.272 61.2956 55.608C60.857 55.944 60.311 56.112 59.6576 56.112C59.2843 56.112 58.9436 56.0373 58.6356 55.888C58.3276 55.7387 58.071 55.524 57.8656 55.244C57.8563 55.2253 57.8423 55.2207 57.8236 55.23C57.805 55.23 57.7956 55.2393 57.7956 55.258V55.86C57.7956 55.9533 57.749 56 57.6556 56H56.9416C56.8483 56 56.8016 55.9533 56.8016 55.86V46.34C56.8016 46.2467 56.8483 46.2 56.9416 46.2H57.6556C57.749 46.2 57.7956 46.2467 57.7956 46.34V49.644C57.7956 49.6627 57.8003 49.6767 57.8096 49.686C57.8283 49.686 57.847 49.6767 57.8656 49.658C58.071 49.3873 58.3276 49.1773 58.6356 49.028C58.9436 48.8787 59.2843 48.804 59.6576 48.804C60.3203 48.804 60.8756 48.9767 61.3236 49.322C61.7716 49.658 62.0796 50.1247 62.2476 50.722ZM61.1696 54.152C61.263 53.956 61.3283 53.7367 61.3656 53.494C61.403 53.242 61.4216 52.8967 61.4216 52.458C61.4216 52.0007 61.3936 51.646 61.3376 51.394C61.291 51.1327 61.2116 50.8993 61.0996 50.694C60.9783 50.386 60.7823 50.1387 60.5116 49.952C60.241 49.7653 59.919 49.672 59.5456 49.672C59.191 49.672 58.883 49.77 58.6216 49.966C58.3696 50.1527 58.1876 50.4047 58.0756 50.722C57.9823 50.918 57.9123 51.142 57.8656 51.394C57.8283 51.646 57.8096 52.0007 57.8096 52.458C57.8096 52.906 57.8283 53.256 57.8656 53.508C57.9123 53.7507 57.9776 53.97 58.0616 54.166C58.183 54.4927 58.3696 54.754 58.6216 54.95C58.8736 55.146 59.1863 55.244 59.5596 55.244C59.9516 55.244 60.2876 55.146 60.5676 54.95C60.857 54.754 61.0576 54.488 61.1696 54.152ZM66.7682 56.07C66.2456 56.07 65.7789 55.986 65.3682 55.818C64.9669 55.65 64.6542 55.426 64.4302 55.146C64.2156 54.866 64.1082 54.5533 64.1082 54.208V54.04C64.1082 53.9467 64.1549 53.9 64.2482 53.9H64.9202C65.0136 53.9 65.0602 53.9467 65.0602 54.04V54.152C65.0602 54.46 65.2189 54.7307 65.5362 54.964C65.8629 55.188 66.2689 55.3 66.7542 55.3C67.2396 55.3 67.6316 55.1927 67.9302 54.978C68.2289 54.754 68.3782 54.474 68.3782 54.138C68.3782 53.9047 68.2989 53.7133 68.1402 53.564C67.9909 53.4147 67.8089 53.298 67.5942 53.214C67.3889 53.13 67.0669 53.0227 66.6282 52.892C66.1056 52.7427 65.6762 52.5933 65.3402 52.444C65.0042 52.2947 64.7196 52.0893 64.4862 51.828C64.2622 51.5573 64.1502 51.2167 64.1502 50.806C64.1502 50.2087 64.3836 49.7327 64.8502 49.378C65.3169 49.0233 65.9329 48.846 66.6982 48.846C67.2116 48.846 67.6642 48.93 68.0562 49.098C68.4576 49.266 68.7656 49.4993 68.9802 49.798C69.1949 50.0873 69.3022 50.414 69.3022 50.778V50.82C69.3022 50.9133 69.2556 50.96 69.1622 50.96H68.5042C68.4109 50.96 68.3642 50.9133 68.3642 50.82V50.778C68.3642 50.4607 68.2102 50.1947 67.9022 49.98C67.6036 49.7653 67.1976 49.658 66.6842 49.658C66.2082 49.658 65.8256 49.756 65.5362 49.952C65.2469 50.1387 65.1022 50.4 65.1022 50.736C65.1022 51.0533 65.2422 51.296 65.5222 51.464C65.8022 51.632 66.2362 51.8 66.8242 51.968C67.3656 52.1267 67.8042 52.276 68.1402 52.416C68.4762 52.556 68.7656 52.7613 69.0082 53.032C69.2509 53.2933 69.3722 53.6387 69.3722 54.068C69.3722 54.6747 69.1342 55.16 68.6582 55.524C68.1822 55.888 67.5522 56.07 66.7682 56.07ZM73.8585 56.112C73.1865 56.112 72.6078 55.9393 72.1225 55.594C71.6465 55.2393 71.3198 54.7633 71.1425 54.166C71.0211 53.7553 70.9605 53.1767 70.9605 52.43C70.9605 51.758 71.0211 51.1887 71.1425 50.722C71.3105 50.1433 71.6371 49.6813 72.1225 49.336C72.6078 48.9813 73.1865 48.804 73.8585 48.804C74.5398 48.804 75.1278 48.9767 75.6225 49.322C76.1265 49.6673 76.4531 50.0967 76.6025 50.61C76.6491 50.778 76.6771 50.918 76.6865 51.03V51.058C76.6865 51.1233 76.6445 51.1653 76.5605 51.184L75.8605 51.282H75.8325C75.7671 51.282 75.7251 51.24 75.7065 51.156L75.6645 50.946C75.5805 50.5913 75.3751 50.2927 75.0485 50.05C74.7218 49.798 74.3251 49.672 73.8585 49.672C73.3918 49.672 72.9998 49.798 72.6825 50.05C72.3745 50.2927 72.1738 50.6193 72.0805 51.03C71.9965 51.3847 71.9545 51.856 71.9545 52.444C71.9545 53.06 71.9965 53.536 72.0805 53.872C72.1738 54.292 72.3745 54.628 72.6825 54.88C72.9998 55.1227 73.3918 55.244 73.8585 55.244C74.3158 55.244 74.7078 55.1273 75.0345 54.894C75.3705 54.6513 75.5805 54.3433 75.6645 53.97V53.914L75.6785 53.858C75.6878 53.7647 75.7438 53.7273 75.8465 53.746L76.5325 53.858C76.6258 53.8767 76.6678 53.928 76.6585 54.012L76.6025 54.292C76.4625 54.8333 76.1405 55.272 75.6365 55.608C75.1325 55.944 74.5398 56.112 73.8585 56.112ZM81.3139 48.846C81.6219 48.846 81.8879 48.9067 82.1119 49.028C82.1866 49.0653 82.2146 49.126 82.1959 49.21L82.0419 49.896C82.0139 49.9893 81.9532 50.0173 81.8599 49.98C81.7012 49.9147 81.5192 49.882 81.3139 49.882L81.1319 49.896C80.6466 49.9147 80.2452 50.0967 79.9279 50.442C79.6106 50.778 79.4519 51.2073 79.4519 51.73V55.86C79.4519 55.9533 79.4052 56 79.3119 56H78.5979C78.5046 56 78.4579 55.9533 78.4579 55.86V49.056C78.4579 48.9627 78.5046 48.916 78.5979 48.916H79.3119C79.4052 48.916 79.4519 48.9627 79.4519 49.056V49.91C79.4519 49.938 79.4566 49.9567 79.4659 49.966C79.4846 49.966 79.4986 49.9567 79.5079 49.938C79.7039 49.5927 79.9512 49.3267 80.2499 49.14C80.5579 48.944 80.9126 48.846 81.3139 48.846ZM84.2295 47.628C84.0055 47.628 83.8188 47.5533 83.6695 47.404C83.5202 47.2547 83.4455 47.068 83.4455 46.844C83.4455 46.6107 83.5202 46.424 83.6695 46.284C83.8188 46.1347 84.0055 46.06 84.2295 46.06C84.4535 46.06 84.6402 46.1347 84.7895 46.284C84.9388 46.424 85.0135 46.6107 85.0135 46.844C85.0135 47.068 84.9388 47.2547 84.7895 47.404C84.6402 47.5533 84.4535 47.628 84.2295 47.628ZM83.8375 55.986C83.7442 55.986 83.6975 55.9393 83.6975 55.846V49.042C83.6975 48.9487 83.7442 48.902 83.8375 48.902H84.5515C84.6448 48.902 84.6915 48.9487 84.6915 49.042V55.846C84.6915 55.9393 84.6448 55.986 84.5515 55.986H83.8375ZM92.5719 50.722C92.6839 51.142 92.7399 51.7207 92.7399 52.458C92.7399 53.2233 92.6745 53.816 92.5439 54.236C92.3665 54.8147 92.0585 55.272 91.6199 55.608C91.1812 55.944 90.6352 56.112 89.9819 56.112C89.6085 56.112 89.2679 56.0373 88.9599 55.888C88.6519 55.7387 88.3952 55.524 88.1899 55.244C88.1805 55.2253 88.1665 55.2207 88.1479 55.23C88.1292 55.23 88.1199 55.2393 88.1199 55.258V55.86C88.1199 55.9533 88.0732 56 87.9799 56H87.2659C87.1725 56 87.1259 55.9533 87.1259 55.86V46.34C87.1259 46.2467 87.1725 46.2 87.2659 46.2H87.9799C88.0732 46.2 88.1199 46.2467 88.1199 46.34V49.644C88.1199 49.6627 88.1245 49.6767 88.1339 49.686C88.1525 49.686 88.1712 49.6767 88.1899 49.658C88.3952 49.3873 88.6519 49.1773 88.9599 49.028C89.2679 48.8787 89.6085 48.804 89.9819 48.804C90.6445 48.804 91.1999 48.9767 91.6479 49.322C92.0959 49.658 92.4039 50.1247 92.5719 50.722ZM91.4939 54.152C91.5872 53.956 91.6525 53.7367 91.6899 53.494C91.7272 53.242 91.7459 52.8967 91.7459 52.458C91.7459 52.0007 91.7179 51.646 91.6619 51.394C91.6152 51.1327 91.5359 50.8993 91.4239 50.694C91.3025 50.386 91.1065 50.1387 90.8359 49.952C90.5652 49.7653 90.2432 49.672 89.8699 49.672C89.5152 49.672 89.2072 49.77 88.9459 49.966C88.6939 50.1527 88.5119 50.4047 88.3999 50.722C88.3065 50.918 88.2365 51.142 88.1899 51.394C88.1525 51.646 88.1339 52.0007 88.1339 52.458C88.1339 52.906 88.1525 53.256 88.1899 53.508C88.2365 53.7507 88.3019 53.97 88.3859 54.166C88.5072 54.4927 88.6939 54.754 88.9459 54.95C89.1979 55.146 89.5105 55.244 89.8839 55.244C90.2759 55.244 90.6119 55.146 90.8919 54.95C91.1812 54.754 91.3819 54.488 91.4939 54.152ZM100.105 51.268C100.142 51.5293 100.161 51.856 100.161 52.248V52.696C100.161 52.7893 100.114 52.836 100.021 52.836H95.4987C95.4614 52.836 95.4427 52.8547 95.4427 52.892C95.4614 53.4053 95.4894 53.7367 95.5267 53.886C95.6294 54.306 95.8487 54.6373 96.1847 54.88C96.5207 55.1227 96.9501 55.244 97.4727 55.244C97.8647 55.244 98.2101 55.1553 98.5087 54.978C98.8074 54.8007 99.0407 54.5487 99.2087 54.222C99.2647 54.138 99.3301 54.1193 99.4047 54.166L99.9507 54.488C100.025 54.5347 100.044 54.6 100.007 54.684C99.7734 55.132 99.4234 55.4867 98.9567 55.748C98.4901 56 97.9534 56.126 97.3467 56.126C96.6841 56.1167 96.1287 55.958 95.6807 55.65C95.2327 55.342 94.9107 54.9127 94.7147 54.362C94.5467 53.914 94.4627 53.27 94.4627 52.43C94.4627 52.038 94.4674 51.7207 94.4767 51.478C94.4954 51.226 94.5327 51.002 94.5887 50.806C94.7474 50.1993 95.0647 49.714 95.5407 49.35C96.0261 48.986 96.6094 48.804 97.2907 48.804C98.1401 48.804 98.7934 49.0187 99.2507 49.448C99.7081 49.8773 99.9927 50.484 100.105 51.268ZM97.2907 49.672C96.8334 49.672 96.4507 49.7933 96.1427 50.036C95.8441 50.2693 95.6481 50.5867 95.5547 50.988C95.4987 51.184 95.4614 51.5013 95.4427 51.94C95.4427 51.9773 95.4614 51.996 95.4987 51.996H99.1247C99.1621 51.996 99.1807 51.9773 99.1807 51.94C99.1621 51.52 99.1341 51.2213 99.0967 51.044C98.9941 50.624 98.7841 50.2927 98.4667 50.05C98.1587 49.798 97.7667 49.672 97.2907 49.672ZM107.642 56.112C106.97 56.112 106.392 55.9393 105.906 55.594C105.421 55.2487 105.085 54.7727 104.898 54.166C104.768 53.7367 104.702 53.1627 104.702 52.444C104.702 51.7253 104.768 51.156 104.898 50.736C105.076 50.1387 105.407 49.6673 105.892 49.322C106.378 48.9767 106.966 48.804 107.656 48.804C108.319 48.804 108.888 48.9767 109.364 49.322C109.85 49.6673 110.181 50.134 110.358 50.722C110.489 51.1233 110.554 51.6973 110.554 52.444C110.554 53.2 110.489 53.774 110.358 54.166C110.181 54.7727 109.85 55.2487 109.364 55.594C108.888 55.9393 108.314 56.112 107.642 56.112ZM107.642 55.244C108.09 55.244 108.473 55.1227 108.79 54.88C109.108 54.628 109.322 54.292 109.434 53.872C109.518 53.536 109.56 53.0647 109.56 52.458C109.56 51.842 109.523 51.3707 109.448 51.044C109.336 50.624 109.117 50.2927 108.79 50.05C108.473 49.798 108.086 49.672 107.628 49.672C107.171 49.672 106.784 49.798 106.466 50.05C106.149 50.2927 105.934 50.624 105.822 51.044C105.748 51.3707 105.71 51.842 105.71 52.458C105.71 53.074 105.748 53.5453 105.822 53.872C105.925 54.292 106.135 54.628 106.452 54.88C106.779 55.1227 107.176 55.244 107.642 55.244ZM116.853 49.056C116.853 48.9627 116.9 48.916 116.993 48.916H117.707C117.801 48.916 117.847 48.9627 117.847 49.056V55.86C117.847 55.9533 117.801 56 117.707 56H116.993C116.9 56 116.853 55.9533 116.853 55.86V55.258C116.853 55.2393 116.844 55.2253 116.825 55.216C116.807 55.2067 116.793 55.2113 116.783 55.23C116.391 55.8087 115.771 56.098 114.921 56.098C114.473 56.098 114.058 56.0093 113.675 55.832C113.302 55.6453 113.003 55.3793 112.779 55.034C112.565 54.6887 112.457 54.2733 112.457 53.788V49.056C112.457 48.9627 112.504 48.916 112.597 48.916H113.311C113.405 48.916 113.451 48.9627 113.451 49.056V53.494C113.451 54.026 113.601 54.4507 113.899 54.768C114.198 55.076 114.604 55.23 115.117 55.23C115.649 55.23 116.069 55.0713 116.377 54.754C116.695 54.4367 116.853 54.0167 116.853 53.494V49.056ZM122.931 48.846C123.239 48.846 123.505 48.9067 123.729 49.028C123.804 49.0653 123.832 49.126 123.813 49.21L123.659 49.896C123.631 49.9893 123.57 50.0173 123.477 49.98C123.318 49.9147 123.136 49.882 122.931 49.882L122.749 49.896C122.264 49.9147 121.862 50.0967 121.545 50.442C121.228 50.778 121.069 51.2073 121.069 51.73V55.86C121.069 55.9533 121.022 56 120.929 56H120.215C120.122 56 120.075 55.9533 120.075 55.86V49.056C120.075 48.9627 120.122 48.916 120.215 48.916H120.929C121.022 48.916 121.069 48.9627 121.069 49.056V49.91C121.069 49.938 121.074 49.9567 121.083 49.966C121.102 49.966 121.116 49.9567 121.125 49.938C121.321 49.5927 121.568 49.3267 121.867 49.14C122.175 48.944 122.53 48.846 122.931 48.846ZM130.917 48.818C131.664 48.818 132.257 49.0373 132.695 49.476C133.143 49.9147 133.367 50.5027 133.367 51.24V55.86C133.367 55.9533 133.321 56 133.227 56H132.513C132.42 56 132.373 55.9533 132.373 55.86V51.436C132.373 50.9227 132.215 50.5027 131.897 50.176C131.589 49.8493 131.188 49.686 130.693 49.686C130.18 49.686 129.765 49.8447 129.447 50.162C129.13 50.4793 128.971 50.8947 128.971 51.408V55.86C128.971 55.9533 128.925 56 128.831 56H128.117C128.024 56 127.977 55.9533 127.977 55.86V49.056C127.977 48.9627 128.024 48.916 128.117 48.916H128.831C128.925 48.916 128.971 48.9627 128.971 49.056V49.658C128.971 49.6767 128.976 49.6907 128.985 49.7C129.004 49.7093 129.018 49.7047 129.027 49.686C129.438 49.1073 130.068 48.818 130.917 48.818ZM140.861 51.268C140.898 51.5293 140.917 51.856 140.917 52.248V52.696C140.917 52.7893 140.87 52.836 140.777 52.836H136.255C136.217 52.836 136.199 52.8547 136.199 52.892C136.217 53.4053 136.245 53.7367 136.283 53.886C136.385 54.306 136.605 54.6373 136.941 54.88C137.277 55.1227 137.706 55.244 138.229 55.244C138.621 55.244 138.966 55.1553 139.265 54.978C139.563 54.8007 139.797 54.5487 139.965 54.222C140.021 54.138 140.086 54.1193 140.161 54.166L140.707 54.488C140.781 54.5347 140.8 54.6 140.763 54.684C140.529 55.132 140.179 55.4867 139.713 55.748C139.246 56 138.709 56.126 138.103 56.126C137.44 56.1167 136.885 55.958 136.437 55.65C135.989 55.342 135.667 54.9127 135.471 54.362C135.303 53.914 135.219 53.27 135.219 52.43C135.219 52.038 135.223 51.7207 135.233 51.478C135.251 51.226 135.289 51.002 135.345 50.806C135.503 50.1993 135.821 49.714 136.297 49.35C136.782 48.986 137.365 48.804 138.047 48.804C138.896 48.804 139.549 49.0187 140.007 49.448C140.464 49.8773 140.749 50.484 140.861 51.268ZM138.047 49.672C137.589 49.672 137.207 49.7933 136.899 50.036C136.6 50.2693 136.404 50.5867 136.311 50.988C136.255 51.184 136.217 51.5013 136.199 51.94C136.199 51.9773 136.217 51.996 136.255 51.996H139.881C139.918 51.996 139.937 51.9773 139.937 51.94C139.918 51.52 139.89 51.2213 139.853 51.044C139.75 50.624 139.54 50.2927 139.223 50.05C138.915 49.798 138.523 49.672 138.047 49.672ZM144.186 56C144.111 56 144.06 55.9627 144.032 55.888L142.044 49.07L142.03 49.028C142.03 48.9533 142.076 48.916 142.17 48.916H142.898C142.982 48.916 143.033 48.958 143.052 49.042L144.536 54.558C144.545 54.5767 144.554 54.586 144.564 54.586C144.582 54.586 144.596 54.5767 144.606 54.558L146.118 49.042C146.136 48.958 146.188 48.916 146.272 48.916H146.944C147.028 48.916 147.079 48.9533 147.098 49.028L148.624 54.544C148.633 54.5627 148.647 54.572 148.666 54.572C148.684 54.572 148.698 54.5627 148.708 54.544L150.234 49.042C150.252 48.958 150.304 48.916 150.388 48.916L151.116 48.93C151.162 48.93 151.195 48.944 151.214 48.972C151.242 49 151.251 49.0373 151.242 49.084L149.226 55.888C149.198 55.9627 149.146 56 149.072 56H148.33C148.255 56 148.204 55.9627 148.176 55.888L146.65 50.652C146.64 50.6333 146.626 50.624 146.608 50.624C146.598 50.624 146.589 50.6333 146.58 50.652L145.096 55.888C145.068 55.9627 145.016 56 144.942 56H144.186ZM154.692 56.07C154.169 56.07 153.703 55.986 153.292 55.818C152.891 55.65 152.578 55.426 152.354 55.146C152.139 54.866 152.032 54.5533 152.032 54.208V54.04C152.032 53.9467 152.079 53.9 152.172 53.9H152.844C152.937 53.9 152.984 53.9467 152.984 54.04V54.152C152.984 54.46 153.143 54.7307 153.46 54.964C153.787 55.188 154.193 55.3 154.678 55.3C155.163 55.3 155.555 55.1927 155.854 54.978C156.153 54.754 156.302 54.474 156.302 54.138C156.302 53.9047 156.223 53.7133 156.064 53.564C155.915 53.4147 155.733 53.298 155.518 53.214C155.313 53.13 154.991 53.0227 154.552 52.892C154.029 52.7427 153.6 52.5933 153.264 52.444C152.928 52.2947 152.643 52.0893 152.41 51.828C152.186 51.5573 152.074 51.2167 152.074 50.806C152.074 50.2087 152.307 49.7327 152.774 49.378C153.241 49.0233 153.857 48.846 154.622 48.846C155.135 48.846 155.588 48.93 155.98 49.098C156.381 49.266 156.689 49.4993 156.904 49.798C157.119 50.0873 157.226 50.414 157.226 50.778V50.82C157.226 50.9133 157.179 50.96 157.086 50.96H156.428C156.335 50.96 156.288 50.9133 156.288 50.82V50.778C156.288 50.4607 156.134 50.1947 155.826 49.98C155.527 49.7653 155.121 49.658 154.608 49.658C154.132 49.658 153.749 49.756 153.46 49.952C153.171 50.1387 153.026 50.4 153.026 50.736C153.026 51.0533 153.166 51.296 153.446 51.464C153.726 51.632 154.16 51.8 154.748 51.968C155.289 52.1267 155.728 52.276 156.064 52.416C156.4 52.556 156.689 52.7613 156.932 53.032C157.175 53.2933 157.296 53.6387 157.296 54.068C157.296 54.6747 157.058 55.16 156.582 55.524C156.106 55.888 155.476 56.07 154.692 56.07ZM159.248 56C159.155 56 159.108 55.9533 159.108 55.86V46.34C159.108 46.2467 159.155 46.2 159.248 46.2H159.962C160.056 46.2 160.102 46.2467 160.102 46.34V55.86C160.102 55.9533 160.056 56 159.962 56H159.248ZM167.767 51.268C167.804 51.5293 167.823 51.856 167.823 52.248V52.696C167.823 52.7893 167.776 52.836 167.683 52.836H163.161C163.124 52.836 163.105 52.8547 163.105 52.892C163.124 53.4053 163.152 53.7367 163.189 53.886C163.292 54.306 163.511 54.6373 163.847 54.88C164.183 55.1227 164.612 55.244 165.135 55.244C165.527 55.244 165.872 55.1553 166.171 54.978C166.47 54.8007 166.703 54.5487 166.871 54.222C166.927 54.138 166.992 54.1193 167.067 54.166L167.613 54.488C167.688 54.5347 167.706 54.6 167.669 54.684C167.436 55.132 167.086 55.4867 166.619 55.748C166.152 56 165.616 56.126 165.009 56.126C164.346 56.1167 163.791 55.958 163.343 55.65C162.895 55.342 162.573 54.9127 162.377 54.362C162.209 53.914 162.125 53.27 162.125 52.43C162.125 52.038 162.13 51.7207 162.139 51.478C162.158 51.226 162.195 51.002 162.251 50.806C162.41 50.1993 162.727 49.714 163.203 49.35C163.688 48.986 164.272 48.804 164.953 48.804C165.802 48.804 166.456 49.0187 166.913 49.448C167.37 49.8773 167.655 50.484 167.767 51.268ZM164.953 49.672C164.496 49.672 164.113 49.7933 163.805 50.036C163.506 50.2693 163.31 50.5867 163.217 50.988C163.161 51.184 163.124 51.5013 163.105 51.94C163.105 51.9773 163.124 51.996 163.161 51.996H166.787C166.824 51.996 166.843 51.9773 166.843 51.94C166.824 51.52 166.796 51.2213 166.759 51.044C166.656 50.624 166.446 50.2927 166.129 50.05C165.821 49.798 165.429 49.672 164.953 49.672ZM172.882 49.602C172.882 49.6953 172.835 49.742 172.742 49.742H171.16C171.123 49.742 171.104 49.7607 171.104 49.798V53.928C171.104 54.376 171.202 54.6933 171.398 54.88C171.603 55.0573 171.921 55.146 172.35 55.146H172.7C172.793 55.146 172.84 55.1927 172.84 55.286V55.86C172.84 55.9533 172.793 56 172.7 56C172.588 56.0093 172.415 56.014 172.182 56.014C171.51 56.014 171.001 55.888 170.656 55.636C170.311 55.384 170.138 54.9173 170.138 54.236V49.798C170.138 49.7607 170.119 49.742 170.082 49.742H169.228C169.135 49.742 169.088 49.6953 169.088 49.602V49.056C169.088 48.9627 169.135 48.916 169.228 48.916H170.082C170.119 48.916 170.138 48.8973 170.138 48.86V47.236C170.138 47.1427 170.185 47.096 170.278 47.096H170.964C171.057 47.096 171.104 47.1427 171.104 47.236V48.86C171.104 48.8973 171.123 48.916 171.16 48.916H172.742C172.835 48.916 172.882 48.9627 172.882 49.056V49.602ZM177.982 49.602C177.982 49.6953 177.935 49.742 177.842 49.742H176.26C176.222 49.742 176.204 49.7607 176.204 49.798V53.928C176.204 54.376 176.302 54.6933 176.498 54.88C176.703 55.0573 177.02 55.146 177.45 55.146H177.8C177.893 55.146 177.94 55.1927 177.94 55.286V55.86C177.94 55.9533 177.893 56 177.8 56C177.688 56.0093 177.515 56.014 177.282 56.014C176.61 56.014 176.101 55.888 175.756 55.636C175.41 55.384 175.238 54.9173 175.238 54.236V49.798C175.238 49.7607 175.219 49.742 175.182 49.742H174.328C174.234 49.742 174.188 49.6953 174.188 49.602V49.056C174.188 48.9627 174.234 48.916 174.328 48.916H175.182C175.219 48.916 175.238 48.8973 175.238 48.86V47.236C175.238 47.1427 175.284 47.096 175.378 47.096H176.064C176.157 47.096 176.204 47.1427 176.204 47.236V48.86C176.204 48.8973 176.222 48.916 176.26 48.916H177.842C177.935 48.916 177.982 48.9627 177.982 49.056V49.602ZM185.13 51.268C185.167 51.5293 185.186 51.856 185.186 52.248V52.696C185.186 52.7893 185.139 52.836 185.046 52.836H180.524C180.487 52.836 180.468 52.8547 180.468 52.892C180.487 53.4053 180.515 53.7367 180.552 53.886C180.655 54.306 180.874 54.6373 181.21 54.88C181.546 55.1227 181.975 55.244 182.498 55.244C182.89 55.244 183.235 55.1553 183.534 54.978C183.833 54.8007 184.066 54.5487 184.234 54.222C184.29 54.138 184.355 54.1193 184.43 54.166L184.976 54.488C185.051 54.5347 185.069 54.6 185.032 54.684C184.799 55.132 184.449 55.4867 183.982 55.748C183.515 56 182.979 56.126 182.372 56.126C181.709 56.1167 181.154 55.958 180.706 55.65C180.258 55.342 179.936 54.9127 179.74 54.362C179.572 53.914 179.488 53.27 179.488 52.43C179.488 52.038 179.493 51.7207 179.502 51.478C179.521 51.226 179.558 51.002 179.614 50.806C179.773 50.1993 180.09 49.714 180.566 49.35C181.051 48.986 181.635 48.804 182.316 48.804C183.165 48.804 183.819 49.0187 184.276 49.448C184.733 49.8773 185.018 50.484 185.13 51.268ZM182.316 49.672C181.859 49.672 181.476 49.7933 181.168 50.036C180.869 50.2693 180.673 50.5867 180.58 50.988C180.524 51.184 180.487 51.5013 180.468 51.94C180.468 51.9773 180.487 51.996 180.524 51.996H184.15C184.187 51.996 184.206 51.9773 184.206 51.94C184.187 51.52 184.159 51.2213 184.122 51.044C184.019 50.624 183.809 50.2927 183.492 50.05C183.184 49.798 182.792 49.672 182.316 49.672ZM190.019 48.846C190.327 48.846 190.593 48.9067 190.817 49.028C190.892 49.0653 190.92 49.126 190.901 49.21L190.747 49.896C190.719 49.9893 190.658 50.0173 190.565 49.98C190.406 49.9147 190.224 49.882 190.019 49.882L189.837 49.896C189.352 49.9147 188.95 50.0967 188.633 50.442C188.316 50.778 188.157 51.2073 188.157 51.73V55.86C188.157 55.9533 188.11 56 188.017 56H187.303C187.21 56 187.163 55.9533 187.163 55.86V49.056C187.163 48.9627 187.21 48.916 187.303 48.916H188.017C188.11 48.916 188.157 48.9627 188.157 49.056V49.91C188.157 49.938 188.162 49.9567 188.171 49.966C188.19 49.966 188.204 49.9567 188.213 49.938C188.409 49.5927 188.656 49.3267 188.955 49.14C189.263 48.944 189.618 48.846 190.019 48.846ZM197.515 48.804C198.355 48.804 199.004 49.0187 199.461 49.448C199.919 49.8773 200.147 50.4467 200.147 51.156V55.86C200.147 55.9533 200.101 56 200.007 56H199.293C199.2 56 199.153 55.9533 199.153 55.86V55.286C199.153 55.2673 199.144 55.2533 199.125 55.244C199.116 55.2347 199.102 55.2393 199.083 55.258C198.85 55.538 198.547 55.7527 198.173 55.902C197.8 56.042 197.385 56.112 196.927 56.112C196.265 56.112 195.709 55.944 195.261 55.608C194.813 55.272 194.589 54.7587 194.589 54.068C194.589 53.368 194.841 52.8173 195.345 52.416C195.859 52.0053 196.568 51.8 197.473 51.8H199.097C199.135 51.8 199.153 51.7813 199.153 51.744V51.212C199.153 50.736 199.018 50.3627 198.747 50.092C198.486 49.812 198.075 49.672 197.515 49.672C197.067 49.672 196.703 49.7607 196.423 49.938C196.143 50.106 195.971 50.344 195.905 50.652C195.877 50.7453 195.821 50.7873 195.737 50.778L194.981 50.68C194.879 50.6613 194.837 50.624 194.855 50.568C194.93 50.0453 195.21 49.6207 195.695 49.294C196.181 48.9673 196.787 48.804 197.515 48.804ZM197.123 55.258C197.674 55.258 198.15 55.1227 198.551 54.852C198.953 54.572 199.153 54.1987 199.153 53.732V52.64C199.153 52.6027 199.135 52.584 199.097 52.584H197.627C197.011 52.584 196.517 52.71 196.143 52.962C195.77 53.214 195.583 53.564 195.583 54.012C195.583 54.4227 195.723 54.7353 196.003 54.95C196.293 55.1553 196.666 55.258 197.123 55.258ZM205.156 48.818C205.902 48.818 206.495 49.0373 206.934 49.476C207.382 49.9147 207.606 50.5027 207.606 51.24V55.86C207.606 55.9533 207.559 56 207.466 56H206.752C206.658 56 206.612 55.9533 206.612 55.86V51.436C206.612 50.9227 206.453 50.5027 206.136 50.176C205.828 49.8493 205.426 49.686 204.932 49.686C204.418 49.686 204.003 49.8447 203.686 50.162C203.368 50.4793 203.21 50.8947 203.21 51.408V55.86C203.21 55.9533 203.163 56 203.07 56H202.356C202.262 56 202.216 55.9533 202.216 55.86V49.056C202.216 48.9627 202.262 48.916 202.356 48.916H203.07C203.163 48.916 203.21 48.9627 203.21 49.056V49.658C203.21 49.6767 203.214 49.6907 203.224 49.7C203.242 49.7093 203.256 49.7047 203.266 49.686C203.676 49.1073 204.306 48.818 205.156 48.818ZM214.063 46.34C214.063 46.2467 214.11 46.2 214.203 46.2H214.917C215.01 46.2 215.057 46.2467 215.057 46.34V55.86C215.057 55.9533 215.01 56 214.917 56H214.203C214.11 56 214.063 55.9533 214.063 55.86V55.272C214.063 55.2533 214.054 55.244 214.035 55.244C214.026 55.2347 214.012 55.2393 213.993 55.258C213.788 55.5287 213.531 55.7387 213.223 55.888C212.924 56.0373 212.588 56.112 212.215 56.112C211.562 56.112 211.011 55.944 210.563 55.608C210.124 55.272 209.821 54.8147 209.653 54.236C209.522 53.816 209.457 53.2233 209.457 52.458C209.457 51.6833 209.513 51.1047 209.625 50.722C209.793 50.1247 210.101 49.658 210.549 49.322C210.997 48.9767 211.552 48.804 212.215 48.804C212.579 48.804 212.915 48.8787 213.223 49.028C213.531 49.168 213.788 49.3733 213.993 49.644C214.012 49.6627 214.026 49.672 214.035 49.672C214.054 49.6627 214.063 49.6487 214.063 49.63V46.34ZM213.811 54.166C213.895 53.9793 213.956 53.76 213.993 53.508C214.03 53.256 214.049 52.906 214.049 52.458C214.049 52.01 214.03 51.66 213.993 51.408C213.956 51.1467 213.89 50.918 213.797 50.722C213.685 50.4047 213.498 50.1527 213.237 49.966C212.985 49.77 212.682 49.672 212.327 49.672C211.954 49.672 211.632 49.7653 211.361 49.952C211.09 50.1387 210.894 50.386 210.773 50.694C210.661 50.8993 210.577 51.1327 210.521 51.394C210.474 51.646 210.451 52.0007 210.451 52.458C210.451 52.8967 210.47 53.242 210.507 53.494C210.544 53.7367 210.61 53.956 210.703 54.152C210.815 54.488 211.011 54.754 211.291 54.95C211.58 55.146 211.921 55.244 212.313 55.244C212.686 55.244 212.999 55.146 213.251 54.95C213.503 54.754 213.69 54.4927 213.811 54.166ZM224.48 49.056C224.48 48.9627 224.527 48.916 224.62 48.916H225.334C225.428 48.916 225.474 48.9627 225.474 49.056V55.762C225.474 56.8073 225.171 57.5727 224.564 58.058C223.967 58.5433 223.141 58.786 222.086 58.786C221.872 58.786 221.708 58.7813 221.596 58.772C221.503 58.7627 221.456 58.7113 221.456 58.618L221.484 57.974C221.484 57.9273 221.498 57.89 221.526 57.862C221.554 57.8433 221.587 57.8387 221.624 57.848L222.002 57.862C222.87 57.862 223.5 57.6893 223.892 57.344C224.284 57.008 224.48 56.4713 224.48 55.734V55.216C224.48 55.1973 224.471 55.188 224.452 55.188C224.443 55.1787 224.429 55.1833 224.41 55.202C223.981 55.762 223.37 56.042 222.576 56.042C221.97 56.042 221.428 55.8787 220.952 55.552C220.486 55.2253 220.173 54.7633 220.014 54.166C219.902 53.7833 219.846 53.214 219.846 52.458C219.846 52.0473 219.856 51.702 219.874 51.422C219.902 51.142 219.954 50.89 220.028 50.666C220.196 50.106 220.5 49.658 220.938 49.322C221.377 48.9767 221.904 48.804 222.52 48.804C223.351 48.804 223.981 49.0793 224.41 49.63C224.429 49.6487 224.443 49.6533 224.452 49.644C224.471 49.6347 224.48 49.6207 224.48 49.602V49.056ZM224.41 53.858C224.438 53.718 224.457 53.5453 224.466 53.34C224.476 53.1347 224.48 52.836 224.48 52.444C224.48 51.968 224.476 51.6507 224.466 51.492C224.457 51.324 224.434 51.17 224.396 51.03C224.322 50.638 224.135 50.316 223.836 50.064C223.547 49.8027 223.178 49.672 222.73 49.672C222.292 49.672 221.918 49.798 221.61 50.05C221.312 50.302 221.102 50.6287 220.98 51.03C220.887 51.3287 220.84 51.7953 220.84 52.43C220.84 53.1113 220.887 53.5827 220.98 53.844C221.074 54.236 221.274 54.5627 221.582 54.824C221.9 55.076 222.282 55.202 222.73 55.202C223.188 55.202 223.561 55.076 223.85 54.824C224.149 54.572 224.336 54.25 224.41 53.858ZM233.036 51.268C233.074 51.5293 233.092 51.856 233.092 52.248V52.696C233.092 52.7893 233.046 52.836 232.952 52.836H228.43C228.393 52.836 228.374 52.8547 228.374 52.892C228.393 53.4053 228.421 53.7367 228.458 53.886C228.561 54.306 228.78 54.6373 229.116 54.88C229.452 55.1227 229.882 55.244 230.404 55.244C230.796 55.244 231.142 55.1553 231.44 54.978C231.739 54.8007 231.972 54.5487 232.14 54.222C232.196 54.138 232.262 54.1193 232.336 54.166L232.882 54.488C232.957 54.5347 232.976 54.6 232.938 54.684C232.705 55.132 232.355 55.4867 231.888 55.748C231.422 56 230.885 56.126 230.278 56.126C229.616 56.1167 229.06 55.958 228.612 55.65C228.164 55.342 227.842 54.9127 227.646 54.362C227.478 53.914 227.394 53.27 227.394 52.43C227.394 52.038 227.399 51.7207 227.408 51.478C227.427 51.226 227.464 51.002 227.52 50.806C227.679 50.1993 227.996 49.714 228.472 49.35C228.958 48.986 229.541 48.804 230.222 48.804C231.072 48.804 231.725 49.0187 232.182 49.448C232.64 49.8773 232.924 50.484 233.036 51.268ZM230.222 49.672C229.765 49.672 229.382 49.7933 229.074 50.036C228.776 50.2693 228.58 50.5867 228.486 50.988C228.43 51.184 228.393 51.5013 228.374 51.94C228.374 51.9773 228.393 51.996 228.43 51.996H232.056C232.094 51.996 232.112 51.9773 232.112 51.94C232.094 51.52 232.066 51.2213 232.028 51.044C231.926 50.624 231.716 50.2927 231.398 50.05C231.09 49.798 230.698 49.672 230.222 49.672ZM238.152 49.602C238.152 49.6953 238.105 49.742 238.012 49.742H236.43C236.392 49.742 236.374 49.7607 236.374 49.798V53.928C236.374 54.376 236.472 54.6933 236.668 54.88C236.873 55.0573 237.19 55.146 237.62 55.146H237.97C238.063 55.146 238.11 55.1927 238.11 55.286V55.86C238.11 55.9533 238.063 56 237.97 56C237.858 56.0093 237.685 56.014 237.452 56.014C236.78 56.014 236.271 55.888 235.926 55.636C235.58 55.384 235.408 54.9173 235.408 54.236V49.798C235.408 49.7607 235.389 49.742 235.352 49.742H234.498C234.404 49.742 234.358 49.6953 234.358 49.602V49.056C234.358 48.9627 234.404 48.916 234.498 48.916H235.352C235.389 48.916 235.408 48.8973 235.408 48.86V47.236C235.408 47.1427 235.454 47.096 235.548 47.096H236.234C236.327 47.096 236.374 47.1427 236.374 47.236V48.86C236.374 48.8973 236.392 48.916 236.43 48.916H238.012C238.105 48.916 238.152 48.9627 238.152 49.056V49.602ZM46.552 71.268C46.5893 71.5293 46.608 71.856 46.608 72.248V72.696C46.608 72.7893 46.5613 72.836 46.468 72.836H41.946C41.9087 72.836 41.89 72.8547 41.89 72.892C41.9087 73.4053 41.9367 73.7367 41.974 73.886C42.0767 74.306 42.296 74.6373 42.632 74.88C42.968 75.1227 43.3973 75.244 43.92 75.244C44.312 75.244 44.6573 75.1553 44.956 74.978C45.2547 74.8007 45.488 74.5487 45.656 74.222C45.712 74.138 45.7773 74.1193 45.852 74.166L46.398 74.488C46.4727 74.5347 46.4913 74.6 46.454 74.684C46.2207 75.132 45.8707 75.4867 45.404 75.748C44.9373 76 44.4007 76.126 43.794 76.126C43.1313 76.1167 42.576 75.958 42.128 75.65C41.68 75.342 41.358 74.9127 41.162 74.362C40.994 73.914 40.91 73.27 40.91 72.43C40.91 72.038 40.9147 71.7207 40.924 71.478C40.9427 71.226 40.98 71.002 41.036 70.806C41.1947 70.1993 41.512 69.714 41.988 69.35C42.4733 68.986 43.0567 68.804 43.738 68.804C44.5873 68.804 45.2407 69.0187 45.698 69.448C46.1553 69.8773 46.44 70.484 46.552 71.268ZM43.738 69.672C43.2807 69.672 42.898 69.7933 42.59 70.036C42.2913 70.2693 42.0953 70.5867 42.002 70.988C41.946 71.184 41.9087 71.5013 41.89 71.94C41.89 71.9773 41.9087 71.996 41.946 71.996H45.572C45.6093 71.996 45.628 71.9773 45.628 71.94C45.6093 71.52 45.5813 71.2213 45.544 71.044C45.4413 70.624 45.2313 70.2927 44.914 70.05C44.606 69.798 44.214 69.672 43.738 69.672ZM47.7914 76C47.7354 76 47.6934 75.9813 47.6654 75.944C47.6468 75.9067 47.6561 75.8693 47.6934 75.832L50.0314 72.5C50.0501 72.472 50.0501 72.444 50.0314 72.416L47.6934 69.084C47.6748 69.0653 47.6654 69.042 47.6654 69.014C47.6654 68.9487 47.7074 68.916 47.7914 68.916H48.5474C48.6221 68.916 48.6781 68.944 48.7154 69L50.5494 71.646C50.5588 71.6553 50.5728 71.66 50.5914 71.66C50.6101 71.66 50.6241 71.6553 50.6334 71.646L52.4534 69C52.4908 68.944 52.5468 68.916 52.6214 68.916H53.4474C53.5034 68.916 53.5408 68.9347 53.5594 68.972C53.5781 69 53.5688 69.0373 53.5314 69.084L51.1934 72.416C51.1841 72.444 51.1841 72.472 51.1934 72.5L53.5314 75.832C53.5501 75.8507 53.5594 75.8787 53.5594 75.916C53.5594 75.9347 53.5501 75.9533 53.5314 75.972C53.5128 75.9907 53.4848 76 53.4474 76H52.6774C52.6028 76 52.5468 75.972 52.5094 75.916L50.6894 73.27C50.6801 73.2513 50.6661 73.242 50.6474 73.242C50.6288 73.242 50.6148 73.2513 50.6054 73.27L48.7574 75.916C48.7201 75.972 48.6641 76 48.5894 76H47.7914ZM57.4385 76.112C56.7665 76.112 56.1879 75.9393 55.7025 75.594C55.2265 75.2393 54.8999 74.7633 54.7225 74.166C54.6012 73.7553 54.5405 73.1767 54.5405 72.43C54.5405 71.758 54.6012 71.1887 54.7225 70.722C54.8905 70.1433 55.2172 69.6813 55.7025 69.336C56.1879 68.9813 56.7665 68.804 57.4385 68.804C58.1199 68.804 58.7079 68.9767 59.2025 69.322C59.7065 69.6673 60.0332 70.0967 60.1825 70.61C60.2292 70.778 60.2572 70.918 60.2665 71.03V71.058C60.2665 71.1233 60.2245 71.1653 60.1405 71.184L59.4405 71.282H59.4125C59.3472 71.282 59.3052 71.24 59.2865 71.156L59.2445 70.946C59.1605 70.5913 58.9552 70.2927 58.6285 70.05C58.3019 69.798 57.9052 69.672 57.4385 69.672C56.9719 69.672 56.5799 69.798 56.2625 70.05C55.9545 70.2927 55.7539 70.6193 55.6605 71.03C55.5765 71.3847 55.5345 71.856 55.5345 72.444C55.5345 73.06 55.5765 73.536 55.6605 73.872C55.7539 74.292 55.9545 74.628 56.2625 74.88C56.5799 75.1227 56.9719 75.244 57.4385 75.244C57.8959 75.244 58.2879 75.1273 58.6145 74.894C58.9505 74.6513 59.1605 74.3433 59.2445 73.97V73.914L59.2585 73.858C59.2679 73.7647 59.3239 73.7273 59.4265 73.746L60.1125 73.858C60.2059 73.8767 60.2479 73.928 60.2385 74.012L60.1825 74.292C60.0425 74.8333 59.7205 75.272 59.2165 75.608C58.7125 75.944 58.1199 76.112 57.4385 76.112ZM62.71 67.628C62.486 67.628 62.2993 67.5533 62.15 67.404C62.0006 67.2547 61.926 67.068 61.926 66.844C61.926 66.6107 62.0006 66.424 62.15 66.284C62.2993 66.1347 62.486 66.06 62.71 66.06C62.934 66.06 63.1206 66.1347 63.27 66.284C63.4193 66.424 63.494 66.6107 63.494 66.844C63.494 67.068 63.4193 67.2547 63.27 67.404C63.1206 67.5533 62.934 67.628 62.71 67.628ZM62.318 75.986C62.2246 75.986 62.178 75.9393 62.178 75.846V69.042C62.178 68.9487 62.2246 68.902 62.318 68.902H63.032C63.1253 68.902 63.172 68.9487 63.172 69.042V75.846C63.172 75.9393 63.1253 75.986 63.032 75.986H62.318ZM68.7843 69.602C68.7843 69.6953 68.7377 69.742 68.6443 69.742H67.0623C67.025 69.742 67.0063 69.7607 67.0063 69.798V73.928C67.0063 74.376 67.1043 74.6933 67.3003 74.88C67.5057 75.0573 67.823 75.146 68.2523 75.146H68.6023C68.6957 75.146 68.7423 75.1927 68.7423 75.286V75.86C68.7423 75.9533 68.6957 76 68.6023 76C68.4903 76.0093 68.3177 76.014 68.0843 76.014C67.4123 76.014 66.9037 75.888 66.5583 75.636C66.213 75.384 66.0403 74.9173 66.0403 74.236V69.798C66.0403 69.7607 66.0217 69.742 65.9843 69.742H65.1303C65.037 69.742 64.9903 69.6953 64.9903 69.602V69.056C64.9903 68.9627 65.037 68.916 65.1303 68.916H65.9843C66.0217 68.916 66.0403 68.8973 66.0403 68.86V67.236C66.0403 67.1427 66.087 67.096 66.1803 67.096H66.8663C66.9597 67.096 67.0063 67.1427 67.0063 67.236V68.86C67.0063 68.8973 67.025 68.916 67.0623 68.916H68.6443C68.7377 68.916 68.7843 68.9627 68.7843 69.056V69.602ZM71.3779 67.628C71.1539 67.628 70.9673 67.5533 70.8179 67.404C70.6686 67.2547 70.5939 67.068 70.5939 66.844C70.5939 66.6107 70.6686 66.424 70.8179 66.284C70.9673 66.1347 71.1539 66.06 71.3779 66.06C71.6019 66.06 71.7886 66.1347 71.9379 66.284C72.0873 66.424 72.1619 66.6107 72.1619 66.844C72.1619 67.068 72.0873 67.2547 71.9379 67.404C71.7886 67.5533 71.6019 67.628 71.3779 67.628ZM70.9859 75.986C70.8926 75.986 70.8459 75.9393 70.8459 75.846V69.042C70.8459 68.9487 70.8926 68.902 70.9859 68.902H71.6999C71.7933 68.902 71.8399 68.9487 71.8399 69.042V75.846C71.8399 75.9393 71.7933 75.986 71.6999 75.986H70.9859ZM77.2143 68.818C77.961 68.818 78.5536 69.0373 78.9923 69.476C79.4403 69.9147 79.6643 70.5027 79.6643 71.24V75.86C79.6643 75.9533 79.6176 76 79.5243 76H78.8103C78.717 76 78.6703 75.9533 78.6703 75.86V71.436C78.6703 70.9227 78.5116 70.5027 78.1943 70.176C77.8863 69.8493 77.485 69.686 76.9903 69.686C76.477 69.686 76.0616 69.8447 75.7443 70.162C75.427 70.4793 75.2683 70.8947 75.2683 71.408V75.86C75.2683 75.9533 75.2216 76 75.1283 76H74.4143C74.321 76 74.2743 75.9533 74.2743 75.86V69.056C74.2743 68.9627 74.321 68.916 74.4143 68.916H75.1283C75.2216 68.916 75.2683 68.9627 75.2683 69.056V69.658C75.2683 69.6767 75.273 69.6907 75.2823 69.7C75.301 69.7093 75.315 69.7047 75.3243 69.686C75.735 69.1073 76.365 68.818 77.2143 68.818ZM86.1892 69.056C86.1892 68.9627 86.2358 68.916 86.3292 68.916H87.0432C87.1365 68.916 87.1832 68.9627 87.1832 69.056V75.762C87.1832 76.8073 86.8798 77.5727 86.2732 78.058C85.6758 78.5433 84.8498 78.786 83.7952 78.786C83.5805 78.786 83.4172 78.7813 83.3052 78.772C83.2118 78.7627 83.1652 78.7113 83.1652 78.618L83.1932 77.974C83.1932 77.9273 83.2072 77.89 83.2352 77.862C83.2632 77.8433 83.2958 77.8387 83.3332 77.848L83.7112 77.862C84.5792 77.862 85.2092 77.6893 85.6012 77.344C85.9932 77.008 86.1892 76.4713 86.1892 75.734V75.216C86.1892 75.1973 86.1798 75.188 86.1612 75.188C86.1518 75.1787 86.1378 75.1833 86.1192 75.202C85.6898 75.762 85.0785 76.042 84.2852 76.042C83.6785 76.042 83.1372 75.8787 82.6612 75.552C82.1945 75.2253 81.8818 74.7633 81.7232 74.166C81.6112 73.7833 81.5552 73.214 81.5552 72.458C81.5552 72.0473 81.5645 71.702 81.5832 71.422C81.6112 71.142 81.6625 70.89 81.7372 70.666C81.9052 70.106 82.2085 69.658 82.6472 69.322C83.0858 68.9767 83.6132 68.804 84.2292 68.804C85.0598 68.804 85.6898 69.0793 86.1192 69.63C86.1378 69.6487 86.1518 69.6533 86.1612 69.644C86.1798 69.6347 86.1892 69.6207 86.1892 69.602V69.056ZM86.1192 73.858C86.1472 73.718 86.1658 73.5453 86.1752 73.34C86.1845 73.1347 86.1892 72.836 86.1892 72.444C86.1892 71.968 86.1845 71.6507 86.1752 71.492C86.1658 71.324 86.1425 71.17 86.1052 71.03C86.0305 70.638 85.8438 70.316 85.5452 70.064C85.2558 69.8027 84.8872 69.672 84.4392 69.672C84.0005 69.672 83.6272 69.798 83.3192 70.05C83.0205 70.302 82.8105 70.6287 82.6892 71.03C82.5958 71.3287 82.5492 71.7953 82.5492 72.43C82.5492 73.1113 82.5958 73.5827 82.6892 73.844C82.7825 74.236 82.9832 74.5627 83.2912 74.824C83.6085 75.076 83.9912 75.202 84.4392 75.202C84.8965 75.202 85.2698 75.076 85.5592 74.824C85.8578 74.572 86.0445 74.25 86.1192 73.858ZM94.8181 76.112C94.1461 76.112 93.5674 75.9393 93.0821 75.594C92.5968 75.2487 92.2608 74.7727 92.0741 74.166C91.9434 73.7367 91.8781 73.1627 91.8781 72.444C91.8781 71.7253 91.9434 71.156 92.0741 70.736C92.2514 70.1387 92.5828 69.6673 93.0681 69.322C93.5534 68.9767 94.1414 68.804 94.8321 68.804C95.4948 68.804 96.0641 68.9767 96.5401 69.322C97.0254 69.6673 97.3568 70.134 97.5341 70.722C97.6648 71.1233 97.7301 71.6973 97.7301 72.444C97.7301 73.2 97.6648 73.774 97.5341 74.166C97.3568 74.7727 97.0254 75.2487 96.5401 75.594C96.0641 75.9393 95.4901 76.112 94.8181 76.112ZM94.8181 75.244C95.2661 75.244 95.6488 75.1227 95.9661 74.88C96.2834 74.628 96.4981 74.292 96.6101 73.872C96.6941 73.536 96.7361 73.0647 96.7361 72.458C96.7361 71.842 96.6988 71.3707 96.6241 71.044C96.5121 70.624 96.2928 70.2927 95.9661 70.05C95.6488 69.798 95.2614 69.672 94.8041 69.672C94.3468 69.672 93.9594 69.798 93.6421 70.05C93.3248 70.2927 93.1101 70.624 92.9981 71.044C92.9234 71.3707 92.8861 71.842 92.8861 72.458C92.8861 73.074 92.9234 73.5453 92.9981 73.872C93.1008 74.292 93.3108 74.628 93.6281 74.88C93.9548 75.1227 94.3514 75.244 94.8181 75.244ZM102.463 67.068C101.95 67.068 101.6 67.1847 101.413 67.418C101.226 67.642 101.133 68.0293 101.133 68.58V68.86C101.133 68.8973 101.152 68.916 101.189 68.916H102.757C102.85 68.916 102.897 68.9627 102.897 69.056V69.686C102.897 69.7793 102.85 69.826 102.757 69.826H101.189C101.152 69.826 101.133 69.8447 101.133 69.882V75.86C101.133 75.9533 101.086 76 100.993 76H100.293C100.2 76 100.153 75.9533 100.153 75.86V69.882C100.153 69.8447 100.134 69.826 100.097 69.826H99.159C99.0656 69.826 99.019 69.7793 99.019 69.686V69.056C99.019 68.9627 99.0656 68.916 99.159 68.916H100.097C100.134 68.916 100.153 68.8973 100.153 68.86V68.524C100.153 67.9453 100.218 67.4927 100.349 67.166C100.48 66.83 100.704 66.5873 101.021 66.438C101.348 66.2793 101.8 66.2 102.379 66.2H102.785C102.878 66.2 102.925 66.2467 102.925 66.34V66.928C102.925 67.0213 102.878 67.068 102.785 67.068H102.463ZM107.453 67.068C106.94 67.068 106.59 67.1847 106.403 67.418C106.217 67.642 106.123 68.0293 106.123 68.58V68.86C106.123 68.8973 106.142 68.916 106.179 68.916H107.747C107.841 68.916 107.887 68.9627 107.887 69.056V69.686C107.887 69.7793 107.841 69.826 107.747 69.826H106.179C106.142 69.826 106.123 69.8447 106.123 69.882V75.86C106.123 75.9533 106.077 76 105.983 76H105.283C105.19 76 105.143 75.9533 105.143 75.86V69.882C105.143 69.8447 105.125 69.826 105.087 69.826H104.149C104.056 69.826 104.009 69.7793 104.009 69.686V69.056C104.009 68.9627 104.056 68.916 104.149 68.916H105.087C105.125 68.916 105.143 68.8973 105.143 68.86V68.524C105.143 67.9453 105.209 67.4927 105.339 67.166C105.47 66.83 105.694 66.5873 106.011 66.438C106.338 66.2793 106.791 66.2 107.369 66.2H107.775C107.869 66.2 107.915 66.2467 107.915 66.34V66.928C107.915 67.0213 107.869 67.068 107.775 67.068H107.453ZM114.419 71.268C114.457 71.5293 114.475 71.856 114.475 72.248V72.696C114.475 72.7893 114.429 72.836 114.335 72.836H109.813C109.776 72.836 109.757 72.8547 109.757 72.892C109.776 73.4053 109.804 73.7367 109.841 73.886C109.944 74.306 110.163 74.6373 110.499 74.88C110.835 75.1227 111.265 75.244 111.787 75.244C112.179 75.244 112.525 75.1553 112.823 74.978C113.122 74.8007 113.355 74.5487 113.523 74.222C113.579 74.138 113.645 74.1193 113.719 74.166L114.265 74.488C114.34 74.5347 114.359 74.6 114.321 74.684C114.088 75.132 113.738 75.4867 113.271 75.748C112.805 76 112.268 76.126 111.661 76.126C110.999 76.1167 110.443 75.958 109.995 75.65C109.547 75.342 109.225 74.9127 109.029 74.362C108.861 73.914 108.777 73.27 108.777 72.43C108.777 72.038 108.782 71.7207 108.791 71.478C108.81 71.226 108.847 71.002 108.903 70.806C109.062 70.1993 109.379 69.714 109.855 69.35C110.341 68.986 110.924 68.804 111.605 68.804C112.455 68.804 113.108 69.0187 113.565 69.448C114.023 69.8773 114.307 70.484 114.419 71.268ZM111.605 69.672C111.148 69.672 110.765 69.7933 110.457 70.036C110.159 70.2693 109.963 70.5867 109.869 70.988C109.813 71.184 109.776 71.5013 109.757 71.94C109.757 71.9773 109.776 71.996 109.813 71.996H113.439C113.477 71.996 113.495 71.9773 113.495 71.94C113.477 71.52 113.449 71.2213 113.411 71.044C113.309 70.624 113.099 70.2927 112.781 70.05C112.473 69.798 112.081 69.672 111.605 69.672ZM119.308 68.846C119.616 68.846 119.882 68.9067 120.106 69.028C120.181 69.0653 120.209 69.126 120.19 69.21L120.036 69.896C120.008 69.9893 119.947 70.0173 119.854 69.98C119.695 69.9147 119.513 69.882 119.308 69.882L119.126 69.896C118.641 69.9147 118.239 70.0967 117.922 70.442C117.605 70.778 117.446 71.2073 117.446 71.73V75.86C117.446 75.9533 117.399 76 117.306 76H116.592C116.499 76 116.452 75.9533 116.452 75.86V69.056C116.452 68.9627 116.499 68.916 116.592 68.916H117.306C117.399 68.916 117.446 68.9627 117.446 69.056V69.91C117.446 69.938 117.451 69.9567 117.46 69.966C117.479 69.966 117.493 69.9567 117.502 69.938C117.698 69.5927 117.945 69.3267 118.244 69.14C118.552 68.944 118.907 68.846 119.308 68.846ZM123.835 76.07C123.312 76.07 122.845 75.986 122.435 75.818C122.033 75.65 121.721 75.426 121.497 75.146C121.282 74.866 121.175 74.5533 121.175 74.208V74.04C121.175 73.9467 121.221 73.9 121.315 73.9H121.987C122.08 73.9 122.127 73.9467 122.127 74.04V74.152C122.127 74.46 122.285 74.7307 122.603 74.964C122.929 75.188 123.335 75.3 123.821 75.3C124.306 75.3 124.698 75.1927 124.997 74.978C125.295 74.754 125.445 74.474 125.445 74.138C125.445 73.9047 125.365 73.7133 125.207 73.564C125.057 73.4147 124.875 73.298 124.661 73.214C124.455 73.13 124.133 73.0227 123.695 72.892C123.172 72.7427 122.743 72.5933 122.407 72.444C122.071 72.2947 121.786 72.0893 121.553 71.828C121.329 71.5573 121.217 71.2167 121.217 70.806C121.217 70.2087 121.45 69.7327 121.917 69.378C122.383 69.0233 122.999 68.846 123.765 68.846C124.278 68.846 124.731 68.93 125.123 69.098C125.524 69.266 125.832 69.4993 126.047 69.798C126.261 70.0873 126.369 70.414 126.369 70.778V70.82C126.369 70.9133 126.322 70.96 126.229 70.96H125.571C125.477 70.96 125.431 70.9133 125.431 70.82V70.778C125.431 70.4607 125.277 70.1947 124.969 69.98C124.67 69.7653 124.264 69.658 123.751 69.658C123.275 69.658 122.892 69.756 122.603 69.952C122.313 70.1387 122.169 70.4 122.169 70.736C122.169 71.0533 122.309 71.296 122.589 71.464C122.869 71.632 123.303 71.8 123.891 71.968C124.432 72.1267 124.871 72.276 125.207 72.416C125.543 72.556 125.832 72.7613 126.075 73.032C126.317 73.2933 126.439 73.6387 126.439 74.068C126.439 74.6747 126.201 75.16 125.725 75.524C125.249 75.888 124.619 76.07 123.835 76.07Z" fill="#112B3C"/>
<g filter="url(#filter0_d_1_236)">
<rect x="40" y="98" width="270" height="51" rx="25.5" fill="white"/>
</g>
<circle cx="286" cy="124" r="16" fill="#E61C5D"/>
<path d="M281.058 131.312C280.218 131.312 279.685 131.027 279.348 130.69C278.688 130.03 278.223 128.627 279.708 125.65L280.36 124.352C280.443 124.18 280.443 123.82 280.36 123.647L279.708 122.35C278.215 119.372 278.688 117.962 279.348 117.31C280 116.65 281.41 116.177 284.38 117.67L290.8 120.88C292.398 121.675 293.275 122.785 293.275 124C293.275 125.215 292.398 126.325 290.808 127.12L284.388 130.33C282.933 131.057 281.853 131.312 281.058 131.312ZM281.058 117.812C280.653 117.812 280.338 117.91 280.143 118.105C279.595 118.645 279.813 120.047 280.713 121.84L281.365 123.145C281.605 123.632 281.605 124.367 281.365 124.855L280.713 126.152C279.813 127.952 279.595 129.347 280.143 129.887C280.683 130.435 282.085 130.217 283.885 129.317L290.305 126.107C291.483 125.522 292.15 124.75 292.15 123.992C292.15 123.235 291.475 122.462 290.298 121.877L283.878 118.675C282.738 118.105 281.755 117.812 281.058 117.812Z" fill="white"/>
<path d="M285.13 124.562H281.08C280.773 124.562 280.518 124.308 280.518 124C280.518 123.692 280.773 123.438 281.08 123.438H285.13C285.438 123.438 285.693 123.692 285.693 124C285.693 124.308 285.438 124.562 285.13 124.562Z" fill="white"/>
<path d="M65.564 121.224C65.564 121.304 65.524 121.344 65.444 121.344H61.028C60.996 121.344 60.98 121.36 60.98 121.392V124.356C60.98 124.388 60.996 124.404 61.028 124.404H64.124C64.204 124.404 64.244 124.444 64.244 124.524V125.028C64.244 125.108 64.204 125.148 64.124 125.148H61.028C60.996 125.148 60.98 125.164 60.98 125.196V128.208C60.98 128.24 60.996 128.256 61.028 128.256H65.444C65.524 128.256 65.564 128.296 65.564 128.376V128.88C65.564 128.96 65.524 129 65.444 129H60.248C60.168 129 60.128 128.96 60.128 128.88V120.72C60.128 120.64 60.168 120.6 60.248 120.6H65.444C65.524 120.6 65.564 120.64 65.564 120.72V121.224ZM69.7456 122.844C70.3856 122.844 70.8936 123.032 71.2696 123.408C71.6536 123.784 71.8456 124.288 71.8456 124.92V128.88C71.8456 128.96 71.8056 129 71.7256 129H71.1136C71.0336 129 70.9936 128.96 70.9936 128.88V125.088C70.9936 124.648 70.8576 124.288 70.5856 124.008C70.3216 123.728 69.9776 123.588 69.5536 123.588C69.1136 123.588 68.7576 123.724 68.4856 123.996C68.2136 124.268 68.0776 124.624 68.0776 125.064V128.88C68.0776 128.96 68.0376 129 67.9576 129H67.3456C67.2656 129 67.2256 128.96 67.2256 128.88V123.048C67.2256 122.968 67.2656 122.928 67.3456 122.928H67.9576C68.0376 122.928 68.0776 122.968 68.0776 123.048V123.564C68.0776 123.58 68.0816 123.592 68.0896 123.6C68.1056 123.608 68.1176 123.604 68.1256 123.588C68.4776 123.092 69.0176 122.844 69.7456 122.844ZM76.4184 123.516C76.4184 123.596 76.3784 123.636 76.2984 123.636H74.9424C74.9104 123.636 74.8944 123.652 74.8944 123.684V127.224C74.8944 127.608 74.9784 127.88 75.1464 128.04C75.3224 128.192 75.5944 128.268 75.9624 128.268H76.2624C76.3424 128.268 76.3824 128.308 76.3824 128.388V128.88C76.3824 128.96 76.3424 129 76.2624 129C76.1664 129.008 76.0184 129.012 75.8184 129.012C75.2424 129.012 74.8064 128.904 74.5104 128.688C74.2144 128.472 74.0664 128.072 74.0664 127.488V123.684C74.0664 123.652 74.0504 123.636 74.0184 123.636H73.2864C73.2064 123.636 73.1664 123.596 73.1664 123.516V123.048C73.1664 122.968 73.2064 122.928 73.2864 122.928H74.0184C74.0504 122.928 74.0664 122.912 74.0664 122.88V121.488C74.0664 121.408 74.1064 121.368 74.1864 121.368H74.7744C74.8544 121.368 74.8944 121.408 74.8944 121.488V122.88C74.8944 122.912 74.9104 122.928 74.9424 122.928H76.2984C76.3784 122.928 76.4184 122.968 76.4184 123.048V123.516ZM82.5457 124.944C82.5777 125.168 82.5937 125.448 82.5937 125.784V126.168C82.5937 126.248 82.5537 126.288 82.4737 126.288H78.5977C78.5657 126.288 78.5497 126.304 78.5497 126.336C78.5657 126.776 78.5897 127.06 78.6217 127.188C78.7097 127.548 78.8977 127.832 79.1857 128.04C79.4737 128.248 79.8417 128.352 80.2897 128.352C80.6257 128.352 80.9217 128.276 81.1777 128.124C81.4337 127.972 81.6337 127.756 81.7777 127.476C81.8257 127.404 81.8817 127.388 81.9457 127.428L82.4137 127.704C82.4777 127.744 82.4937 127.8 82.4617 127.872C82.2617 128.256 81.9617 128.56 81.5617 128.784C81.1617 129 80.7017 129.108 80.1817 129.108C79.6137 129.1 79.1377 128.964 78.7537 128.7C78.3697 128.436 78.0937 128.068 77.9257 127.596C77.7817 127.212 77.7097 126.66 77.7097 125.94C77.7097 125.604 77.7137 125.332 77.7217 125.124C77.7377 124.908 77.7697 124.716 77.8177 124.548C77.9537 124.028 78.2257 123.612 78.6337 123.3C79.0497 122.988 79.5497 122.832 80.1337 122.832C80.8617 122.832 81.4217 123.016 81.8137 123.384C82.2057 123.752 82.4497 124.272 82.5457 124.944ZM80.1337 123.576C79.7417 123.576 79.4137 123.68 79.1497 123.888C78.8937 124.088 78.7257 124.36 78.6457 124.704C78.5977 124.872 78.5657 125.144 78.5497 125.52C78.5497 125.552 78.5657 125.568 78.5977 125.568H81.7057C81.7377 125.568 81.7537 125.552 81.7537 125.52C81.7377 125.16 81.7137 124.904 81.6817 124.752C81.5937 124.392 81.4137 124.108 81.1417 123.9C80.8777 123.684 80.5417 123.576 80.1337 123.576ZM86.7361 122.868C87.0001 122.868 87.2281 122.92 87.4201 123.024C87.4841 123.056 87.5081 123.108 87.4921 123.18L87.3601 123.768C87.3361 123.848 87.2841 123.872 87.2041 123.84C87.0681 123.784 86.9121 123.756 86.7361 123.756L86.5801 123.768C86.1641 123.784 85.8201 123.94 85.5481 124.236C85.2761 124.524 85.1401 124.892 85.1401 125.34V128.88C85.1401 128.96 85.1001 129 85.0201 129H84.4081C84.3281 129 84.2881 128.96 84.2881 128.88V123.048C84.2881 122.968 84.3281 122.928 84.4081 122.928H85.0201C85.1001 122.928 85.1401 122.968 85.1401 123.048V123.78C85.1401 123.804 85.1441 123.82 85.1521 123.828C85.1681 123.828 85.1801 123.82 85.1881 123.804C85.3561 123.508 85.5681 123.28 85.8241 123.12C86.0881 122.952 86.3921 122.868 86.7361 122.868ZM90.7856 131.4C90.7296 131.4 90.7016 131.36 90.7016 131.28V130.8C90.7016 130.72 90.7416 130.68 90.8216 130.68H90.8696C91.1816 130.672 91.4216 130.624 91.5896 130.536C91.7656 130.456 91.9136 130.3 92.0336 130.068C92.1616 129.844 92.2976 129.5 92.4416 129.036C92.4576 129.004 92.4576 128.98 92.4416 128.964L90.4136 123.06L90.4016 123.012C90.4016 122.956 90.4376 122.928 90.5096 122.928H91.1456C91.2176 122.928 91.2656 122.96 91.2896 123.024L92.8496 127.872C92.8576 127.888 92.8696 127.896 92.8856 127.896C92.9016 127.896 92.9136 127.888 92.9216 127.872L94.4576 123.024C94.4816 122.96 94.5296 122.928 94.6016 122.928H95.2256C95.3136 122.928 95.3456 122.972 95.3216 123.06L93.1016 129.528C92.9096 130.064 92.7296 130.46 92.5616 130.716C92.3936 130.972 92.1816 131.148 91.9256 131.244C91.6776 131.348 91.3256 131.4 90.8696 131.4H90.7856ZM98.7096 129.096C98.1336 129.096 97.6376 128.948 97.2216 128.652C96.8056 128.356 96.5176 127.948 96.3576 127.428C96.2456 127.06 96.1896 126.568 96.1896 125.952C96.1896 125.336 96.2456 124.848 96.3576 124.488C96.5096 123.976 96.7936 123.572 97.2096 123.276C97.6256 122.98 98.1296 122.832 98.7216 122.832C99.2896 122.832 99.7776 122.98 100.186 123.276C100.602 123.572 100.886 123.972 101.038 124.476C101.15 124.82 101.206 125.312 101.206 125.952C101.206 126.6 101.15 127.092 101.038 127.428C100.886 127.948 100.602 128.356 100.186 128.652C99.7776 128.948 99.2856 129.096 98.7096 129.096ZM98.7096 128.352C99.0936 128.352 99.4216 128.248 99.6936 128.04C99.9656 127.824 100.15 127.536 100.246 127.176C100.318 126.888 100.354 126.484 100.354 125.964C100.354 125.436 100.322 125.032 100.258 124.752C100.162 124.392 99.9736 124.108 99.6936 123.9C99.4216 123.684 99.0896 123.576 98.6976 123.576C98.3056 123.576 97.9736 123.684 97.7016 123.9C97.4296 124.108 97.2456 124.392 97.1496 124.752C97.0856 125.032 97.0536 125.436 97.0536 125.964C97.0536 126.492 97.0856 126.896 97.1496 127.176C97.2376 127.536 97.4176 127.824 97.6896 128.04C97.9696 128.248 98.3096 128.352 98.7096 128.352ZM106.605 123.048C106.605 122.968 106.645 122.928 106.725 122.928H107.337C107.417 122.928 107.457 122.968 107.457 123.048V128.88C107.457 128.96 107.417 129 107.337 129H106.725C106.645 129 106.605 128.96 106.605 128.88V128.364C106.605 128.348 106.597 128.336 106.581 128.328C106.565 128.32 106.553 128.324 106.545 128.34C106.209 128.836 105.677 129.084 104.949 129.084C104.565 129.084 104.209 129.008 103.881 128.856C103.561 128.696 103.305 128.468 103.113 128.172C102.929 127.876 102.837 127.52 102.837 127.104V123.048C102.837 122.968 102.877 122.928 102.957 122.928H103.569C103.649 122.928 103.689 122.968 103.689 123.048V126.852C103.689 127.308 103.817 127.672 104.073 127.944C104.329 128.208 104.677 128.34 105.117 128.34C105.573 128.34 105.933 128.204 106.197 127.932C106.469 127.66 106.605 127.3 106.605 126.852V123.048ZM111.814 122.868C112.078 122.868 112.306 122.92 112.498 123.024C112.562 123.056 112.586 123.108 112.57 123.18L112.438 123.768C112.414 123.848 112.362 123.872 112.282 123.84C112.146 123.784 111.99 123.756 111.814 123.756L111.658 123.768C111.242 123.784 110.898 123.94 110.626 124.236C110.354 124.524 110.218 124.892 110.218 125.34V128.88C110.218 128.96 110.178 129 110.098 129H109.486C109.406 129 109.366 128.96 109.366 128.88V123.048C109.366 122.968 109.406 122.928 109.486 122.928H110.098C110.178 122.928 110.218 122.968 110.218 123.048V123.78C110.218 123.804 110.222 123.82 110.23 123.828C110.246 123.828 110.258 123.82 110.266 123.804C110.434 123.508 110.646 123.28 110.902 123.12C111.166 122.952 111.47 122.868 111.814 122.868ZM120.796 124.944C120.828 125.168 120.844 125.448 120.844 125.784V126.168C120.844 126.248 120.804 126.288 120.724 126.288H116.848C116.816 126.288 116.8 126.304 116.8 126.336C116.816 126.776 116.84 127.06 116.872 127.188C116.96 127.548 117.148 127.832 117.436 128.04C117.724 128.248 118.092 128.352 118.54 128.352C118.876 128.352 119.172 128.276 119.428 128.124C119.684 127.972 119.884 127.756 120.028 127.476C120.076 127.404 120.132 127.388 120.196 127.428L120.664 127.704C120.728 127.744 120.744 127.8 120.712 127.872C120.512 128.256 120.212 128.56 119.812 128.784C119.412 129 118.952 129.108 118.432 129.108C117.864 129.1 117.388 128.964 117.004 128.7C116.62 128.436 116.344 128.068 116.176 127.596C116.032 127.212 115.96 126.66 115.96 125.94C115.96 125.604 115.964 125.332 115.972 125.124C115.988 124.908 116.02 124.716 116.068 124.548C116.204 124.028 116.476 123.612 116.884 123.3C117.3 122.988 117.8 122.832 118.384 122.832C119.112 122.832 119.672 123.016 120.064 123.384C120.456 123.752 120.7 124.272 120.796 124.944ZM118.384 123.576C117.992 123.576 117.664 123.68 117.4 123.888C117.144 124.088 116.976 124.36 116.896 124.704C116.848 124.872 116.816 125.144 116.8 125.52C116.8 125.552 116.816 125.568 116.848 125.568H119.956C119.988 125.568 120.004 125.552 120.004 125.52C119.988 125.16 119.964 124.904 119.932 124.752C119.844 124.392 119.664 124.108 119.392 123.9C119.128 123.684 118.792 123.576 118.384 123.576ZM128.682 122.844C129.282 122.844 129.754 123.024 130.098 123.384C130.45 123.744 130.626 124.236 130.626 124.86V128.88C130.626 128.96 130.586 129 130.506 129H129.906C129.826 129 129.786 128.96 129.786 128.88V125.028C129.786 124.588 129.658 124.24 129.402 123.984C129.154 123.72 128.826 123.588 128.418 123.588C127.994 123.588 127.65 123.716 127.386 123.972C127.13 124.228 127.002 124.572 127.002 125.004V128.88C127.002 128.96 126.962 129 126.882 129H126.27C126.19 129 126.15 128.96 126.15 128.88V125.028C126.15 124.588 126.026 124.24 125.778 123.984C125.53 123.72 125.198 123.588 124.782 123.588C124.358 123.588 124.018 123.716 123.762 123.972C123.514 124.228 123.39 124.572 123.39 125.004V128.88C123.39 128.96 123.35 129 123.27 129H122.658C122.578 129 122.538 128.96 122.538 128.88V123.048C122.538 122.968 122.578 122.928 122.658 122.928H123.27C123.35 122.928 123.39 122.968 123.39 123.048V123.528C123.39 123.544 123.394 123.556 123.402 123.564C123.418 123.564 123.434 123.556 123.45 123.54C123.626 123.308 123.85 123.136 124.122 123.024C124.402 122.904 124.71 122.844 125.046 122.844C125.462 122.844 125.818 122.928 126.114 123.096C126.41 123.264 126.634 123.508 126.786 123.828C126.802 123.868 126.822 123.868 126.846 123.828C127.022 123.5 127.27 123.256 127.59 123.096C127.91 122.928 128.274 122.844 128.682 122.844ZM134.564 122.832C135.284 122.832 135.84 123.016 136.232 123.384C136.624 123.752 136.82 124.24 136.82 124.848V128.88C136.82 128.96 136.78 129 136.7 129H136.088C136.008 129 135.968 128.96 135.968 128.88V128.388C135.968 128.372 135.96 128.36 135.944 128.352C135.936 128.344 135.924 128.348 135.908 128.364C135.708 128.604 135.448 128.788 135.128 128.916C134.808 129.036 134.452 129.096 134.06 129.096C133.492 129.096 133.016 128.952 132.632 128.664C132.248 128.376 132.056 127.936 132.056 127.344C132.056 126.744 132.272 126.272 132.704 125.928C133.144 125.576 133.752 125.4 134.528 125.4H135.92C135.952 125.4 135.968 125.384 135.968 125.352V124.896C135.968 124.488 135.852 124.168 135.62 123.936C135.396 123.696 135.044 123.576 134.564 123.576C134.18 123.576 133.868 123.652 133.628 123.804C133.388 123.948 133.24 124.152 133.184 124.416C133.16 124.496 133.112 124.532 133.04 124.524L132.392 124.44C132.304 124.424 132.268 124.392 132.284 124.344C132.348 123.896 132.588 123.532 133.004 123.252C133.42 122.972 133.94 122.832 134.564 122.832ZM134.228 128.364C134.7 128.364 135.108 128.248 135.452 128.016C135.796 127.776 135.968 127.456 135.968 127.056V126.12C135.968 126.088 135.952 126.072 135.92 126.072H134.66C134.132 126.072 133.708 126.18 133.388 126.396C133.068 126.612 132.908 126.912 132.908 127.296C132.908 127.648 133.028 127.916 133.268 128.1C133.516 128.276 133.836 128.364 134.228 128.364ZM139.169 121.824C138.977 121.824 138.817 121.76 138.689 121.632C138.561 121.504 138.497 121.344 138.497 121.152C138.497 120.952 138.561 120.792 138.689 120.672C138.817 120.544 138.977 120.48 139.169 120.48C139.361 120.48 139.521 120.544 139.649 120.672C139.777 120.792 139.841 120.952 139.841 121.152C139.841 121.344 139.777 121.504 139.649 121.632C139.521 121.76 139.361 121.824 139.169 121.824ZM138.833 128.988C138.753 128.988 138.713 128.948 138.713 128.868V123.036C138.713 122.956 138.753 122.916 138.833 122.916H139.445C139.525 122.916 139.565 122.956 139.565 123.036V128.868C139.565 128.948 139.525 128.988 139.445 128.988H138.833ZM141.771 129C141.691 129 141.651 128.96 141.651 128.88V120.72C141.651 120.64 141.691 120.6 141.771 120.6H142.383C142.463 120.6 142.503 120.64 142.503 120.72V128.88C142.503 128.96 142.463 129 142.383 129H141.771ZM148.919 122.832C149.639 122.832 150.195 123.016 150.587 123.384C150.979 123.752 151.175 124.24 151.175 124.848V128.88C151.175 128.96 151.135 129 151.055 129H150.443C150.363 129 150.323 128.96 150.323 128.88V128.388C150.323 128.372 150.315 128.36 150.299 128.352C150.291 128.344 150.279 128.348 150.263 128.364C150.063 128.604 149.803 128.788 149.483 128.916C149.163 129.036 148.807 129.096 148.415 129.096C147.847 129.096 147.371 128.952 146.987 128.664C146.603 128.376 146.411 127.936 146.411 127.344C146.411 126.744 146.627 126.272 147.059 125.928C147.499 125.576 148.107 125.4 148.883 125.4H150.275C150.307 125.4 150.323 125.384 150.323 125.352V124.896C150.323 124.488 150.207 124.168 149.975 123.936C149.751 123.696 149.399 123.576 148.919 123.576C148.535 123.576 148.223 123.652 147.983 123.804C147.743 123.948 147.595 124.152 147.539 124.416C147.515 124.496 147.467 124.532 147.395 124.524L146.747 124.44C146.659 124.424 146.623 124.392 146.639 124.344C146.703 123.896 146.943 123.532 147.359 123.252C147.775 122.972 148.295 122.832 148.919 122.832ZM148.583 128.364C149.055 128.364 149.463 128.248 149.807 128.016C150.151 127.776 150.323 127.456 150.323 127.056V126.12C150.323 126.088 150.307 126.072 150.275 126.072H149.015C148.487 126.072 148.063 126.18 147.743 126.396C147.423 126.612 147.263 126.912 147.263 127.296C147.263 127.648 147.383 127.916 147.623 128.1C147.871 128.276 148.191 128.364 148.583 128.364ZM156.716 120.72C156.716 120.64 156.756 120.6 156.836 120.6H157.448C157.528 120.6 157.568 120.64 157.568 120.72V128.88C157.568 128.96 157.528 129 157.448 129H156.836C156.756 129 156.716 128.96 156.716 128.88V128.376C156.716 128.36 156.708 128.352 156.692 128.352C156.684 128.344 156.672 128.348 156.656 128.364C156.48 128.596 156.26 128.776 155.996 128.904C155.74 129.032 155.452 129.096 155.132 129.096C154.572 129.096 154.1 128.952 153.716 128.664C153.34 128.376 153.08 127.984 152.936 127.488C152.824 127.128 152.768 126.62 152.768 125.964C152.768 125.3 152.816 124.804 152.912 124.476C153.056 123.964 153.32 123.564 153.704 123.276C154.088 122.98 154.564 122.832 155.132 122.832C155.444 122.832 155.732 122.896 155.996 123.024C156.26 123.144 156.48 123.32 156.656 123.552C156.672 123.568 156.684 123.576 156.692 123.576C156.708 123.568 156.716 123.556 156.716 123.54V120.72ZM156.5 127.428C156.572 127.268 156.624 127.08 156.656 126.864C156.688 126.648 156.704 126.348 156.704 125.964C156.704 125.58 156.688 125.28 156.656 125.064C156.624 124.84 156.568 124.644 156.488 124.476C156.392 124.204 156.232 123.988 156.008 123.828C155.792 123.66 155.532 123.576 155.228 123.576C154.908 123.576 154.632 123.656 154.4 123.816C154.168 123.976 154 124.188 153.896 124.452C153.8 124.628 153.728 124.828 153.68 125.052C153.64 125.268 153.62 125.572 153.62 125.964C153.62 126.34 153.636 126.636 153.668 126.852C153.7 127.06 153.756 127.248 153.836 127.416C153.932 127.704 154.1 127.932 154.34 128.1C154.588 128.268 154.88 128.352 155.216 128.352C155.536 128.352 155.804 128.268 156.02 128.1C156.236 127.932 156.396 127.708 156.5 127.428ZM163.267 120.72C163.267 120.64 163.307 120.6 163.387 120.6H163.999C164.079 120.6 164.119 120.64 164.119 120.72V128.88C164.119 128.96 164.079 129 163.999 129H163.387C163.307 129 163.267 128.96 163.267 128.88V128.376C163.267 128.36 163.259 128.352 163.243 128.352C163.235 128.344 163.223 128.348 163.207 128.364C163.031 128.596 162.811 128.776 162.547 128.904C162.291 129.032 162.003 129.096 161.683 129.096C161.123 129.096 160.651 128.952 160.267 128.664C159.891 128.376 159.631 127.984 159.487 127.488C159.375 127.128 159.319 126.62 159.319 125.964C159.319 125.3 159.367 124.804 159.463 124.476C159.607 123.964 159.871 123.564 160.255 123.276C160.639 122.98 161.115 122.832 161.683 122.832C161.995 122.832 162.283 122.896 162.547 123.024C162.811 123.144 163.031 123.32 163.207 123.552C163.223 123.568 163.235 123.576 163.243 123.576C163.259 123.568 163.267 123.556 163.267 123.54V120.72ZM163.051 127.428C163.123 127.268 163.175 127.08 163.207 126.864C163.239 126.648 163.255 126.348 163.255 125.964C163.255 125.58 163.239 125.28 163.207 125.064C163.175 124.84 163.119 124.644 163.039 124.476C162.943 124.204 162.783 123.988 162.559 123.828C162.343 123.66 162.083 123.576 161.779 123.576C161.459 123.576 161.183 123.656 160.951 123.816C160.719 123.976 160.551 124.188 160.447 124.452C160.351 124.628 160.279 124.828 160.231 125.052C160.191 125.268 160.171 125.572 160.171 125.964C160.171 126.34 160.187 126.636 160.219 126.852C160.251 127.06 160.307 127.248 160.387 127.416C160.483 127.704 160.651 127.932 160.891 128.1C161.139 128.268 161.431 128.352 161.767 128.352C162.087 128.352 162.355 128.268 162.571 128.1C162.787 127.932 162.947 127.708 163.051 127.428ZM168.498 122.868C168.762 122.868 168.99 122.92 169.182 123.024C169.246 123.056 169.27 123.108 169.254 123.18L169.122 123.768C169.098 123.848 169.046 123.872 168.966 123.84C168.83 123.784 168.674 123.756 168.498 123.756L168.342 123.768C167.926 123.784 167.582 123.94 167.31 124.236C167.038 124.524 166.902 124.892 166.902 125.34V128.88C166.902 128.96 166.862 129 166.782 129H166.17C166.09 129 166.05 128.96 166.05 128.88V123.048C166.05 122.968 166.09 122.928 166.17 122.928H166.782C166.862 122.928 166.902 122.968 166.902 123.048V123.78C166.902 123.804 166.906 123.82 166.914 123.828C166.93 123.828 166.942 123.82 166.95 123.804C167.118 123.508 167.33 123.28 167.586 123.12C167.85 122.952 168.154 122.868 168.498 122.868ZM175.018 124.944C175.05 125.168 175.066 125.448 175.066 125.784V126.168C175.066 126.248 175.026 126.288 174.946 126.288H171.07C171.038 126.288 171.022 126.304 171.022 126.336C171.038 126.776 171.062 127.06 171.094 127.188C171.182 127.548 171.37 127.832 171.658 128.04C171.946 128.248 172.314 128.352 172.762 128.352C173.098 128.352 173.394 128.276 173.65 128.124C173.906 127.972 174.106 127.756 174.25 127.476C174.298 127.404 174.354 127.388 174.418 127.428L174.886 127.704C174.95 127.744 174.966 127.8 174.934 127.872C174.734 128.256 174.434 128.56 174.034 128.784C173.634 129 173.174 129.108 172.654 129.108C172.086 129.1 171.61 128.964 171.226 128.7C170.842 128.436 170.566 128.068 170.398 127.596C170.254 127.212 170.182 126.66 170.182 125.94C170.182 125.604 170.186 125.332 170.194 125.124C170.21 124.908 170.242 124.716 170.29 124.548C170.426 124.028 170.698 123.612 171.106 123.3C171.522 122.988 172.022 122.832 172.606 122.832C173.334 122.832 173.894 123.016 174.286 123.384C174.678 123.752 174.922 124.272 175.018 124.944ZM172.606 123.576C172.214 123.576 171.886 123.68 171.622 123.888C171.366 124.088 171.198 124.36 171.118 124.704C171.07 124.872 171.038 125.144 171.022 125.52C171.022 125.552 171.038 125.568 171.07 125.568H174.178C174.21 125.568 174.226 125.552 174.226 125.52C174.21 125.16 174.186 124.904 174.154 124.752C174.066 124.392 173.886 124.108 173.614 123.9C173.35 123.684 173.014 123.576 172.606 123.576ZM178.647 129.06C178.199 129.06 177.799 128.988 177.447 128.844C177.103 128.7 176.835 128.508 176.643 128.268C176.459 128.028 176.367 127.76 176.367 127.464V127.32C176.367 127.24 176.407 127.2 176.487 127.2H177.063C177.143 127.2 177.183 127.24 177.183 127.32V127.416C177.183 127.68 177.319 127.912 177.591 128.112C177.871 128.304 178.219 128.4 178.635 128.4C179.051 128.4 179.387 128.308 179.643 128.124C179.899 127.932 180.027 127.692 180.027 127.404C180.027 127.204 179.959 127.04 179.823 126.912C179.695 126.784 179.539 126.684 179.355 126.612C179.179 126.54 178.903 126.448 178.527 126.336C178.079 126.208 177.711 126.08 177.423 125.952C177.135 125.824 176.891 125.648 176.691 125.424C176.499 125.192 176.403 124.9 176.403 124.548C176.403 124.036 176.603 123.628 177.003 123.324C177.403 123.02 177.931 122.868 178.587 122.868C179.027 122.868 179.415 122.94 179.751 123.084C180.095 123.228 180.359 123.428 180.543 123.684C180.727 123.932 180.819 124.212 180.819 124.524V124.56C180.819 124.64 180.779 124.68 180.699 124.68H180.135C180.055 124.68 180.015 124.64 180.015 124.56V124.524C180.015 124.252 179.883 124.024 179.619 123.84C179.363 123.656 179.015 123.564 178.575 123.564C178.167 123.564 177.839 123.648 177.591 123.816C177.343 123.976 177.219 124.2 177.219 124.488C177.219 124.76 177.339 124.968 177.579 125.112C177.819 125.256 178.191 125.4 178.695 125.544C179.159 125.68 179.535 125.808 179.823 125.928C180.111 126.048 180.359 126.224 180.567 126.456C180.775 126.68 180.879 126.976 180.879 127.344C180.879 127.864 180.675 128.28 180.267 128.592C179.859 128.904 179.319 129.06 178.647 129.06ZM184.249 129.06C183.801 129.06 183.401 128.988 183.049 128.844C182.705 128.7 182.437 128.508 182.245 128.268C182.061 128.028 181.969 127.76 181.969 127.464V127.32C181.969 127.24 182.009 127.2 182.089 127.2H182.665C182.745 127.2 182.785 127.24 182.785 127.32V127.416C182.785 127.68 182.921 127.912 183.193 128.112C183.473 128.304 183.821 128.4 184.237 128.4C184.653 128.4 184.989 128.308 185.245 128.124C185.501 127.932 185.629 127.692 185.629 127.404C185.629 127.204 185.561 127.04 185.425 126.912C185.297 126.784 185.141 126.684 184.957 126.612C184.781 126.54 184.505 126.448 184.129 126.336C183.681 126.208 183.313 126.08 183.025 125.952C182.737 125.824 182.493 125.648 182.293 125.424C182.101 125.192 182.005 124.9 182.005 124.548C182.005 124.036 182.205 123.628 182.605 123.324C183.005 123.02 183.533 122.868 184.189 122.868C184.629 122.868 185.017 122.94 185.353 123.084C185.697 123.228 185.961 123.428 186.145 123.684C186.329 123.932 186.421 124.212 186.421 124.524V124.56C186.421 124.64 186.381 124.68 186.301 124.68H185.737C185.657 124.68 185.617 124.64 185.617 124.56V124.524C185.617 124.252 185.485 124.024 185.221 123.84C184.965 123.656 184.617 123.564 184.177 123.564C183.769 123.564 183.441 123.648 183.193 123.816C182.945 123.976 182.821 124.2 182.821 124.488C182.821 124.76 182.941 124.968 183.181 125.112C183.421 125.256 183.793 125.4 184.297 125.544C184.761 125.68 185.137 125.808 185.425 125.928C185.713 126.048 185.961 126.224 186.169 126.456C186.377 126.68 186.481 126.976 186.481 127.344C186.481 127.864 186.277 128.28 185.869 128.592C185.461 128.904 184.921 129.06 184.249 129.06Z" fill="#808080"/>
<defs>
<filter id="filter0_d_1_236" x="0" y="70" width="350" height="131" filterUnits="userSpaceOnUse" color-interpolation-filters="sRGB">
<feFlood flood-opacity="0" result="BackgroundImageFix"/>
<feColorMatrix in="SourceAlpha" type="matrix" values="0 0 0 0 0 0 0 0 0 0 0 0 0 0 0 0 0 0 127 0" result="hardAlpha"/>
<feOffset dy="12"/>
<feGaussianBlur stdDeviation="20"/>
<feComposite in2="hardAlpha" operator="out"/>
<feColorMatrix type="matrix" values="0 0 0 0 0 0 0 0 0 0 0 0 0 0 0 0 0 0 0.04 0"/>
<feBlend mode="normal" in2="BackgroundImageFix" result="effect1_dropShadow_1_236"/>
<feBlend mode="normal" in="SourceGraphic" in2="effect1_dropShadow_1_236" result="shape"/>
</filter>
</defs>
</svg>
