<svg width="92" height="162" viewBox="0 0 92 162" fill="none" xmlns="http://www.w3.org/2000/svg">
<path d="M5.53031 18.144C4.57031 18.144 3.7303 17.994 3.0103 17.694C2.2903 17.382 1.7323 16.944 1.3363 16.38C0.952305 15.804 0.760305 15.138 0.760305 14.382V13.986C0.760305 13.926 0.778305 13.878 0.814305 13.842C0.862305 13.794 0.916305 13.77 0.976305 13.77H3.0283C3.0883 13.77 3.1363 13.794 3.1723 13.842C3.2203 13.878 3.2443 13.926 3.2443 13.986V14.256C3.2443 14.736 3.4663 15.144 3.9103 15.48C4.3543 15.804 4.9543 15.966 5.71031 15.966C6.34631 15.966 6.82031 15.834 7.1323 15.57C7.4443 15.294 7.6003 14.958 7.6003 14.562C7.6003 14.274 7.5043 14.034 7.3123 13.842C7.1203 13.638 6.8563 13.464 6.5203 13.32C6.19631 13.164 5.67431 12.954 4.95431 12.69C4.1503 12.414 3.4663 12.132 2.9023 11.844C2.3503 11.556 1.8823 11.166 1.4983 10.674C1.1263 10.17 0.940305 9.552 0.940305 8.82C0.940305 8.1 1.1263 7.47 1.4983 6.93C1.8703 6.39 2.3863 5.976 3.0463 5.688C3.7063 5.4 4.4683 5.256 5.33231 5.256C6.24431 5.256 7.05431 5.418 7.7623 5.742C8.4823 6.066 9.0403 6.522 9.4363 7.11C9.84431 7.686 10.0483 8.358 10.0483 9.126V9.396C10.0483 9.456 10.0243 9.51 9.97631 9.558C9.94031 9.594 9.89231 9.612 9.83231 9.612H7.7623C7.7023 9.612 7.6483 9.594 7.6003 9.558C7.5643 9.51 7.54631 9.456 7.54631 9.396V9.252C7.54631 8.748 7.33631 8.322 6.91631 7.974C6.5083 7.614 5.9443 7.434 5.2243 7.434C4.6603 7.434 4.2163 7.554 3.8923 7.794C3.5803 8.034 3.4243 8.364 3.4243 8.784C3.4243 9.084 3.5143 9.336 3.6943 9.54C3.8863 9.744 4.1623 9.93 4.5223 10.098C4.8943 10.254 5.4643 10.47 6.2323 10.746C7.0843 11.058 7.75031 11.334 8.23031 11.574C8.72231 11.814 9.16031 12.174 9.54431 12.654C9.94031 13.122 10.1383 13.734 10.1383 14.49C10.1383 15.618 9.72431 16.512 8.89631 17.172C8.06831 17.82 6.94631 18.144 5.53031 18.144ZM17.1534 8.964C17.1534 8.904 17.1714 8.856 17.2074 8.82C17.2554 8.772 17.3094 8.748 17.3694 8.748H19.4754C19.5354 8.748 19.5834 8.772 19.6194 8.82C19.6674 8.856 19.6914 8.904 19.6914 8.964V17.784C19.6914 17.844 19.6674 17.898 19.6194 17.946C19.5834 17.982 19.5354 18 19.4754 18H17.3694C17.3094 18 17.2554 17.982 17.2074 17.946C17.1714 17.898 17.1534 17.844 17.1534 17.784V17.172C17.1534 17.136 17.1414 17.118 17.1174 17.118C17.0934 17.106 17.0694 17.118 17.0454 17.154C16.5654 17.802 15.8214 18.126 14.8134 18.126C13.9014 18.126 13.1514 17.85 12.5634 17.298C11.9754 16.746 11.6814 15.972 11.6814 14.976V8.964C11.6814 8.904 11.6994 8.856 11.7354 8.82C11.7834 8.772 11.8374 8.748 11.8974 8.748H13.9854C14.0454 8.748 14.0934 8.772 14.1294 8.82C14.1774 8.856 14.2014 8.904 14.2014 8.964V14.346C14.2014 14.826 14.3274 15.216 14.5794 15.516C14.8434 15.816 15.2034 15.966 15.6594 15.966C16.0674 15.966 16.4034 15.846 16.6674 15.606C16.9314 15.354 17.0934 15.03 17.1534 14.634V8.964ZM29.824 11.232C30.04 11.844 30.148 12.564 30.148 13.392C30.148 14.22 30.034 14.97 29.806 15.642C29.53 16.41 29.092 17.022 28.492 17.478C27.904 17.922 27.172 18.144 26.296 18.144C25.432 18.144 24.76 17.844 24.28 17.244C24.256 17.208 24.232 17.196 24.208 17.208C24.184 17.22 24.172 17.244 24.172 17.28V21.132C24.172 21.192 24.148 21.24 24.1 21.276C24.064 21.324 24.016 21.348 23.956 21.348H21.85C21.79 21.348 21.736 21.324 21.688 21.276C21.652 21.24 21.634 21.192 21.634 21.132V8.964C21.634 8.904 21.652 8.856 21.688 8.82C21.736 8.772 21.79 8.748 21.85 8.748H23.956C24.016 8.748 24.064 8.772 24.1 8.82C24.148 8.856 24.172 8.904 24.172 8.964V9.558C24.172 9.594 24.184 9.618 24.208 9.63C24.232 9.63 24.256 9.618 24.28 9.594C24.784 8.934 25.48 8.604 26.368 8.604C27.196 8.604 27.91 8.838 28.51 9.306C29.122 9.762 29.56 10.404 29.824 11.232ZM27.07 15.264C27.37 14.796 27.52 14.16 27.52 13.356C27.52 12.6 27.394 12 27.142 11.556C26.866 11.04 26.422 10.782 25.81 10.782C25.258 10.782 24.844 11.04 24.568 11.556C24.316 11.988 24.19 12.594 24.19 13.374C24.19 14.178 24.322 14.802 24.586 15.246C24.862 15.726 25.27 15.966 25.81 15.966C26.35 15.966 26.77 15.732 27.07 15.264ZM40.0544 11.232C40.2704 11.844 40.3784 12.564 40.3784 13.392C40.3784 14.22 40.2644 14.97 40.0364 15.642C39.7604 16.41 39.3224 17.022 38.7224 17.478C38.1344 17.922 37.4024 18.144 36.5264 18.144C35.6624 18.144 34.9904 17.844 34.5104 17.244C34.4864 17.208 34.4624 17.196 34.4384 17.208C34.4144 17.22 34.4024 17.244 34.4024 17.28V21.132C34.4024 21.192 34.3784 21.24 34.3304 21.276C34.2944 21.324 34.2464 21.348 34.1864 21.348H32.0804C32.0204 21.348 31.9664 21.324 31.9184 21.276C31.8824 21.24 31.8644 21.192 31.8644 21.132V8.964C31.8644 8.904 31.8824 8.856 31.9184 8.82C31.9664 8.772 32.0204 8.748 32.0804 8.748H34.1864C34.2464 8.748 34.2944 8.772 34.3304 8.82C34.3784 8.856 34.4024 8.904 34.4024 8.964V9.558C34.4024 9.594 34.4144 9.618 34.4384 9.63C34.4624 9.63 34.4864 9.618 34.5104 9.594C35.0144 8.934 35.7104 8.604 36.5984 8.604C37.4264 8.604 38.1404 8.838 38.7404 9.306C39.3524 9.762 39.7904 10.404 40.0544 11.232ZM37.3004 15.264C37.6004 14.796 37.7504 14.16 37.7504 13.356C37.7504 12.6 37.6244 12 37.3724 11.556C37.0964 11.04 36.6524 10.782 36.0404 10.782C35.4884 10.782 35.0744 11.04 34.7984 11.556C34.5464 11.988 34.4204 12.594 34.4204 13.374C34.4204 14.178 34.5524 14.802 34.8164 15.246C35.0924 15.726 35.5004 15.966 36.0404 15.966C36.5804 15.966 37.0004 15.732 37.3004 15.264ZM46.0562 18.144C45.0482 18.144 44.1842 17.88 43.4642 17.352C42.7442 16.824 42.2522 16.104 41.9882 15.192C41.8202 14.628 41.7362 14.016 41.7362 13.356C41.7362 12.648 41.8202 12.012 41.9882 11.448C42.2642 10.56 42.7622 9.864 43.4822 9.36C44.2022 8.856 45.0662 8.604 46.0742 8.604C47.0582 8.604 47.8982 8.856 48.5942 9.36C49.2902 9.852 49.7822 10.542 50.0702 11.43C50.2622 12.03 50.3582 12.66 50.3582 13.32C50.3582 13.968 50.2742 14.574 50.1062 15.138C49.8422 16.074 49.3502 16.812 48.6302 17.352C47.9222 17.88 47.0642 18.144 46.0562 18.144ZM46.0562 15.966C46.4522 15.966 46.7882 15.846 47.0642 15.606C47.3402 15.366 47.5382 15.036 47.6582 14.616C47.7542 14.232 47.8022 13.812 47.8022 13.356C47.8022 12.852 47.7542 12.426 47.6582 12.078C47.5262 11.67 47.3222 11.352 47.0462 11.124C46.7702 10.896 46.4342 10.782 46.0382 10.782C45.6302 10.782 45.2882 10.896 45.0122 11.124C44.7482 11.352 44.5562 11.67 44.4362 12.078C44.3402 12.366 44.2922 12.792 44.2922 13.356C44.2922 13.896 44.3342 14.316 44.4182 14.616C44.5382 15.036 44.7362 15.366 45.0122 15.606C45.3002 15.846 45.6482 15.966 46.0562 15.966ZM56.5977 8.622C57.0297 8.622 57.3717 8.706 57.6237 8.874C57.7197 8.922 57.7557 9.012 57.7317 9.144L57.3537 11.196C57.3417 11.34 57.2577 11.382 57.1017 11.322C56.9217 11.262 56.7117 11.232 56.4717 11.232C56.3757 11.232 56.2437 11.244 56.0757 11.268C55.6437 11.304 55.2777 11.466 54.9777 11.754C54.6777 12.03 54.5277 12.402 54.5277 12.87V17.784C54.5277 17.844 54.5037 17.898 54.4557 17.946C54.4197 17.982 54.3717 18 54.3117 18H52.2057C52.1457 18 52.0917 17.982 52.0437 17.946C52.0077 17.898 51.9897 17.844 51.9897 17.784V8.964C51.9897 8.904 52.0077 8.856 52.0437 8.82C52.0917 8.772 52.1457 8.748 52.2057 8.748H54.3117C54.3717 8.748 54.4197 8.772 54.4557 8.82C54.5037 8.856 54.5277 8.904 54.5277 8.964V9.648C54.5277 9.684 54.5397 9.708 54.5637 9.72C54.5877 9.732 54.6057 9.726 54.6177 9.702C55.1097 8.982 55.7697 8.622 56.5977 8.622ZM64.2958 10.566C64.2958 10.626 64.2718 10.68 64.2238 10.728C64.1878 10.764 64.1398 10.782 64.0798 10.782H62.3518C62.2918 10.782 62.2618 10.812 62.2618 10.872V14.688C62.2618 15.084 62.3398 15.378 62.4958 15.57C62.6638 15.762 62.9278 15.858 63.2878 15.858H63.8818C63.9418 15.858 63.9898 15.882 64.0258 15.93C64.0738 15.966 64.0978 16.014 64.0978 16.074V17.784C64.0978 17.916 64.0258 17.994 63.8818 18.018C63.3778 18.042 63.0178 18.054 62.8018 18.054C61.8058 18.054 61.0618 17.892 60.5698 17.568C60.0778 17.232 59.8258 16.608 59.8138 15.696V10.872C59.8138 10.812 59.7838 10.782 59.7238 10.782H58.6978C58.6378 10.782 58.5838 10.764 58.5358 10.728C58.4998 10.68 58.4818 10.626 58.4818 10.566V8.964C58.4818 8.904 58.4998 8.856 58.5358 8.82C58.5838 8.772 58.6378 8.748 58.6978 8.748H59.7238C59.7838 8.748 59.8138 8.718 59.8138 8.658V6.516C59.8138 6.456 59.8318 6.408 59.8678 6.372C59.9158 6.324 59.9698 6.3 60.0298 6.3H62.0458C62.1058 6.3 62.1538 6.324 62.1898 6.372C62.2378 6.408 62.2618 6.456 62.2618 6.516V8.658C62.2618 8.718 62.2918 8.748 62.3518 8.748H64.0798C64.1398 8.748 64.1878 8.772 64.2238 8.82C64.2718 8.856 64.2958 8.904 64.2958 8.964V10.566Z" fill="#112B3C"/>
<path d="M7.126 54C7.042 54 6.986 53.9627 6.958 53.888L6.398 52.124C6.38867 52.096 6.37 52.082 6.342 52.082H2.156C2.128 52.082 2.10933 52.096 2.1 52.124L1.54 53.888C1.512 53.9627 1.456 54 1.372 54H0.616C0.513333 54 0.476 53.9487 0.504 53.846L3.598 44.312C3.626 44.2373 3.682 44.2 3.766 44.2H4.718C4.802 44.2 4.858 44.2373 4.886 44.312L7.994 53.846L8.008 53.902C8.008 53.9673 7.966 54 7.882 54H7.126ZM2.38 51.2C2.37067 51.2187 2.37067 51.2373 2.38 51.256C2.39867 51.2653 2.41733 51.27 2.436 51.27H6.048C6.06667 51.27 6.08067 51.2653 6.09 51.256C6.10867 51.2373 6.11333 51.2187 6.104 51.2L4.284 45.488C4.27467 45.4693 4.26067 45.46 4.242 45.46C4.22333 45.46 4.20933 45.4693 4.2 45.488L2.38 51.2ZM12.1202 54.112C11.4482 54.112 10.8695 53.9393 10.3842 53.594C9.90817 53.2393 9.58151 52.7633 9.40417 52.166C9.28284 51.7553 9.22217 51.1767 9.22217 50.43C9.22217 49.758 9.28284 49.1887 9.40417 48.722C9.57217 48.1433 9.89884 47.6813 10.3842 47.336C10.8695 46.9813 11.4482 46.804 12.1202 46.804C12.8015 46.804 13.3895 46.9767 13.8842 47.322C14.3882 47.6673 14.7148 48.0967 14.8642 48.61C14.9108 48.778 14.9388 48.918 14.9482 49.03V49.058C14.9482 49.1233 14.9062 49.1653 14.8222 49.184L14.1222 49.282H14.0942C14.0288 49.282 13.9868 49.24 13.9682 49.156L13.9262 48.946C13.8422 48.5913 13.6368 48.2927 13.3102 48.05C12.9835 47.798 12.5868 47.672 12.1202 47.672C11.6535 47.672 11.2615 47.798 10.9442 48.05C10.6362 48.2927 10.4355 48.6193 10.3422 49.03C10.2582 49.3847 10.2162 49.856 10.2162 50.444C10.2162 51.06 10.2582 51.536 10.3422 51.872C10.4355 52.292 10.6362 52.628 10.9442 52.88C11.2615 53.1227 11.6535 53.244 12.1202 53.244C12.5775 53.244 12.9695 53.1273 13.2962 52.894C13.6322 52.6513 13.8422 52.3433 13.9262 51.97V51.914L13.9402 51.858C13.9495 51.7647 14.0055 51.7273 14.1082 51.746L14.7942 51.858C14.8875 51.8767 14.9295 51.928 14.9202 52.012L14.8642 52.292C14.7242 52.8333 14.4022 53.272 13.8982 53.608C13.3942 53.944 12.8015 54.112 12.1202 54.112ZM19.3526 54.112C18.6806 54.112 18.1019 53.9393 17.6166 53.594C17.1406 53.2393 16.8139 52.7633 16.6366 52.166C16.5153 51.7553 16.4546 51.1767 16.4546 50.43C16.4546 49.758 16.5153 49.1887 16.6366 48.722C16.8046 48.1433 17.1313 47.6813 17.6166 47.336C18.1019 46.9813 18.6806 46.804 19.3526 46.804C20.0339 46.804 20.6219 46.9767 21.1166 47.322C21.6206 47.6673 21.9473 48.0967 22.0966 48.61C22.1433 48.778 22.1713 48.918 22.1806 49.03V49.058C22.1806 49.1233 22.1386 49.1653 22.0546 49.184L21.3546 49.282H21.3266C21.2613 49.282 21.2193 49.24 21.2006 49.156L21.1586 48.946C21.0746 48.5913 20.8693 48.2927 20.5426 48.05C20.2159 47.798 19.8193 47.672 19.3526 47.672C18.8859 47.672 18.4939 47.798 18.1766 48.05C17.8686 48.2927 17.6679 48.6193 17.5746 49.03C17.4906 49.3847 17.4486 49.856 17.4486 50.444C17.4486 51.06 17.4906 51.536 17.5746 51.872C17.6679 52.292 17.8686 52.628 18.1766 52.88C18.4939 53.1227 18.8859 53.244 19.3526 53.244C19.8099 53.244 20.2019 53.1273 20.5286 52.894C20.8646 52.6513 21.0746 52.3433 21.1586 51.97V51.914L21.1726 51.858C21.1819 51.7647 21.2379 51.7273 21.3406 51.746L22.0266 51.858C22.1199 51.8767 22.1619 51.928 22.1526 52.012L22.0966 52.292C21.9566 52.8333 21.6346 53.272 21.1306 53.608C20.6266 53.944 20.0339 54.112 19.3526 54.112ZM26.613 54.112C25.941 54.112 25.3623 53.9393 24.877 53.594C24.3917 53.2487 24.0557 52.7727 23.869 52.166C23.7383 51.7367 23.673 51.1627 23.673 50.444C23.673 49.7253 23.7383 49.156 23.869 48.736C24.0463 48.1387 24.3777 47.6673 24.863 47.322C25.3483 46.9767 25.9363 46.804 26.627 46.804C27.2897 46.804 27.859 46.9767 28.335 47.322C28.8203 47.6673 29.1517 48.134 29.329 48.722C29.4597 49.1233 29.525 49.6973 29.525 50.444C29.525 51.2 29.4597 51.774 29.329 52.166C29.1517 52.7727 28.8203 53.2487 28.335 53.594C27.859 53.9393 27.285 54.112 26.613 54.112ZM26.613 53.244C27.061 53.244 27.4437 53.1227 27.761 52.88C28.0783 52.628 28.293 52.292 28.405 51.872C28.489 51.536 28.531 51.0647 28.531 50.458C28.531 49.842 28.4937 49.3707 28.419 49.044C28.307 48.624 28.0877 48.2927 27.761 48.05C27.4437 47.798 27.0563 47.672 26.599 47.672C26.1417 47.672 25.7543 47.798 25.437 48.05C25.1197 48.2927 24.905 48.624 24.793 49.044C24.7183 49.3707 24.681 49.842 24.681 50.458C24.681 51.074 24.7183 51.5453 24.793 51.872C24.8957 52.292 25.1057 52.628 25.423 52.88C25.7497 53.1227 26.1463 53.244 26.613 53.244ZM35.8239 47.056C35.8239 46.9627 35.8706 46.916 35.9639 46.916H36.6779C36.7713 46.916 36.8179 46.9627 36.8179 47.056V53.86C36.8179 53.9533 36.7713 54 36.6779 54H35.9639C35.8706 54 35.8239 53.9533 35.8239 53.86V53.258C35.8239 53.2393 35.8146 53.2253 35.7959 53.216C35.7773 53.2067 35.7633 53.2113 35.7539 53.23C35.3619 53.8087 34.7413 54.098 33.8919 54.098C33.4439 54.098 33.0286 54.0093 32.6459 53.832C32.2726 53.6453 31.9739 53.3793 31.7499 53.034C31.5353 52.6887 31.4279 52.2733 31.4279 51.788V47.056C31.4279 46.9627 31.4746 46.916 31.5679 46.916H32.2819C32.3753 46.916 32.4219 46.9627 32.4219 47.056V51.494C32.4219 52.026 32.5713 52.4507 32.8699 52.768C33.1686 53.076 33.5746 53.23 34.0879 53.23C34.6199 53.23 35.0399 53.0713 35.3479 52.754C35.6653 52.4367 35.8239 52.0167 35.8239 51.494V47.056ZM41.9858 46.818C42.7324 46.818 43.3251 47.0373 43.7638 47.476C44.2118 47.9147 44.4358 48.5027 44.4358 49.24V53.86C44.4358 53.9533 44.3891 54 44.2958 54H43.5818C43.4884 54 43.4418 53.9533 43.4418 53.86V49.436C43.4418 48.9227 43.2831 48.5027 42.9658 48.176C42.6578 47.8493 42.2564 47.686 41.7618 47.686C41.2484 47.686 40.8331 47.8447 40.5158 48.162C40.1984 48.4793 40.0398 48.8947 40.0398 49.408V53.86C40.0398 53.9533 39.9931 54 39.8998 54H39.1858C39.0924 54 39.0458 53.9533 39.0458 53.86V47.056C39.0458 46.9627 39.0924 46.916 39.1858 46.916H39.8998C39.9931 46.916 40.0398 46.9627 40.0398 47.056V47.658C40.0398 47.6767 40.0444 47.6907 40.0538 47.7C40.0724 47.7093 40.0864 47.7047 40.0958 47.686C40.5064 47.1073 41.1364 46.818 41.9858 46.818ZM49.7707 47.602C49.7707 47.6953 49.724 47.742 49.6307 47.742H48.0487C48.0113 47.742 47.9927 47.7607 47.9927 47.798V51.928C47.9927 52.376 48.0907 52.6933 48.2867 52.88C48.492 53.0573 48.8093 53.146 49.2387 53.146H49.5887C49.682 53.146 49.7287 53.1927 49.7287 53.286V53.86C49.7287 53.9533 49.682 54 49.5887 54C49.4767 54.0093 49.304 54.014 49.0707 54.014C48.3987 54.014 47.89 53.888 47.5447 53.636C47.1993 53.384 47.0267 52.9173 47.0267 52.236V47.798C47.0267 47.7607 47.008 47.742 46.9707 47.742H46.1167C46.0233 47.742 45.9767 47.6953 45.9767 47.602V47.056C45.9767 46.9627 46.0233 46.916 46.1167 46.916H46.9707C47.008 46.916 47.0267 46.8973 47.0267 46.86V45.236C47.0267 45.1427 47.0733 45.096 47.1667 45.096H47.8527C47.946 45.096 47.9927 45.1427 47.9927 45.236V46.86C47.9927 46.8973 48.0113 46.916 48.0487 46.916H49.6307C49.724 46.916 49.7707 46.9627 49.7707 47.056V47.602Z" fill="#112B3C"/>
<path d="M4.144 89.112C3.08933 89.112 2.254 88.874 1.638 88.398C1.03133 87.922 0.728 87.2873 0.728 86.494V86.06C0.728 85.9667 0.774667 85.92 0.868 85.92H1.554C1.64733 85.92 1.694 85.9667 1.694 86.06V86.438C1.694 86.9793 1.918 87.418 2.366 87.754C2.814 88.0807 3.43467 88.244 4.228 88.244C4.94667 88.244 5.49267 88.0947 5.866 87.796C6.23933 87.488 6.426 87.082 6.426 86.578C6.426 86.2513 6.33733 85.9713 6.16 85.738C5.992 85.5047 5.726 85.2853 5.362 85.08C5.00733 84.8747 4.50333 84.6367 3.85 84.366C3.15 84.086 2.604 83.8433 2.212 83.638C1.82933 83.4233 1.51667 83.1527 1.274 82.826C1.04067 82.49 0.924 82.07 0.924 81.566C0.924 80.782 1.19467 80.1753 1.736 79.746C2.28667 79.3073 3.038 79.088 3.99 79.088C5.026 79.088 5.84267 79.3307 6.44 79.816C7.03733 80.3013 7.336 80.9453 7.336 81.748V82.056C7.336 82.1493 7.28933 82.196 7.196 82.196H6.496C6.40267 82.196 6.356 82.1493 6.356 82.056V81.804C6.356 81.2627 6.14133 80.8193 5.712 80.474C5.292 80.1287 4.704 79.956 3.948 79.956C3.28533 79.956 2.77667 80.0913 2.422 80.362C2.06733 80.6327 1.89 81.0247 1.89 81.538C1.89 81.874 1.974 82.154 2.142 82.378C2.31933 82.5927 2.56667 82.784 2.884 82.952C3.21067 83.1107 3.71 83.3207 4.382 83.582C5.06333 83.862 5.60933 84.1233 6.02 84.366C6.44 84.6087 6.776 84.9073 7.028 85.262C7.28933 85.6073 7.42 86.032 7.42 86.536C7.42 87.32 7.13067 87.9453 6.552 88.412C5.97333 88.8787 5.17067 89.112 4.144 89.112ZM13.5798 82.056C13.5798 81.9627 13.6264 81.916 13.7198 81.916H14.4338C14.5271 81.916 14.5738 81.9627 14.5738 82.056V88.86C14.5738 88.9533 14.5271 89 14.4338 89H13.7198C13.6264 89 13.5798 88.9533 13.5798 88.86V88.258C13.5798 88.2393 13.5704 88.2253 13.5518 88.216C13.5331 88.2067 13.5191 88.2113 13.5098 88.23C13.1178 88.8087 12.4971 89.098 11.6478 89.098C11.1998 89.098 10.7844 89.0093 10.4018 88.832C10.0284 88.6453 9.72978 88.3793 9.50578 88.034C9.29111 87.6887 9.18378 87.2733 9.18378 86.788V82.056C9.18378 81.9627 9.23045 81.916 9.32378 81.916H10.0378C10.1311 81.916 10.1778 81.9627 10.1778 82.056V86.494C10.1778 87.026 10.3271 87.4507 10.6258 87.768C10.9244 88.076 11.3304 88.23 11.8438 88.23C12.3758 88.23 12.7958 88.0713 13.1038 87.754C13.4211 87.4367 13.5798 87.0167 13.5798 86.494V82.056ZM22.3036 83.68C22.4436 84.128 22.5136 84.7207 22.5136 85.458C22.5136 86.2047 22.453 86.7833 22.3316 87.194C22.1636 87.7913 21.8556 88.2627 21.4076 88.608C20.969 88.944 20.4136 89.112 19.7416 89.112C19.3776 89.112 19.0416 89.042 18.7336 88.902C18.4256 88.7527 18.169 88.5427 17.9636 88.272C17.945 88.2533 17.9263 88.2487 17.9076 88.258C17.8983 88.258 17.8936 88.2673 17.8936 88.286V91.576C17.8936 91.6693 17.847 91.716 17.7536 91.716H17.0396C16.9463 91.716 16.8996 91.6693 16.8996 91.576V82.056C16.8996 81.9627 16.9463 81.916 17.0396 81.916H17.7536C17.847 81.916 17.8936 81.9627 17.8936 82.056V82.644C17.8936 82.6627 17.8983 82.6767 17.9076 82.686C17.9263 82.686 17.945 82.6767 17.9636 82.658C18.169 82.3873 18.421 82.1773 18.7196 82.028C19.0276 81.8787 19.3683 81.804 19.7416 81.804C20.395 81.804 20.941 81.972 21.3796 82.308C21.8276 82.644 22.1356 83.1013 22.3036 83.68ZM21.1976 87.222C21.3003 87.0167 21.375 86.788 21.4216 86.536C21.4776 86.2747 21.5056 85.9153 21.5056 85.458C21.5056 85.0193 21.487 84.6787 21.4496 84.436C21.4123 84.184 21.347 83.96 21.2536 83.764C21.1416 83.428 20.941 83.162 20.6516 82.966C20.3716 82.77 20.0356 82.672 19.6436 82.672C19.2703 82.672 18.9576 82.77 18.7056 82.966C18.4536 83.162 18.267 83.4233 18.1456 83.75C18.0616 83.9367 18.001 84.156 17.9636 84.408C17.9263 84.66 17.9076 85.01 17.9076 85.458C17.9076 85.906 17.9263 86.2607 17.9636 86.522C18.001 86.774 18.0663 86.998 18.1596 87.194C18.2716 87.5113 18.4536 87.768 18.7056 87.964C18.967 88.1507 19.275 88.244 19.6296 88.244C20.003 88.244 20.325 88.1507 20.5956 87.964C20.8756 87.7773 21.0763 87.53 21.1976 87.222ZM30.0283 83.68C30.1683 84.128 30.2383 84.7207 30.2383 85.458C30.2383 86.2047 30.1776 86.7833 30.0563 87.194C29.8883 87.7913 29.5803 88.2627 29.1323 88.608C28.6936 88.944 28.1383 89.112 27.4663 89.112C27.1023 89.112 26.7663 89.042 26.4583 88.902C26.1503 88.7527 25.8936 88.5427 25.6883 88.272C25.6696 88.2533 25.6509 88.2487 25.6323 88.258C25.6229 88.258 25.6183 88.2673 25.6183 88.286V91.576C25.6183 91.6693 25.5716 91.716 25.4783 91.716H24.7643C24.6709 91.716 24.6243 91.6693 24.6243 91.576V82.056C24.6243 81.9627 24.6709 81.916 24.7643 81.916H25.4783C25.5716 81.916 25.6183 81.9627 25.6183 82.056V82.644C25.6183 82.6627 25.6229 82.6767 25.6323 82.686C25.6509 82.686 25.6696 82.6767 25.6883 82.658C25.8936 82.3873 26.1456 82.1773 26.4443 82.028C26.7523 81.8787 27.0929 81.804 27.4663 81.804C28.1196 81.804 28.6656 81.972 29.1043 82.308C29.5523 82.644 29.8603 83.1013 30.0283 83.68ZM28.9223 87.222C29.0249 87.0167 29.0996 86.788 29.1463 86.536C29.2023 86.2747 29.2303 85.9153 29.2303 85.458C29.2303 85.0193 29.2116 84.6787 29.1743 84.436C29.1369 84.184 29.0716 83.96 28.9783 83.764C28.8663 83.428 28.6656 83.162 28.3763 82.966C28.0963 82.77 27.7603 82.672 27.3683 82.672C26.9949 82.672 26.6823 82.77 26.4303 82.966C26.1783 83.162 25.9916 83.4233 25.8703 83.75C25.7863 83.9367 25.7256 84.156 25.6883 84.408C25.6509 84.66 25.6323 85.01 25.6323 85.458C25.6323 85.906 25.6509 86.2607 25.6883 86.522C25.7256 86.774 25.7909 86.998 25.8843 87.194C25.9963 87.5113 26.1783 87.768 26.4303 87.964C26.6916 88.1507 26.9996 88.244 27.3543 88.244C27.7276 88.244 28.0496 88.1507 28.3203 87.964C28.6003 87.7773 28.8009 87.53 28.9223 87.222ZM34.8572 89.112C34.1852 89.112 33.6065 88.9393 33.1212 88.594C32.6358 88.2487 32.2998 87.7727 32.1132 87.166C31.9825 86.7367 31.9172 86.1627 31.9172 85.444C31.9172 84.7253 31.9825 84.156 32.1132 83.736C32.2905 83.1387 32.6218 82.6673 33.1072 82.322C33.5925 81.9767 34.1805 81.804 34.8712 81.804C35.5338 81.804 36.1032 81.9767 36.5792 82.322C37.0645 82.6673 37.3958 83.134 37.5732 83.722C37.7038 84.1233 37.7692 84.6973 37.7692 85.444C37.7692 86.2 37.7038 86.774 37.5732 87.166C37.3958 87.7727 37.0645 88.2487 36.5792 88.594C36.1032 88.9393 35.5292 89.112 34.8572 89.112ZM34.8572 88.244C35.3052 88.244 35.6878 88.1227 36.0052 87.88C36.3225 87.628 36.5372 87.292 36.6492 86.872C36.7332 86.536 36.7752 86.0647 36.7752 85.458C36.7752 84.842 36.7378 84.3707 36.6632 84.044C36.5512 83.624 36.3318 83.2927 36.0052 83.05C35.6878 82.798 35.3005 82.672 34.8432 82.672C34.3858 82.672 33.9985 82.798 33.6812 83.05C33.3638 83.2927 33.1492 83.624 33.0372 84.044C32.9625 84.3707 32.9252 84.842 32.9252 85.458C32.9252 86.074 32.9625 86.5453 33.0372 86.872C33.1398 87.292 33.3498 87.628 33.6672 87.88C33.9938 88.1227 34.3905 88.244 34.8572 88.244ZM42.6401 81.846C42.9481 81.846 43.2141 81.9067 43.4381 82.028C43.5127 82.0653 43.5407 82.126 43.5221 82.21L43.3681 82.896C43.3401 82.9893 43.2794 83.0173 43.1861 82.98C43.0274 82.9147 42.8454 82.882 42.6401 82.882L42.4581 82.896C41.9727 82.9147 41.5714 83.0967 41.2541 83.442C40.9367 83.778 40.7781 84.2073 40.7781 84.73V88.86C40.7781 88.9533 40.7314 89 40.6381 89H39.9241C39.8307 89 39.7841 88.9533 39.7841 88.86V82.056C39.7841 81.9627 39.8307 81.916 39.9241 81.916H40.6381C40.7314 81.916 40.7781 81.9627 40.7781 82.056V82.91C40.7781 82.938 40.7827 82.9567 40.7921 82.966C40.8107 82.966 40.8247 82.9567 40.8341 82.938C41.0301 82.5927 41.2774 82.3267 41.5761 82.14C41.8841 81.944 42.2387 81.846 42.6401 81.846ZM48.2531 82.602C48.2531 82.6953 48.2064 82.742 48.1131 82.742H46.5311C46.4937 82.742 46.4751 82.7607 46.4751 82.798V86.928C46.4751 87.376 46.5731 87.6933 46.7691 87.88C46.9744 88.0573 47.2917 88.146 47.7211 88.146H48.0711C48.1644 88.146 48.2111 88.1927 48.2111 88.286V88.86C48.2111 88.9533 48.1644 89 48.0711 89C47.9591 89.0093 47.7864 89.014 47.5531 89.014C46.8811 89.014 46.3724 88.888 46.0271 88.636C45.6817 88.384 45.5091 87.9173 45.5091 87.236V82.798C45.5091 82.7607 45.4904 82.742 45.4531 82.742H44.5991C44.5057 82.742 44.4591 82.6953 44.4591 82.602V82.056C44.4591 81.9627 44.5057 81.916 44.5991 81.916H45.4531C45.4904 81.916 45.5091 81.8973 45.5091 81.86V80.236C45.5091 80.1427 45.5557 80.096 45.6491 80.096H46.3351C46.4284 80.096 46.4751 80.1427 46.4751 80.236V81.86C46.4751 81.8973 46.4937 81.916 46.5311 81.916H48.1131C48.2064 81.916 48.2531 81.9627 48.2531 82.056V82.602ZM55.6514 89.112C54.9794 89.112 54.4008 88.9393 53.9154 88.594C53.4394 88.2393 53.1128 87.7633 52.9354 87.166C52.8141 86.7553 52.7534 86.1767 52.7534 85.43C52.7534 84.758 52.8141 84.1887 52.9354 83.722C53.1034 83.1433 53.4301 82.6813 53.9154 82.336C54.4008 81.9813 54.9794 81.804 55.6514 81.804C56.3328 81.804 56.9208 81.9767 57.4154 82.322C57.9194 82.6673 58.2461 83.0967 58.3954 83.61C58.4421 83.778 58.4701 83.918 58.4794 84.03V84.058C58.4794 84.1233 58.4374 84.1653 58.3534 84.184L57.6534 84.282H57.6254C57.5601 84.282 57.5181 84.24 57.4994 84.156L57.4574 83.946C57.3734 83.5913 57.1681 83.2927 56.8414 83.05C56.5148 82.798 56.1181 82.672 55.6514 82.672C55.1848 82.672 54.7928 82.798 54.4754 83.05C54.1674 83.2927 53.9668 83.6193 53.8734 84.03C53.7894 84.3847 53.7474 84.856 53.7474 85.444C53.7474 86.06 53.7894 86.536 53.8734 86.872C53.9668 87.292 54.1674 87.628 54.4754 87.88C54.7928 88.1227 55.1848 88.244 55.6514 88.244C56.1088 88.244 56.5008 88.1273 56.8274 87.894C57.1634 87.6513 57.3734 87.3433 57.4574 86.97V86.914L57.4714 86.858C57.4808 86.7647 57.5368 86.7273 57.6394 86.746L58.3254 86.858C58.4188 86.8767 58.4608 86.928 58.4514 87.012L58.3954 87.292C58.2554 87.8333 57.9334 88.272 57.4294 88.608C56.9254 88.944 56.3328 89.112 55.6514 89.112ZM65.6418 84.268C65.6792 84.5293 65.6978 84.856 65.6978 85.248V85.696C65.6978 85.7893 65.6512 85.836 65.5578 85.836H61.0358C60.9985 85.836 60.9798 85.8547 60.9798 85.892C60.9985 86.4053 61.0265 86.7367 61.0638 86.886C61.1665 87.306 61.3858 87.6373 61.7218 87.88C62.0578 88.1227 62.4872 88.244 63.0098 88.244C63.4018 88.244 63.7472 88.1553 64.0458 87.978C64.3445 87.8007 64.5778 87.5487 64.7458 87.222C64.8018 87.138 64.8672 87.1193 64.9418 87.166L65.4878 87.488C65.5625 87.5347 65.5812 87.6 65.5438 87.684C65.3105 88.132 64.9605 88.4867 64.4938 88.748C64.0272 89 63.4905 89.126 62.8838 89.126C62.2212 89.1167 61.6658 88.958 61.2178 88.65C60.7698 88.342 60.4478 87.9127 60.2518 87.362C60.0838 86.914 59.9998 86.27 59.9998 85.43C59.9998 85.038 60.0045 84.7207 60.0138 84.478C60.0325 84.226 60.0698 84.002 60.1258 83.806C60.2845 83.1993 60.6018 82.714 61.0778 82.35C61.5632 81.986 62.1465 81.804 62.8278 81.804C63.6772 81.804 64.3305 82.0187 64.7878 82.448C65.2452 82.8773 65.5298 83.484 65.6418 84.268ZM62.8278 82.672C62.3705 82.672 61.9878 82.7933 61.6798 83.036C61.3812 83.2693 61.1852 83.5867 61.0918 83.988C61.0358 84.184 60.9985 84.5013 60.9798 84.94C60.9798 84.9773 60.9985 84.996 61.0358 84.996H64.6618C64.6992 84.996 64.7178 84.9773 64.7178 84.94C64.6992 84.52 64.6712 84.2213 64.6338 84.044C64.5312 83.624 64.3212 83.2927 64.0038 83.05C63.6958 82.798 63.3038 82.672 62.8278 82.672ZM70.6147 81.818C71.3614 81.818 71.954 82.0373 72.3927 82.476C72.8407 82.9147 73.0647 83.5027 73.0647 84.24V88.86C73.0647 88.9533 73.018 89 72.9247 89H72.2107C72.1174 89 72.0707 88.9533 72.0707 88.86V84.436C72.0707 83.9227 71.912 83.5027 71.5947 83.176C71.2867 82.8493 70.8854 82.686 70.3907 82.686C69.8774 82.686 69.462 82.8447 69.1447 83.162C68.8274 83.4793 68.6687 83.8947 68.6687 84.408V88.86C68.6687 88.9533 68.622 89 68.5287 89H67.8147C67.7214 89 67.6747 88.9533 67.6747 88.86V82.056C67.6747 81.9627 67.7214 81.916 67.8147 81.916H68.5287C68.622 81.916 68.6687 81.9627 68.6687 82.056V82.658C68.6687 82.6767 68.6734 82.6907 68.6827 82.7C68.7014 82.7093 68.7154 82.7047 68.7247 82.686C69.1354 82.1073 69.7654 81.818 70.6147 81.818ZM78.3996 82.602C78.3996 82.6953 78.3529 82.742 78.2596 82.742H76.6776C76.6402 82.742 76.6216 82.7607 76.6216 82.798V86.928C76.6216 87.376 76.7196 87.6933 76.9156 87.88C77.1209 88.0573 77.4382 88.146 77.8676 88.146H78.2176C78.3109 88.146 78.3576 88.1927 78.3576 88.286V88.86C78.3576 88.9533 78.3109 89 78.2176 89C78.1056 89.0093 77.9329 89.014 77.6996 89.014C77.0276 89.014 76.5189 88.888 76.1736 88.636C75.8282 88.384 75.6556 87.9173 75.6556 87.236V82.798C75.6556 82.7607 75.6369 82.742 75.5996 82.742H74.7456C74.6522 82.742 74.6056 82.6953 74.6056 82.602V82.056C74.6056 81.9627 74.6522 81.916 74.7456 81.916H75.5996C75.6369 81.916 75.6556 81.8973 75.6556 81.86V80.236C75.6556 80.1427 75.7022 80.096 75.7956 80.096H76.4816C76.5749 80.096 76.6216 80.1427 76.6216 80.236V81.86C76.6216 81.8973 76.6402 81.916 76.6776 81.916H78.2596C78.3529 81.916 78.3996 81.9627 78.3996 82.056V82.602ZM85.5481 84.268C85.5854 84.5293 85.6041 84.856 85.6041 85.248V85.696C85.6041 85.7893 85.5574 85.836 85.4641 85.836H80.9421C80.9048 85.836 80.8861 85.8547 80.8861 85.892C80.9048 86.4053 80.9328 86.7367 80.9701 86.886C81.0728 87.306 81.2921 87.6373 81.6281 87.88C81.9641 88.1227 82.3934 88.244 82.9161 88.244C83.3081 88.244 83.6534 88.1553 83.9521 87.978C84.2508 87.8007 84.4841 87.5487 84.6521 87.222C84.7081 87.138 84.7734 87.1193 84.8481 87.166L85.3941 87.488C85.4688 87.5347 85.4874 87.6 85.4501 87.684C85.2168 88.132 84.8668 88.4867 84.4001 88.748C83.9334 89 83.3968 89.126 82.7901 89.126C82.1274 89.1167 81.5721 88.958 81.1241 88.65C80.6761 88.342 80.3541 87.9127 80.1581 87.362C79.9901 86.914 79.9061 86.27 79.9061 85.43C79.9061 85.038 79.9108 84.7207 79.9201 84.478C79.9388 84.226 79.9761 84.002 80.0321 83.806C80.1908 83.1993 80.5081 82.714 80.9841 82.35C81.4694 81.986 82.0528 81.804 82.7341 81.804C83.5834 81.804 84.2368 82.0187 84.6941 82.448C85.1514 82.8773 85.4361 83.484 85.5481 84.268ZM82.7341 82.672C82.2768 82.672 81.8941 82.7933 81.5861 83.036C81.2874 83.2693 81.0914 83.5867 80.9981 83.988C80.9421 84.184 80.9048 84.5013 80.8861 84.94C80.8861 84.9773 80.9048 84.996 80.9421 84.996H84.5681C84.6054 84.996 84.6241 84.9773 84.6241 84.94C84.6054 84.52 84.5774 84.2213 84.5401 84.044C84.4374 83.624 84.2274 83.2927 83.9101 83.05C83.6021 82.798 83.2101 82.672 82.7341 82.672ZM90.4369 81.846C90.7449 81.846 91.0109 81.9067 91.2349 82.028C91.3096 82.0653 91.3376 82.126 91.3189 82.21L91.1649 82.896C91.1369 82.9893 91.0763 83.0173 90.9829 82.98C90.8243 82.9147 90.6423 82.882 90.4369 82.882L90.2549 82.896C89.7696 82.9147 89.3683 83.0967 89.0509 83.442C88.7336 83.778 88.5749 84.2073 88.5749 84.73V88.86C88.5749 88.9533 88.5283 89 88.4349 89H87.7209C87.6276 89 87.5809 88.9533 87.5809 88.86V82.056C87.5809 81.9627 87.6276 81.916 87.7209 81.916H88.4349C88.5283 81.916 88.5749 81.9627 88.5749 82.056V82.91C88.5749 82.938 88.5796 82.9567 88.5889 82.966C88.6076 82.966 88.6216 82.9567 88.6309 82.938C88.8269 82.5927 89.0743 82.3267 89.3729 82.14C89.6809 81.944 90.0356 81.846 90.4369 81.846Z" fill="#112B3C"/>
<path d="M7.644 114.928C7.644 115.021 7.59733 115.068 7.504 115.068H2.366C2.32867 115.068 2.31 115.087 2.31 115.124V118.582C2.31 118.619 2.32867 118.638 2.366 118.638H5.964C6.05733 118.638 6.104 118.685 6.104 118.778V119.366C6.104 119.459 6.05733 119.506 5.964 119.506H2.366C2.32867 119.506 2.31 119.525 2.31 119.562V123.86C2.31 123.953 2.26333 124 2.17 124H1.456C1.36267 124 1.316 123.953 1.316 123.86V114.34C1.316 114.247 1.36267 114.2 1.456 114.2H7.504C7.59733 114.2 7.644 114.247 7.644 114.34V114.928ZM13.9485 119.268C13.9858 119.529 14.0045 119.856 14.0045 120.248V120.696C14.0045 120.789 13.9578 120.836 13.8645 120.836H9.34248C9.30515 120.836 9.28648 120.855 9.28648 120.892C9.30515 121.405 9.33315 121.737 9.37048 121.886C9.47315 122.306 9.69248 122.637 10.0285 122.88C10.3645 123.123 10.7938 123.244 11.3165 123.244C11.7085 123.244 12.0538 123.155 12.3525 122.978C12.6512 122.801 12.8845 122.549 13.0525 122.222C13.1085 122.138 13.1738 122.119 13.2485 122.166L13.7945 122.488C13.8692 122.535 13.8878 122.6 13.8505 122.684C13.6172 123.132 13.2672 123.487 12.8005 123.748C12.3338 124 11.7972 124.126 11.1905 124.126C10.5278 124.117 9.97248 123.958 9.52448 123.65C9.07648 123.342 8.75448 122.913 8.55848 122.362C8.39048 121.914 8.30648 121.27 8.30648 120.43C8.30648 120.038 8.31115 119.721 8.32048 119.478C8.33915 119.226 8.37648 119.002 8.43248 118.806C8.59115 118.199 8.90848 117.714 9.38448 117.35C9.86982 116.986 10.4532 116.804 11.1345 116.804C11.9838 116.804 12.6372 117.019 13.0945 117.448C13.5518 117.877 13.8365 118.484 13.9485 119.268ZM11.1345 117.672C10.6772 117.672 10.2945 117.793 9.98648 118.036C9.68782 118.269 9.49182 118.587 9.39848 118.988C9.34248 119.184 9.30515 119.501 9.28648 119.94C9.28648 119.977 9.30515 119.996 9.34248 119.996H12.9685C13.0058 119.996 13.0245 119.977 13.0245 119.94C13.0058 119.52 12.9778 119.221 12.9405 119.044C12.8378 118.624 12.6278 118.293 12.3105 118.05C12.0025 117.798 11.6105 117.672 11.1345 117.672ZM21.4133 119.268C21.4507 119.529 21.4693 119.856 21.4693 120.248V120.696C21.4693 120.789 21.4227 120.836 21.3293 120.836H16.8073C16.77 120.836 16.7513 120.855 16.7513 120.892C16.77 121.405 16.798 121.737 16.8353 121.886C16.938 122.306 17.1573 122.637 17.4933 122.88C17.8293 123.123 18.2587 123.244 18.7813 123.244C19.1733 123.244 19.5187 123.155 19.8173 122.978C20.116 122.801 20.3493 122.549 20.5173 122.222C20.5733 122.138 20.6387 122.119 20.7133 122.166L21.2593 122.488C21.334 122.535 21.3527 122.6 21.3153 122.684C21.082 123.132 20.732 123.487 20.2653 123.748C19.7987 124 19.262 124.126 18.6553 124.126C17.9927 124.117 17.4373 123.958 16.9893 123.65C16.5413 123.342 16.2193 122.913 16.0233 122.362C15.8553 121.914 15.7713 121.27 15.7713 120.43C15.7713 120.038 15.776 119.721 15.7853 119.478C15.804 119.226 15.8413 119.002 15.8973 118.806C16.056 118.199 16.3733 117.714 16.8493 117.35C17.3347 116.986 17.918 116.804 18.5993 116.804C19.4487 116.804 20.102 117.019 20.5593 117.448C21.0167 117.877 21.3013 118.484 21.4133 119.268ZM18.5993 117.672C18.142 117.672 17.7593 117.793 17.4513 118.036C17.1527 118.269 16.9567 118.587 16.8633 118.988C16.8073 119.184 16.77 119.501 16.7513 119.94C16.7513 119.977 16.77 119.996 16.8073 119.996H20.4333C20.4707 119.996 20.4893 119.977 20.4893 119.94C20.4707 119.52 20.4427 119.221 20.4053 119.044C20.3027 118.624 20.0927 118.293 19.7753 118.05C19.4673 117.798 19.0753 117.672 18.5993 117.672ZM27.8422 114.34C27.8422 114.247 27.8888 114.2 27.9822 114.2H28.6962C28.7895 114.2 28.8362 114.247 28.8362 114.34V123.86C28.8362 123.953 28.7895 124 28.6962 124H27.9822C27.8888 124 27.8422 123.953 27.8422 123.86V123.272C27.8422 123.253 27.8328 123.244 27.8142 123.244C27.8048 123.235 27.7908 123.239 27.7722 123.258C27.5668 123.529 27.3102 123.739 27.0022 123.888C26.7035 124.037 26.3675 124.112 25.9942 124.112C25.3408 124.112 24.7902 123.944 24.3422 123.608C23.9035 123.272 23.6002 122.815 23.4322 122.236C23.3015 121.816 23.2362 121.223 23.2362 120.458C23.2362 119.683 23.2922 119.105 23.4042 118.722C23.5722 118.125 23.8802 117.658 24.3282 117.322C24.7762 116.977 25.3315 116.804 25.9942 116.804C26.3582 116.804 26.6942 116.879 27.0022 117.028C27.3102 117.168 27.5668 117.373 27.7722 117.644C27.7908 117.663 27.8048 117.672 27.8142 117.672C27.8328 117.663 27.8422 117.649 27.8422 117.63V114.34ZM27.5902 122.166C27.6742 121.979 27.7348 121.76 27.7722 121.508C27.8095 121.256 27.8282 120.906 27.8282 120.458C27.8282 120.01 27.8095 119.66 27.7722 119.408C27.7348 119.147 27.6695 118.918 27.5762 118.722C27.4642 118.405 27.2775 118.153 27.0162 117.966C26.7642 117.77 26.4608 117.672 26.1062 117.672C25.7328 117.672 25.4108 117.765 25.1402 117.952C24.8695 118.139 24.6735 118.386 24.5522 118.694C24.4402 118.899 24.3562 119.133 24.3002 119.394C24.2535 119.646 24.2302 120.001 24.2302 120.458C24.2302 120.897 24.2488 121.242 24.2862 121.494C24.3235 121.737 24.3888 121.956 24.4822 122.152C24.5942 122.488 24.7902 122.754 25.0702 122.95C25.3595 123.146 25.7002 123.244 26.0922 123.244C26.4655 123.244 26.7782 123.146 27.0302 122.95C27.2822 122.754 27.4688 122.493 27.5902 122.166ZM36.5348 118.722C36.6468 119.142 36.7028 119.721 36.7028 120.458C36.7028 121.223 36.6374 121.816 36.5068 122.236C36.3294 122.815 36.0214 123.272 35.5828 123.608C35.1441 123.944 34.5981 124.112 33.9448 124.112C33.5714 124.112 33.2308 124.037 32.9228 123.888C32.6148 123.739 32.3581 123.524 32.1528 123.244C32.1434 123.225 32.1294 123.221 32.1108 123.23C32.0921 123.23 32.0828 123.239 32.0828 123.258V123.86C32.0828 123.953 32.0361 124 31.9428 124H31.2288C31.1354 124 31.0888 123.953 31.0888 123.86V114.34C31.0888 114.247 31.1354 114.2 31.2288 114.2H31.9428C32.0361 114.2 32.0828 114.247 32.0828 114.34V117.644C32.0828 117.663 32.0874 117.677 32.0968 117.686C32.1154 117.686 32.1341 117.677 32.1528 117.658C32.3581 117.387 32.6148 117.177 32.9228 117.028C33.2308 116.879 33.5714 116.804 33.9448 116.804C34.6074 116.804 35.1628 116.977 35.6108 117.322C36.0588 117.658 36.3668 118.125 36.5348 118.722ZM35.4568 122.152C35.5501 121.956 35.6154 121.737 35.6528 121.494C35.6901 121.242 35.7088 120.897 35.7088 120.458C35.7088 120.001 35.6808 119.646 35.6248 119.394C35.5781 119.133 35.4988 118.899 35.3868 118.694C35.2654 118.386 35.0694 118.139 34.7988 117.952C34.5281 117.765 34.2061 117.672 33.8328 117.672C33.4781 117.672 33.1701 117.77 32.9088 117.966C32.6568 118.153 32.4748 118.405 32.3628 118.722C32.2694 118.918 32.1994 119.142 32.1528 119.394C32.1154 119.646 32.0968 120.001 32.0968 120.458C32.0968 120.906 32.1154 121.256 32.1528 121.508C32.1994 121.751 32.2648 121.97 32.3488 122.166C32.4701 122.493 32.6568 122.754 32.9088 122.95C33.1608 123.146 33.4734 123.244 33.8468 123.244C34.2388 123.244 34.5748 123.146 34.8548 122.95C35.1441 122.754 35.3448 122.488 35.4568 122.152ZM41.1813 116.804C42.0213 116.804 42.67 117.019 43.1273 117.448C43.5847 117.877 43.8133 118.447 43.8133 119.156V123.86C43.8133 123.953 43.7667 124 43.6733 124H42.9593C42.866 124 42.8193 123.953 42.8193 123.86V123.286C42.8193 123.267 42.81 123.253 42.7913 123.244C42.782 123.235 42.768 123.239 42.7493 123.258C42.516 123.538 42.2127 123.753 41.8393 123.902C41.466 124.042 41.0507 124.112 40.5933 124.112C39.9307 124.112 39.3753 123.944 38.9273 123.608C38.4793 123.272 38.2553 122.759 38.2553 122.068C38.2553 121.368 38.5073 120.817 39.0113 120.416C39.5247 120.005 40.234 119.8 41.1393 119.8H42.7633C42.8007 119.8 42.8193 119.781 42.8193 119.744V119.212C42.8193 118.736 42.684 118.363 42.4133 118.092C42.152 117.812 41.7413 117.672 41.1813 117.672C40.7333 117.672 40.3693 117.761 40.0893 117.938C39.8093 118.106 39.6367 118.344 39.5713 118.652C39.5433 118.745 39.4873 118.787 39.4033 118.778L38.6473 118.68C38.5447 118.661 38.5027 118.624 38.5213 118.568C38.596 118.045 38.876 117.621 39.3613 117.294C39.8467 116.967 40.4533 116.804 41.1813 116.804ZM40.7893 123.258C41.34 123.258 41.816 123.123 42.2173 122.852C42.6187 122.572 42.8193 122.199 42.8193 121.732V120.64C42.8193 120.603 42.8007 120.584 42.7633 120.584H41.2933C40.6773 120.584 40.1827 120.71 39.8093 120.962C39.436 121.214 39.2493 121.564 39.2493 122.012C39.2493 122.423 39.3893 122.735 39.6693 122.95C39.9587 123.155 40.332 123.258 40.7893 123.258ZM48.5557 124.112C47.8837 124.112 47.3051 123.939 46.8197 123.594C46.3437 123.239 46.0171 122.763 45.8397 122.166C45.7184 121.755 45.6577 121.177 45.6577 120.43C45.6577 119.758 45.7184 119.189 45.8397 118.722C46.0077 118.143 46.3344 117.681 46.8197 117.336C47.3051 116.981 47.8837 116.804 48.5557 116.804C49.2371 116.804 49.8251 116.977 50.3197 117.322C50.8237 117.667 51.1504 118.097 51.2997 118.61C51.3464 118.778 51.3744 118.918 51.3837 119.03V119.058C51.3837 119.123 51.3417 119.165 51.2577 119.184L50.5577 119.282H50.5297C50.4644 119.282 50.4224 119.24 50.4037 119.156L50.3617 118.946C50.2777 118.591 50.0724 118.293 49.7457 118.05C49.4191 117.798 49.0224 117.672 48.5557 117.672C48.0891 117.672 47.6971 117.798 47.3797 118.05C47.0717 118.293 46.8711 118.619 46.7777 119.03C46.6937 119.385 46.6517 119.856 46.6517 120.444C46.6517 121.06 46.6937 121.536 46.7777 121.872C46.8711 122.292 47.0717 122.628 47.3797 122.88C47.6971 123.123 48.0891 123.244 48.5557 123.244C49.0131 123.244 49.4051 123.127 49.7317 122.894C50.0677 122.651 50.2777 122.343 50.3617 121.97V121.914L50.3757 121.858C50.3851 121.765 50.4411 121.727 50.5437 121.746L51.2297 121.858C51.3231 121.877 51.3651 121.928 51.3557 122.012L51.2997 122.292C51.1597 122.833 50.8377 123.272 50.3337 123.608C49.8297 123.944 49.2371 124.112 48.5557 124.112ZM53.2952 124C53.2018 124 53.1552 123.953 53.1552 123.86V114.34C53.1552 114.247 53.2018 114.2 53.2952 114.2H54.0092C54.1025 114.2 54.1492 114.247 54.1492 114.34V120.066C54.1492 120.085 54.1538 120.099 54.1632 120.108C54.1818 120.117 54.2005 120.113 54.2192 120.094L57.1872 116.986C57.2338 116.939 57.2898 116.916 57.3552 116.916H58.1952C58.2512 116.916 58.2885 116.935 58.3072 116.972C58.3258 117.009 58.3165 117.047 58.2792 117.084L56.4872 119.072C56.4685 119.091 56.4638 119.114 56.4732 119.142L58.6152 123.832L58.6292 123.888C58.6292 123.963 58.5872 124 58.5032 124H57.7472C57.6725 124 57.6212 123.963 57.5932 123.888L55.7872 119.8C55.7685 119.763 55.7452 119.758 55.7172 119.786L54.1772 121.41C54.1585 121.429 54.1492 121.452 54.1492 121.48V123.86C54.1492 123.953 54.1025 124 54.0092 124H53.2952Z" fill="#112B3C"/>
<path d="M4.298 159.126C3.64467 159.126 3.07067 159 2.576 158.748C2.08133 158.487 1.694 158.123 1.414 157.656C1.14333 157.18 1.008 156.634 1.008 156.018V152.168C1.008 151.561 1.14333 151.025 1.414 150.558C1.694 150.091 2.08133 149.732 2.576 149.48C3.07067 149.219 3.64467 149.088 4.298 149.088C4.95133 149.088 5.52533 149.214 6.02 149.466C6.51467 149.718 6.89733 150.073 7.168 150.53C7.448 150.987 7.588 151.515 7.588 152.112C7.588 152.159 7.574 152.196 7.546 152.224C7.518 152.252 7.48533 152.266 7.448 152.266L6.734 152.308C6.64067 152.308 6.594 152.266 6.594 152.182V152.14C6.594 151.477 6.384 150.95 5.964 150.558C5.544 150.157 4.98867 149.956 4.298 149.956C3.60733 149.956 3.052 150.157 2.632 150.558C2.212 150.959 2.002 151.487 2.002 152.14V156.06C2.002 156.713 2.212 157.241 2.632 157.642C3.052 158.043 3.60733 158.244 4.298 158.244C4.98867 158.244 5.544 158.048 5.964 157.656C6.384 157.255 6.594 156.723 6.594 156.06V156.032C6.594 155.948 6.64067 155.906 6.734 155.906L7.448 155.948C7.54133 155.948 7.588 155.99 7.588 156.074C7.588 156.681 7.448 157.217 7.168 157.684C6.89733 158.141 6.51467 158.496 6.02 158.748C5.52533 159 4.95133 159.126 4.298 159.126ZM12.3122 159.112C11.6402 159.112 11.0616 158.939 10.5762 158.594C10.0909 158.249 9.7549 157.773 9.56823 157.166C9.43757 156.737 9.37223 156.163 9.37223 155.444C9.37223 154.725 9.43757 154.156 9.56823 153.736C9.74557 153.139 10.0769 152.667 10.5622 152.322C11.0476 151.977 11.6356 151.804 12.3262 151.804C12.9889 151.804 13.5582 151.977 14.0342 152.322C14.5196 152.667 14.8509 153.134 15.0282 153.722C15.1589 154.123 15.2242 154.697 15.2242 155.444C15.2242 156.2 15.1589 156.774 15.0282 157.166C14.8509 157.773 14.5196 158.249 14.0342 158.594C13.5582 158.939 12.9842 159.112 12.3122 159.112ZM12.3122 158.244C12.7602 158.244 13.1429 158.123 13.4602 157.88C13.7776 157.628 13.9922 157.292 14.1042 156.872C14.1882 156.536 14.2302 156.065 14.2302 155.458C14.2302 154.842 14.1929 154.371 14.1182 154.044C14.0062 153.624 13.7869 153.293 13.4602 153.05C13.1429 152.798 12.7556 152.672 12.2982 152.672C11.8409 152.672 11.4536 152.798 11.1362 153.05C10.8189 153.293 10.6042 153.624 10.4922 154.044C10.4176 154.371 10.3802 154.842 10.3802 155.458C10.3802 156.074 10.4176 156.545 10.4922 156.872C10.5949 157.292 10.8049 157.628 11.1222 157.88C11.4489 158.123 11.8456 158.244 12.3122 158.244ZM20.1791 151.818C20.9258 151.818 21.5185 152.037 21.9571 152.476C22.4051 152.915 22.6291 153.503 22.6291 154.24V158.86C22.6291 158.953 22.5825 159 22.4891 159H21.7751C21.6818 159 21.6351 158.953 21.6351 158.86V154.436C21.6351 153.923 21.4765 153.503 21.1591 153.176C20.8511 152.849 20.4498 152.686 19.9551 152.686C19.4418 152.686 19.0265 152.845 18.7091 153.162C18.3918 153.479 18.2331 153.895 18.2331 154.408V158.86C18.2331 158.953 18.1865 159 18.0931 159H17.3791C17.2858 159 17.2391 158.953 17.2391 158.86V152.056C17.2391 151.963 17.2858 151.916 17.3791 151.916H18.0931C18.1865 151.916 18.2331 151.963 18.2331 152.056V152.658C18.2331 152.677 18.2378 152.691 18.2471 152.7C18.2658 152.709 18.2798 152.705 18.2891 152.686C18.6998 152.107 19.3298 151.818 20.1791 151.818ZM27.964 152.602C27.964 152.695 27.9173 152.742 27.824 152.742H26.242C26.2047 152.742 26.186 152.761 26.186 152.798V156.928C26.186 157.376 26.284 157.693 26.48 157.88C26.6853 158.057 27.0027 158.146 27.432 158.146H27.782C27.8753 158.146 27.922 158.193 27.922 158.286V158.86C27.922 158.953 27.8753 159 27.782 159C27.67 159.009 27.4973 159.014 27.264 159.014C26.592 159.014 26.0833 158.888 25.738 158.636C25.3927 158.384 25.22 157.917 25.22 157.236V152.798C25.22 152.761 25.2013 152.742 25.164 152.742H24.31C24.2167 152.742 24.17 152.695 24.17 152.602V152.056C24.17 151.963 24.2167 151.916 24.31 151.916H25.164C25.2013 151.916 25.22 151.897 25.22 151.86V150.236C25.22 150.143 25.2667 150.096 25.36 150.096H26.046C26.1393 150.096 26.186 150.143 26.186 150.236V151.86C26.186 151.897 26.2047 151.916 26.242 151.916H27.824C27.9173 151.916 27.964 151.963 27.964 152.056V152.602ZM32.3356 151.804C33.1756 151.804 33.8243 152.019 34.2816 152.448C34.739 152.877 34.9676 153.447 34.9676 154.156V158.86C34.9676 158.953 34.921 159 34.8276 159H34.1136C34.0203 159 33.9736 158.953 33.9736 158.86V158.286C33.9736 158.267 33.9643 158.253 33.9456 158.244C33.9363 158.235 33.9223 158.239 33.9036 158.258C33.6703 158.538 33.367 158.753 32.9936 158.902C32.6203 159.042 32.205 159.112 31.7476 159.112C31.085 159.112 30.5296 158.944 30.0816 158.608C29.6336 158.272 29.4096 157.759 29.4096 157.068C29.4096 156.368 29.6616 155.817 30.1656 155.416C30.679 155.005 31.3883 154.8 32.2936 154.8H33.9176C33.955 154.8 33.9736 154.781 33.9736 154.744V154.212C33.9736 153.736 33.8383 153.363 33.5676 153.092C33.3063 152.812 32.8956 152.672 32.3356 152.672C31.8876 152.672 31.5236 152.761 31.2436 152.938C30.9636 153.106 30.791 153.344 30.7256 153.652C30.6976 153.745 30.6416 153.787 30.5576 153.778L29.8016 153.68C29.699 153.661 29.657 153.624 29.6756 153.568C29.7503 153.045 30.0303 152.621 30.5156 152.294C31.001 151.967 31.6076 151.804 32.3356 151.804ZM31.9436 158.258C32.4943 158.258 32.9703 158.123 33.3716 157.852C33.773 157.572 33.9736 157.199 33.9736 156.732V155.64C33.9736 155.603 33.955 155.584 33.9176 155.584H32.4476C31.8316 155.584 31.337 155.71 30.9636 155.962C30.5903 156.214 30.4036 156.564 30.4036 157.012C30.4036 157.423 30.5436 157.735 30.8236 157.95C31.113 158.155 31.4863 158.258 31.9436 158.258ZM39.71 159.112C39.038 159.112 38.4593 158.939 37.974 158.594C37.498 158.239 37.1713 157.763 36.994 157.166C36.8727 156.755 36.812 156.177 36.812 155.43C36.812 154.758 36.8727 154.189 36.994 153.722C37.162 153.143 37.4887 152.681 37.974 152.336C38.4593 151.981 39.038 151.804 39.71 151.804C40.3913 151.804 40.9793 151.977 41.474 152.322C41.978 152.667 42.3047 153.097 42.454 153.61C42.5007 153.778 42.5287 153.918 42.538 154.03V154.058C42.538 154.123 42.496 154.165 42.412 154.184L41.712 154.282H41.684C41.6187 154.282 41.5767 154.24 41.558 154.156L41.516 153.946C41.432 153.591 41.2267 153.293 40.9 153.05C40.5733 152.798 40.1767 152.672 39.71 152.672C39.2433 152.672 38.8513 152.798 38.534 153.05C38.226 153.293 38.0253 153.619 37.932 154.03C37.848 154.385 37.806 154.856 37.806 155.444C37.806 156.06 37.848 156.536 37.932 156.872C38.0253 157.292 38.226 157.628 38.534 157.88C38.8513 158.123 39.2433 158.244 39.71 158.244C40.1673 158.244 40.5593 158.127 40.886 157.894C41.222 157.651 41.432 157.343 41.516 156.97V156.914L41.53 156.858C41.5393 156.765 41.5953 156.727 41.698 156.746L42.384 156.858C42.4773 156.877 42.5193 156.928 42.51 157.012L42.454 157.292C42.314 157.833 41.992 158.272 41.488 158.608C40.984 158.944 40.3913 159.112 39.71 159.112ZM47.4875 152.602C47.4875 152.695 47.4408 152.742 47.3475 152.742H45.7655C45.7281 152.742 45.7095 152.761 45.7095 152.798V156.928C45.7095 157.376 45.8075 157.693 46.0035 157.88C46.2088 158.057 46.5261 158.146 46.9555 158.146H47.3055C47.3988 158.146 47.4455 158.193 47.4455 158.286V158.86C47.4455 158.953 47.3988 159 47.3055 159C47.1935 159.009 47.0208 159.014 46.7875 159.014C46.1155 159.014 45.6068 158.888 45.2615 158.636C44.9161 158.384 44.7435 157.917 44.7435 157.236V152.798C44.7435 152.761 44.7248 152.742 44.6875 152.742H43.8335C43.7401 152.742 43.6935 152.695 43.6935 152.602V152.056C43.6935 151.963 43.7401 151.916 43.8335 151.916H44.6875C44.7248 151.916 44.7435 151.897 44.7435 151.86V150.236C44.7435 150.143 44.7901 150.096 44.8835 150.096H45.5695C45.6628 150.096 45.7095 150.143 45.7095 150.236V151.86C45.7095 151.897 45.7281 151.916 45.7655 151.916H47.3475C47.4408 151.916 47.4875 151.963 47.4875 152.056V152.602ZM56.4958 152.056C56.4958 151.963 56.5425 151.916 56.6358 151.916H57.3498C57.4431 151.916 57.4898 151.963 57.4898 152.056V158.86C57.4898 158.953 57.4431 159 57.3498 159H56.6358C56.5425 159 56.4958 158.953 56.4958 158.86V158.258C56.4958 158.239 56.4865 158.225 56.4678 158.216C56.4491 158.207 56.4351 158.211 56.4258 158.23C56.0338 158.809 55.4131 159.098 54.5638 159.098C54.1158 159.098 53.7005 159.009 53.3178 158.832C52.9445 158.645 52.6458 158.379 52.4218 158.034C52.2071 157.689 52.0998 157.273 52.0998 156.788V152.056C52.0998 151.963 52.1465 151.916 52.2398 151.916H52.9538C53.0471 151.916 53.0938 151.963 53.0938 152.056V156.494C53.0938 157.026 53.2431 157.451 53.5418 157.768C53.8405 158.076 54.2465 158.23 54.7598 158.23C55.2918 158.23 55.7118 158.071 56.0198 157.754C56.3371 157.437 56.4958 157.017 56.4958 156.494V152.056ZM62.0417 159.07C61.519 159.07 61.0523 158.986 60.6417 158.818C60.2403 158.65 59.9277 158.426 59.7037 158.146C59.489 157.866 59.3817 157.553 59.3817 157.208V157.04C59.3817 156.947 59.4283 156.9 59.5217 156.9H60.1937C60.287 156.9 60.3337 156.947 60.3337 157.04V157.152C60.3337 157.46 60.4923 157.731 60.8097 157.964C61.1363 158.188 61.5423 158.3 62.0277 158.3C62.513 158.3 62.905 158.193 63.2037 157.978C63.5023 157.754 63.6517 157.474 63.6517 157.138C63.6517 156.905 63.5723 156.713 63.4137 156.564C63.2643 156.415 63.0823 156.298 62.8677 156.214C62.6623 156.13 62.3403 156.023 61.9017 155.892C61.379 155.743 60.9497 155.593 60.6137 155.444C60.2777 155.295 59.993 155.089 59.7597 154.828C59.5357 154.557 59.4237 154.217 59.4237 153.806C59.4237 153.209 59.657 152.733 60.1237 152.378C60.5903 152.023 61.2063 151.846 61.9717 151.846C62.485 151.846 62.9377 151.93 63.3297 152.098C63.731 152.266 64.039 152.499 64.2537 152.798C64.4683 153.087 64.5757 153.414 64.5757 153.778V153.82C64.5757 153.913 64.529 153.96 64.4357 153.96H63.7777C63.6843 153.96 63.6377 153.913 63.6377 153.82V153.778C63.6377 153.461 63.4837 153.195 63.1757 152.98C62.877 152.765 62.471 152.658 61.9577 152.658C61.4817 152.658 61.099 152.756 60.8097 152.952C60.5203 153.139 60.3757 153.4 60.3757 153.736C60.3757 154.053 60.5157 154.296 60.7957 154.464C61.0757 154.632 61.5097 154.8 62.0977 154.968C62.639 155.127 63.0777 155.276 63.4137 155.416C63.7497 155.556 64.039 155.761 64.2817 156.032C64.5243 156.293 64.6457 156.639 64.6457 157.068C64.6457 157.675 64.4077 158.16 63.9317 158.524C63.4557 158.888 62.8257 159.07 62.0417 159.07Z" fill="#112B3C"/>
</svg>
